<svg xmlns="http://www.w3.org/2000/svg" data-name="1" viewBox="0 0 995.76 1000"><defs><clipPath id="a"><path fill="none" d="M259.8 110.42h327.42v475.87H259.8z"/></clipPath><clipPath id="b"><path fill="#79a2e4" d="M386.24 91.09s2.26 73.7-40.46 140.42-78.77 88-78.77 88 32.46 129.39 37.75 155.3 27.18 79.4 27.18 79.4L290.09 564l3.67 34.74h-52l-4 13.74-34.59-1.48s27.7-242.13 30.83-256.1 13.91-35.36 13.91-35.36-11.85-9.63-10.15-95 15.73-133.45 15.73-133.45Z"/></clipPath><clipPath id="c"><path fill="#a4d2f3" d="M524.74 91.09c-.18 4.88 1.36 31.83.66 40.59q-2.24 27.84-4.67 55.64-4.86 55.68-10.5 111.18-11.28 111.09-25.69 221.82-4.89 37.65-10.15 75.24l70.48.66q2.93 22.17 5.84 44.33c21.84-9.84 48.71-6.69 67.83 8l16.46 1.1c-2.09 0-13.13-409.26-14.32-446.52q-.84-25.8-1.66-51.61c-.51-15.9 2.84-58.56 2.84-58.56h-92.55s-4.57-1.9-4.57-1.87Z"/></clipPath></defs><g data-name="22"><path fill="#fffbe9" d="M903.05 442.92c16.8-268.23-214.71-381.13-490.22-324.5-57 11.73-110.6 36-158.34 66.8q-4.31 2.78-8.54 5.64c-63.87 43.24-115 102-146.6 168.48-36.41 76.6-31.42 159.33-4.26 238.09 15.49 44.93 38.2 88.22 70.85 124.78 22.58 25.29 49.55 47 76.39 68.58 23.8 19.13 45.93 30.56 74.26 43.62 58.59 27 146.38 51.62 223 60.88C629 906.09 724.85 887 762.2 870c37.94-17.34 73.5-42.7 90.77-78s11.62-81.6-21.26-106c-17-12.61-41.81-21.7-44.48-41.48-1.53-11.26 5.23-21.91 11.47-31.74 33.78-53.25 100.51-108.54 104.35-169.86Z"/><ellipse cx="427.65" cy="641.15" fill="#5275c2" rx="219.85" ry="84.79"/><g clip-path="url(#a)"><path fill="#c4def7" d="M241.53 287.6 405.19 58.8l96.24 28.66-361.94 490.06L241.53 287.6z"/><path fill="#d7e6f9" d="m276.49 302.89 163.67-228.8 96.23 28.66-361.94 490.06 102.04-289.92z"/><path fill="#c4def7" d="M219.81 531.38 557.96 49.63l154.5 126.64-407.34 541.9-85.31-186.79z"/><path fill="#c4def7" d="m255.11 624.78 338.14-481.76 154.5 126.65-407.34 541.9-85.3-186.79z"/><path fill="#a4d2f3" d="m140.88 217.77 163.67-228.8 132.39 41.55L74.99 520.58l65.89-302.81z"/><path fill="#eaeefa" d="m381.39 547.92 314.52-403.45-74.17 183.76L259.8 818.29l121.59-270.37z"/><path fill="#a4d2f3" d="m452.78 621.28 163.67-228.8 96.23 28.66L350.74 911.2l102.04-289.92z"/></g><path fill="#a4d2f3" d="M591.43 103.26H252.27V603H603V103.26Zm-.14 243.8h-157.7V115h157.7ZM264 115h157.85v232.06H264Zm0 476.26V358.8h157.85v232.07h11.74V358.8h157.7v232.46Z"/><path fill="#fff" d="M587.22 98.68H248.06v499.74h350.76V98.68Zm-.13 243.81H429.38V110.42h157.71ZM259.8 110.42h157.84v232.07H259.8Zm0 476.27V354.22h157.84v232.07h11.74V354.22h157.71v232.47Z"/><path fill="#79a2e4" d="M386.24 91.09s2.26 73.7-40.46 140.42-78.77 88-78.77 88 32.46 129.39 37.75 155.3 27.18 79.4 27.18 79.4L290.09 564l3.67 34.74h-52l-4 13.74-34.59-1.48s27.7-242.13 30.83-256.1 13.91-35.36 13.91-35.36-11.85-9.63-10.15-95 15.73-133.45 15.73-133.45Z"/><g clip-path="url(#b)"><path fill="#90bdf4" d="M376 63.05c12.21 14.5 16.43 34.12 17.62 53A205.36 205.36 0 0 1 298 302.94c-9.68 6.13-21.09 10.63-29.76 17.78-12 9.9-25.29 19.53-36.29 30.53 21.93-34.67 47.33-65.95 73.58-97.35 10.85-13 19.34-30.67 27.31-45.72a383.59 383.59 0 0 0 23.34-53.5A380.28 380.28 0 0 0 376 63.05Z"/><path fill="#90bdf4" d="m251 311.88 11.88-22.3s2.77-62.41 4.1-77.92 10.87-103 12.52-105.34 10.56-24.75 10.56-24.75-24.06-1.36-33.29 79.07A1038.92 1038.92 0 0 0 251 311.88ZM320.16 86.86c0 2.35-38.76 165.14-38.76 165.14l54.37-139.38 4.14-32.73ZM260.74 322.1l49.82 221.55-12.19 27.45 69.21-3.22-82.83-227.98-24.01-17.8zM302.69 633.47l-14.85-30.63-31.88-277.14-4.93 4.73 7.65 286.71 44.01 16.33zM225.32 627.03l16.23-287.13 3.37-4.73-9.88 300.85-9.72-8.99z"/></g><path fill="#79a2e4" d="M247.91 320.93a1.51 1.51 0 0 1-.65-.15 1.43 1.43 0 0 1-.62-1.92c15.82-31.19 32.4-65.22 48.43-98.13s32.61-67 48.45-98.17a1.42 1.42 0 1 1 2.54 1.29c-15.82 31.15-32.4 65.22-48.43 98.15s-32.61 67-48.45 98.17a1.41 1.41 0 0 1-1.27.76Z"/><path fill="#79a2e4" d="M262.91 291h-.22a1.43 1.43 0 0 1-1.19-1.63c2.05-13.23 2.75-31.52 3.55-52.71 1.64-43.36 3.69-97.32 18.33-146a1.43 1.43 0 1 1 2.73.82c-14.53 48.3-16.57 102.06-18.21 145.26-.8 21.27-1.5 39.65-3.58 53a1.43 1.43 0 0 1-1.41 1.26ZM235 352.27a1.43 1.43 0 0 1-1.07-2.38c2-2.21 8.82-8.79 16.07-15.75 6.89-6.62 14-13.46 15.91-15.59a1.43 1.43 0 0 1 2.13 1.9c-2 2.22-8.81 8.79-16.06 15.75-6.89 6.62-14 13.46-15.91 15.59a1.42 1.42 0 0 1-1.07.48Z"/><path fill="#79a2e4" d="M290.09 565.44a1.42 1.42 0 0 1-1.41-1.21c-4.29-27.61-10.79-73-17.07-116.84s-12.77-89.16-17.06-116.74a1.43 1.43 0 1 1 2.83-.44c4.28 27.6 10.78 72.93 17.06 116.78s12.77 89.21 17.06 116.81a1.43 1.43 0 0 1-1.19 1.63ZM241.78 600.18a1.43 1.43 0 0 1-1.43-1.38c-.91-29.39 1-70.09 3.08-113.18 2.7-56.52 5.49-115 1.26-145.52a1.43 1.43 0 1 1 2.83-.39c4.26 30.82 1.47 89.4-1.23 146.05-2.06 43-4 83.68-3.08 113a1.43 1.43 0 0 1-1.38 1.47Z"/><path fill="#a4d2f3" d="M524.74 91.09c-.18 4.88 1.36 31.83.66 40.59q-2.24 27.84-4.67 55.64-4.86 55.68-10.5 111.18-11.28 111.09-25.69 221.82-4.89 37.65-10.15 75.24l70.48.66q2.93 22.17 5.84 44.33c21.84-9.84 48.71-6.69 67.83 8l16.46 1.1c-2.09 0-13.13-409.26-14.32-446.52q-.84-25.8-1.66-51.61c-.51-15.9 2.84-58.56 2.84-58.56h-92.55s-4.57-1.9-4.57-1.87Z"/><g clip-path="url(#c)"><path fill="#90bdf4" d="m550.26 671.94 35.73-585.08 5.83-.89-25.8 609.48-15.76-23.51zM600.44 676.49l5.37-589.23 23.28-3.55 9.76 607.5-38.41-14.72zM454.43 606.59l61.49-531.98 22.21.94-44.74 547.44-38.96-16.4zM544.87 86.31l20.56-3.46-34.24 349.22 13.68-345.76z"/></g><path fill="#79a2e4" d="M544.87 597.65h-.1a1.43 1.43 0 0 1-1.32-1.53l28.55-408a1.43 1.43 0 1 1 2.85.2l-28.55 408a1.43 1.43 0 0 1-1.43 1.33ZM524.19 433.5h-.06a1.44 1.44 0 0 1-1.37-1.49L536.7 97a1.44 1.44 0 0 1 1.48-1.36 1.42 1.42 0 0 1 1.37 1.48l-13.93 335a1.43 1.43 0 0 1-1.43 1.38ZM584.08 636.62a1.44 1.44 0 0 1-1.41-1.46l8.88-492.42a1.42 1.42 0 0 1 1.43-1.4 1.43 1.43 0 0 1 1.4 1.46l-8.87 492.42a1.42 1.42 0 0 1-1.43 1.4Z"/><rect width="384.49" height="13.16" x="243.06" y="87.79" fill="#90bdf4" rx="2.65"/><path fill="#fff" d="M772.45 758.06c-32.16-8.73-71.77-15.93-114.54-20.84a1289.9 1289.9 0 0 0-146.3-8 1290 1290 0 0 0-146.31 8c-42.77 4.91-82.38 12.11-114.54 20.84-28.89 7.84-51.7 16.82-66 26-9.66 6.2-14.56 11.83-14.56 16.75s4.9 10.56 14.56 16.75c14.27 9.16 37.08 18.13 66 26 32.16 8.73 71.77 15.93 114.54 20.84a1290 1290 0 0 0 146.31 8 1289.9 1289.9 0 0 0 146.3-8c42.77-4.91 82.38-12.11 114.54-20.84 28.89-7.84 51.7-16.81 66-26 9.66-6.19 14.56-11.83 14.56-16.75s-4.9-10.55-14.56-16.75c-14.3-9.18-37.11-18.16-66-26Z"/><path fill="#c3e3e5" d="M511.61 689.35c-226.87 0-410.78 49.89-410.78 111.43s183.91 111.43 410.78 111.43 410.77-49.89 410.77-111.43-183.91-111.43-410.77-111.43Zm326.81 128.18c-14.27 9.16-37.08 18.13-66 26-32.16 8.73-71.77 15.93-114.54 20.84a1289.9 1289.9 0 0 1-146.3 8 1290 1290 0 0 1-146.31-8c-42.77-4.91-82.38-12.11-114.54-20.84-28.89-7.84-51.7-16.81-66-26-9.66-6.19-14.56-11.83-14.56-16.75s4.9-10.55 14.56-16.75c14.27-9.15 37.08-18.13 66-26 32.16-8.73 71.77-15.93 114.54-20.84a1290 1290 0 0 1 146.31-8 1289.9 1289.9 0 0 1 146.3 8c42.77 4.91 82.38 12.11 114.54 20.84 28.89 7.84 51.7 16.82 66 26 9.66 6.2 14.56 11.83 14.56 16.75s-4.9 10.56-14.56 16.75Z"/><circle cx="728.59" cy="147.45" r="55.03" fill="#85c4cb" transform="rotate(-82.03 728.57 147.464)"/><circle cx="728.59" cy="147.45" r="45.52" fill="#fff" transform="rotate(-76.72 728.572 147.465)"/><path fill="#85c4cb" d="M698.67 137.49h19.56v-19.57h18.07v19.57h19.57v18.07H736.3v19.56h-18.07v-19.56h-19.56v-18.07z"/><path fill="#fff5b0" d="M724.35 169.01v-19.57h-19.57v-5.84h19.57v-19.56h5.84v19.56h19.56v5.84h-19.56v19.57h-5.84z"/><path fill="#754c24" stroke="#754d24" stroke-miterlimit="10" stroke-width="2.23" d="m492.16 699.49 226.59-.3a21.34 21.34 0 0 0 21.31-21.36L739.5 206a21.34 21.34 0 0 0-21.37-21.31l-226.59.31a21.34 21.34 0 0 0-21.31 21.37l.56 471.84a21.34 21.34 0 0 0 21.37 21.28Z"/><path fill="#77afb5" d="m498.83 699.48 226.58-.29a21.36 21.36 0 0 0 21.32-21.37L746.16 206a21.33 21.33 0 0 0-21.36-21.31l-226.59.31a21.34 21.34 0 0 0-21.31 21.37l.56 471.84a21.33 21.33 0 0 0 21.37 21.27Z"/><path fill="#fff" d="m732.86 631.11-.47-417.56a16.78 16.78 0 0 0-16.8-16.76l-208.14.28a16.76 16.76 0 0 0-16.75 16.79l.47 417.56A16.77 16.77 0 0 0 508 648.17l208.15-.27a16.77 16.77 0 0 0 16.71-16.79Z"/><path fill="#754c24" d="M634.51 224.14h6.17v12.65h-6.17z" transform="rotate(-.08 601.456 215.28)"/><path fill="#754c24" d="M644.36 220.25h6.17v16.53h-6.17z" transform="rotate(-.07 679.22 237.783)"/><path fill="#754c24" d="M654.2 215.84h6.17v20.92h-6.17z" transform="rotate(-.08 622.942 215.294)"/><path fill="#754c24" d="M664.04 210.9h6.17v25.85h-6.17z" transform="rotate(-.07 695.59 237.793)"/><rect width="37.46" height="10.27" x="678.63" y="218.71" fill="#754c24" rx=".83" transform="rotate(-.07 744.7 237.823)"/><path fill="#754c24" d="M697.36 218.7h17.89a.83.83 0 0 1 .83.83v8.61a.83.83 0 0 1-.83.83h-17.89V218.7Z" transform="translate(-.29 .93)"/><path fill="#754c24" d="M511.24 215.85v16.06h-2.44v-13.63h-.09l-3.84 2.51v-2.32l4-2.62ZM515.58 231.91v-1.75l5.44-5.64c.58-.61 1.06-1.15 1.44-1.61a6 6 0 0 0 .85-1.32 3.17 3.17 0 0 0 .28-1.33 2.51 2.51 0 0 0-.38-1.39 2.48 2.48 0 0 0-1-.9 3.37 3.37 0 0 0-1.47-.32 3.15 3.15 0 0 0-1.51.35 2.42 2.42 0 0 0-1 1 3 3 0 0 0-.35 1.51h-2.31a4.8 4.8 0 0 1 .67-2.57 4.6 4.6 0 0 1 1.85-1.7 6.22 6.22 0 0 1 5.35 0 4.61 4.61 0 0 1 1.81 1.63 4.3 4.3 0 0 1 .65 2.33 4.61 4.61 0 0 1-.34 1.74 7.66 7.66 0 0 1-1.15 1.91c-.55.69-1.32 1.54-2.29 2.53l-3.2 3.35v.11h7.24v2.08ZM530.71 223.29a1.51 1.51 0 0 1-1.11-.46 1.56 1.56 0 0 1 0-2.21 1.56 1.56 0 0 1 2.21 0 1.49 1.49 0 0 1 .46 1.1 1.53 1.53 0 0 1-.21.79 1.64 1.64 0 0 1-.57.57 1.52 1.52 0 0 1-.78.21Zm0 8.77a1.51 1.51 0 0 1-1.11-.46 1.56 1.56 0 0 1 0-2.21 1.56 1.56 0 0 1 2.21 0 1.49 1.49 0 0 1 .46 1.1 1.53 1.53 0 0 1-.21.79 1.64 1.64 0 0 1-.57.57 1.52 1.52 0 0 1-.78.21ZM541.48 215.85v16.06H539v-13.63l-3.84 2.51v-2.32l4-2.62ZM545.82 231.91v-1.75l5.44-5.64c.58-.61 1.06-1.15 1.44-1.61a6.34 6.34 0 0 0 .85-1.32 3.17 3.17 0 0 0 .28-1.33 2.51 2.51 0 0 0-.38-1.39 2.48 2.48 0 0 0-1-.9 3.37 3.37 0 0 0-1.47-.32 3.15 3.15 0 0 0-1.51.35 2.44 2.44 0 0 0-1 1 3.15 3.15 0 0 0-.34 1.51h-2.33a4.81 4.81 0 0 1 .68-2.57 4.6 4.6 0 0 1 1.85-1.7 5.69 5.69 0 0 1 2.68-.61 5.77 5.77 0 0 1 2.67.6 4.52 4.52 0 0 1 1.8 1.63 4.23 4.23 0 0 1 .66 2.33 4.81 4.81 0 0 1-.34 1.74 8 8 0 0 1-1.15 1.91 33.09 33.09 0 0 1-2.3 2.53l-3.19 3.35v.11h7.23v2.08Z"/><path fill="#8a8a8a" d="M695 842.74c-24.39 0-49.37-5.27-65.08-15.19-12.42-7.83-21.38-20.56-26.31-37.21-27.28 8.16-61.41 12.7-101.49 13.47-33.07.64-70.3-1.26-110.64-5.65a1243.21 1243.21 0 0 1-123.84-19.83 5.09 5.09 0 0 1-3.9-6.11 5.21 5.21 0 0 1 6.26-3.82 1231.28 1231.28 0 0 0 122.77 19.65C481 797.64 553 795 601.21 780.39c-.19-1-.36-2-.52-3a123.47 123.47 0 0 1-.87-31.67 5.17 5.17 0 0 1 5.81-4.42 5.1 5.1 0 0 1 4.52 5.67 117.19 117.19 0 0 0 1.11 30.36c73.79-22.26 126.33-23.87 148.4-4.41 9.41 8.29 12.82 19.91 9.87 33.62-2.63 12.21-12.21 22-27.7 28.33-13.11 5.31-29.83 7.87-46.83 7.87Zm-81.43-55.48c3.52 12.14 10.07 24.21 22 31.73 23.84 15 73.54 18.17 102.29 6.44 12.36-5 19.6-12.12 21.52-21 2.17-10.09-.06-18.15-6.64-23.95-8.85-7.8-25.33-11.56-47.7-10.87-24.55.72-55.3 6.67-91.5 17.65Z"/><path fill="#fff" stroke="#292739" stroke-linecap="round" stroke-linejoin="round" stroke-width="2.92" d="M609.71 750a10.16 10.16 0 0 1-4.4-1 408.62 408.62 0 0 1-88.42-57.25 379.8 379.8 0 0 1-63.45-69.34 363.81 363.81 0 0 1-40.57-74.1A318.79 318.79 0 0 1 393 476.55c-3.86-25.8-3.79-50.39.22-71.1 4.15-21.48 17.47-54.07 38.68-62 5.27-2 1.09 7.77 4.91 11.91s.32 10.14-3.82 13.95c-8.38 7.73-16.45 22.84-19.77 40-3.57 18.47-3.59 40.67-.07 64.22 12.53 83.64 71.9 195.1 201 257.05a10.19 10.19 0 0 1-4.44 19.42Z"/><path fill="#fff5b0" d="M424.21 363.75a54.81 54.81 0 0 0-8.63 11.61 78.87 78.87 0 0 0-5.87 13.15c-.82 2.26-1.45 4.58-2.13 6.88l-.88 3.49c-.3 1.16-.51 2.34-.77 3.51l-.37 1.76-.31 1.78c-.2 1.18-.42 2.36-.6 3.55-.31 2.38-.67 4.75-.87 7.14a184.1 184.1 0 0 0-.68 28.76l.08 1.79.12 1.8.25 3.59c.2 2.39.43 4.78.67 7.17.54 4.77 1.17 9.53 2 14.27a313.39 313.39 0 0 0 14.67 55.62q4.92 13.54 10.92 26.65t13 25.69c4.65 8.41 9.7 16.59 15 24.58s10.95 15.8 16.84 23.39a389.06 389.06 0 0 0 38.85 42.64l2.63 2.48 1.31 1.24 1.34 1.21 5.37 4.84 5.49 4.71c1.82 1.59 3.69 3.11 5.55 4.64 3.7 3.1 7.54 6 11.34 9l5.82 4.31c1 .72 1.94 1.45 2.92 2.15l3 2.08a469 469 0 0 0 49.47 30.54 367.82 367.82 0 0 1-51.74-27.2l-3.1-2c-1-.66-2-1.36-3-2l-6.08-4.1c-4-2.83-8-5.62-11.89-8.59s-7.73-6-11.57-9l-5.63-4.72-1.43-1.16-1.38-1.22-2.75-2.44-2.75-2.44c-.9-.82-1.79-1.67-2.69-2.5l-2.73-2.56c-.89-.84-1.8-1.67-2.66-2.53l-5.24-5.17c-1.72-1.74-3.41-3.52-5.12-5.28-6.77-7.1-13.23-14.5-19.41-22.13s-12-15.58-17.48-23.71-10.67-16.5-15.45-25.09-9.2-17.38-13.23-26.34-7.67-18.1-10.87-27.4-6-18.73-8.29-28.29a276.68 276.68 0 0 1-5.43-29 229.62 229.62 0 0 1-2.08-29.41 186.74 186.74 0 0 1 2.05-29.41c.35-2.44.86-4.85 1.32-7.26.25-1.21.55-2.4.82-3.6l.42-1.8.48-1.78c.34-1.19.62-2.38 1-3.55l1.17-3.49c.82-2.33 1.64-4.64 2.64-6.9a79.67 79.67 0 0 1 6.92-13 52.71 52.71 0 0 1 9.65-10.95Z"/><path fill="#754c24" d="m547.56 690.15 6.14-.19a31.48 31.48 0 0 1-7.25 14.15c-6.16 7.17-9.88 8.06-9.88 8.06l-1.07-5.54a26.33 26.33 0 0 0 8-7.14 31.79 31.79 0 0 0 4.06-9.34Z"/><path fill="#fff" stroke="#292739" stroke-linecap="round" stroke-linejoin="round" stroke-width="2.92" d="M608.6 750a10.16 10.16 0 0 0 4.4-1 408.37 408.37 0 0 0 88.42-57.25 379.5 379.5 0 0 0 63.46-69.34 363.28 363.28 0 0 0 40.56-74.1 318.79 318.79 0 0 0 19.86-71.72c3.87-25.8 3.79-50.39-.21-71.1-4.15-21.48-17.48-54.07-38.68-62-5.27-2-1.1 7.77-4.91 11.91s-.32 10.14 3.81 13.95c8.39 7.73 16.46 22.84 19.78 40 3.57 18.47 3.59 40.67.06 64.22-12.52 83.64-71.9 195.1-201 257.05A10.19 10.19 0 0 0 608.6 750Z"/><path fill="#fff5b0" d="M794.1 363.75a53 53 0 0 1 9.68 11 80.45 80.45 0 0 1 6.92 13c1 2.26 1.82 4.57 2.64 6.9l1.11 3.52c.38 1.17.66 2.36 1 3.55l.49 1.78.42 1.8c.27 1.2.57 2.39.81 3.6.47 2.41 1 4.82 1.32 7.26a185.55 185.55 0 0 1 2 29.41 229.62 229.62 0 0 1-2.08 29.41 279.26 279.26 0 0 1-5.42 29c-2.29 9.56-5.1 19-8.3 28.29s-6.86 18.43-10.87 27.4-8.46 17.74-13.22 26.34-10 16.94-15.45 25.09-11.34 16.05-17.48 23.71-12.65 15-19.42 22.13c-1.71 1.76-3.39 3.54-5.12 5.28l-5.23 5.17c-.87.86-1.77 1.69-2.67 2.53l-2.69 2.51c-.89.83-1.78 1.68-2.69 2.5l-2.75 2.44-2.75 2.44L703 681l-1.41 1.18-5.59 4.67c-3.83 3-7.61 6.16-11.57 9s-7.91 5.76-11.89 8.59l-6.08 4.1c-1 .67-2 1.37-3.05 2l-3.1 2a367.71 367.71 0 0 1-51.69 27.21 471.07 471.07 0 0 0 49.47-30.54l3-2.08c1-.7 2-1.43 2.92-2.15l5.82-4.31c3.81-3 7.65-5.91 11.34-9 1.87-1.53 3.74-3.05 5.56-4.64l5.48-4.71 5.37-4.84 1.34-1.21 1.32-1.24 2.63-2.48a389 389 0 0 0 38.84-42.64c5.9-7.59 11.54-15.38 16.85-23.39s10.38-16.17 15-24.58 9-17 13-25.69 7.64-17.62 10.91-26.65a312.57 312.57 0 0 0 14.67-55.6c.78-4.74 1.42-9.5 2-14.27.24-2.39.47-4.78.66-7.17l.2-3.56.13-1.8.08-1.79a186.58 186.58 0 0 0-.68-28.76c-.21-2.39-.56-4.76-.88-7.14-.17-1.19-.4-2.37-.59-3.55l-.31-1.78-.37-1.76c-.26-1.17-.47-2.35-.78-3.51l-.88-3.49c-.68-2.3-1.31-4.62-2.13-6.88a78.83 78.83 0 0 0-5.86-13.15 54.52 54.52 0 0 0-8.63-11.64Z"/><path fill="#fe9" d="M618.93 750.32a417.09 417.09 0 0 0 62.82-38.15c-8.06-2.86-15.79-15.5-17.14-22.21a386.41 386.41 0 0 1-55.45 33.93A386 386 0 0 1 553.7 690c-1.34 6.71-9.07 19.35-17.13 22.21a417 417 0 0 0 62.81 38.15 14.09 14.09 0 0 0 9.23 3.47h1.1a14 14 0 0 0 9.22-3.51Z"/><path fill="#754c24" d="m670.76 690.15-6.15-.19a31.57 31.57 0 0 0 7.26 14.15c6.15 7.17 9.88 8.06 9.88 8.06l1.06-5.54a26.23 26.23 0 0 1-7.94-7.14 31.48 31.48 0 0 1-4.11-9.34Z"/><path fill="#292739" stroke="#292739" stroke-linecap="round" stroke-linejoin="round" stroke-width="2.92" d="M430.89 365.67h0a1.65 1.65 0 0 0 1.65-1.65v-8.79a1.65 1.65 0 0 0-1.65-1.65h0a6.05 6.05 0 0 0-6.05 6.05h0a6 6 0 0 0 6.05 6.04Z"/><path fill="#79a2e4" stroke="#292739" stroke-linecap="round" stroke-linejoin="round" stroke-width="2.92" d="M436.36 336.59h0v46.07h0a5.45 5.45 0 0 1-5.45-5.45v-35.16a5.45 5.45 0 0 1 5.45-5.46Z"/><path fill="#fff" d="M432.72 374.88c0 .16.07.32.11.48a10.42 10.42 0 0 0 1.8 3.6 11.26 11.26 0 0 0 .85 1v-3.43a13.92 13.92 0 0 1-2.74-5.17 18.88 18.88 0 0 0-.2 2 8.51 8.51 0 0 0 .18 1.52Z"/><path fill="#fff5b0" d="M448.06 320.81H447c-6.68 0-12.09 9.59-12.09 16.27v45.79c0 6.68 5.41 15.57 12.09 15.57h1.08a3.3 3.3 0 0 0 3.3-3.3v-71a3.3 3.3 0 0 0-3.32-3.33Z"/><path fill="#fff5b0" d="M444.13 397.92a8.06 8.06 0 0 0 2.78.52H448a3.3 3.3 0 0 0 3.3-3.3v-71a3.3 3.3 0 0 0-3.3-3.3h-1.08a7.46 7.46 0 0 0-2.78.56Z"/><path fill="#fff5b0" d="M437.63 386.3c0 .17.07.33.11.49a10.2 10.2 0 0 0 1.8 3.59 11 11 0 0 0 3.51 3 11.58 11.58 0 0 0 7.17 1.6h.11v-3a19.08 19.08 0 0 1-2.48-.14 13.88 13.88 0 0 1-3.6-.93c-3.21-1.34-5.71-4.83-6.6-8.13a19.21 19.21 0 0 0-.2 1.95 8.51 8.51 0 0 0 .18 1.57Z"/><path fill="#fff5b0" d="M448.06 399.71H447c-7.19 0-13.36-9.26-13.36-16.84v-45.79c0-7.06 5.61-17.54 13.36-17.54h1.08a4.57 4.57 0 0 1 4.56 4.57v71a4.57 4.57 0 0 1-4.58 4.6ZM447 322.08c-6 0-10.82 9.07-10.82 15v45.79c0 6.3 5.09 14.3 10.82 14.3h1.08a2 2 0 0 0 2-2v-71a2 2 0 0 0-2-2Z"/><path fill="#85c4cb" d="M465.76 307h-1.45c-9.05 0-16.39 13-16.39 22v62.05c0 9.06 7.34 21.1 16.39 21.1h1.45a4.47 4.47 0 0 0 4.47-4.47V311.5a4.47 4.47 0 0 0-4.47-4.5Z"/><path fill="#e6b47c" d="M460.44 411.51a10.78 10.78 0 0 0 3.77.71h1.46a4.47 4.47 0 0 0 4.47-4.47V311.5a4.47 4.47 0 0 0-4.47-4.47h-1.46a10.22 10.22 0 0 0-3.77.75Z"/><path fill="#fff" d="M451.63 395.78c0 .21.1.43.15.65a13.87 13.87 0 0 0 2.44 4.87 15 15 0 0 0 4.75 4.06 15.75 15.75 0 0 0 9.72 2.18h.15v-4.08a27.07 27.07 0 0 1-3.36-.19 18.59 18.59 0 0 1-4.88-1.27c-4.35-1.82-7.73-6.55-8.94-11 0 0-.28 1.91-.27 2.63a11.35 11.35 0 0 0 .24 2.15Z"/><path fill="#292739" d="M465.76 413.49h-1.45c-9.51 0-17.66-12.3-17.66-22.37v-62.05c0-9.17 7.58-23.3 17.66-23.3h1.45a5.74 5.74 0 0 1 5.74 5.73v96.25a5.75 5.75 0 0 1-5.74 5.74Zm-1.45-105.19c-8.35 0-15.12 12.57-15.12 20.77v62.05c0 8.74 7.12 19.83 15.12 19.83h1.45a3.2 3.2 0 0 0 3.2-3.2V311.5a3.2 3.2 0 0 0-3.2-3.2Z"/><path fill="#292739" stroke="#292739" stroke-linecap="round" stroke-linejoin="round" stroke-width="2.92" d="M787.42 365.87h0a1.65 1.65 0 0 1-1.65-1.65v-8.79a1.65 1.65 0 0 1 1.65-1.65h0a6 6 0 0 1 6.05 6h0a6.05 6.05 0 0 1-6.05 6.09Z"/><path fill="#79a2e4" stroke="#292739" stroke-linecap="round" stroke-linejoin="round" stroke-width="2.92" d="M782 336.79h0v46.07h0a5.45 5.45 0 0 0 5.45-5.46v-35.15a5.45 5.45 0 0 0-5.45-5.46Z"/><path fill="#fff" d="M785.6 375.08c0 .16-.07.32-.12.48a10.22 10.22 0 0 1-1.79 3.6 11.38 11.38 0 0 1-.86 1v-3.43a14 14 0 0 0 2.75-5.17s.2 1.41.19 1.94a7.76 7.76 0 0 1-.17 1.58Z"/><path fill="#fff5b0" d="M770.26 321h1.07c6.68 0 12.1 9.58 12.1 16.26v45.8c0 6.68-5.42 15.57-12.1 15.57h-1.07a3.3 3.3 0 0 1-3.3-3.3v-71a3.3 3.3 0 0 1 3.3-3.33Z"/><path fill="#fff5b0" d="M774.18 398.12a8 8 0 0 1-2.78.52h-1.07a3.3 3.3 0 0 1-3.3-3.3v-71a3.3 3.3 0 0 1 3.3-3.3h1.07a7.38 7.38 0 0 1 2.78.56Z"/><path fill="#fff5b0" d="M780.69 386.5a4.21 4.21 0 0 1-.12.48 10.22 10.22 0 0 1-1.79 3.6 11.17 11.17 0 0 1-3.51 3 11.6 11.6 0 0 1-7.17 1.61h-.1v-3a21 21 0 0 0 2.48-.14 14 14 0 0 0 3.61-.93c3.21-1.34 5.7-4.83 6.6-8.13 0 0 .2 1.41.2 2a8.51 8.51 0 0 1-.2 1.51Z"/><path fill="#fff5b0" d="M771.33 399.91h-1.07a4.58 4.58 0 0 1-4.57-4.57v-71a4.58 4.58 0 0 1 4.57-4.57h1.07c7.75 0 13.36 10.47 13.36 17.53v45.8c0 7.55-6.16 16.81-13.36 16.81Zm-1.07-77.63a2 2 0 0 0-2 2v71a2 2 0 0 0 2 2h1.07c5.73 0 10.83-8 10.83-14.3v-45.8c0-5.92-4.85-15-10.83-15Z"/><path fill="#85c4cb" d="M752.55 307.23H754c9 0 16.38 13 16.38 22v62.05c0 9.05-7.33 21.1-16.38 21.1h-1.46a4.47 4.47 0 0 1-4.47-4.47V311.7a4.47 4.47 0 0 1 4.48-4.47Z"/><path fill="#e6b47c" d="M757.87 411.71a10.78 10.78 0 0 1-3.77.71h-1.45a4.47 4.47 0 0 1-4.47-4.47V311.7a4.47 4.47 0 0 1 4.47-4.47h1.45a10.18 10.18 0 0 1 3.77.75Z"/><path fill="#fff" d="M766.69 396c-.05.22-.1.44-.16.66a14 14 0 0 1-2.43 4.87 15 15 0 0 1-4.76 4.06 15.79 15.79 0 0 1-9.71 2.18h-.16v-4.08a25.15 25.15 0 0 0 3.36-.18 19 19 0 0 0 4.88-1.26c4.35-1.82 7.73-6.55 8.95-11 0 0 .28 1.92.27 2.64a13 13 0 0 1-.24 2.11Z"/><path fill="#292739" d="M754 413.69h-1.46a5.75 5.75 0 0 1-5.74-5.74V311.7a5.75 5.75 0 0 1 5.74-5.74H754c10.07 0 17.65 14.14 17.65 23.31v62.05c.01 10.07-8.13 22.37-17.65 22.37Zm-1.45-105.19a3.21 3.21 0 0 0-3.2 3.2V408a3.21 3.21 0 0 0 3.2 3.2H754c8 0 15.12-11.09 15.12-19.83v-62.1c0-8.2-6.78-20.77-15.12-20.77ZM601.29 740.13h-.14a1.26 1.26 0 0 1-1.12-1.4c.56-5 4.34-12.17 8.27-15.77a1.31 1.31 0 0 1 1-.32 1.29 1.29 0 0 1 .9.6 30.65 30.65 0 0 1 4.62 14.76 1.25 1.25 0 0 1-1.23 1.29 1.25 1.25 0 0 1-1.26-1.23 27.48 27.48 0 0 0-3.4-12.07c-3.08 3.45-5.9 9.14-6.34 13a1.27 1.27 0 0 1-1.3 1.14ZM604.9 781.66a1.27 1.27 0 0 1-.23-2.51c.54-.1 2.87-.88 4.75-1.51 2.72-.91 4.42-1.47 5.09-1.6a1.27 1.27 0 0 1 .45 2.5c-.53.1-2.86.88-4.74 1.5-2.73.92-4.43 1.48-5.09 1.6a.93.93 0 0 1-.23.02ZM607.22 791.61a1.27 1.27 0 0 1-.23-2.52c.54-.1 2.84-.87 4.7-1.49 2.69-.91 4.38-1.46 5-1.58a1.27 1.27 0 1 1 .45 2.49c-.53.1-2.84.87-4.7 1.49-2.69.91-4.38 1.46-5 1.58a.91.91 0 0 1-.22.03Z"/><path fill="#79a2e4" d="m625.92 310.28-79.7-22.29-17.85 11.67 97.55 10.62z"/><rect width="160.97" height="57.39" x="547.23" y="261.85" fill="#5275c2" rx="2.84"/><path fill="#fd9572" d="M708.76 327.06H559.35a1.27 1.27 0 0 1 0-2.54h149.41a4.51 4.51 0 0 0 4.51-4.51v-45.83a1.27 1.27 0 0 1 2.54 0V320a7.06 7.06 0 0 1-7.05 7.06Z"/><path fill="#d8e5ee" d="M576.76 273.38h101.9v3.13h-101.9zM567.83 285.4H687.6v3.13H567.83zM567.83 291.75H687.6v3.13H567.83zM567.83 298.11H687.6v3.13H567.83zM567.83 304.47H687.6v3.13H567.83z"/><path fill="#79a2e4" d="m596.2 396.1 79.71-22.3 17.85 11.68-97.56 10.62z"/><rect width="160.97" height="57.39" x="513.93" y="347.67" fill="#79a2e4" rx="2.84" transform="rotate(180 594.41 376.36)"/><path fill="#fd9572" d="M662.78 412.88H513.37a7.06 7.06 0 0 1-7.05-7.05V360a1.27 1.27 0 0 1 2.54 0v45.83a4.51 4.51 0 0 0 4.51 4.51h149.41a1.27 1.27 0 0 1 0 2.54Z"/><path fill="#d8e5ee" d="M534.53 359.2h110.84v3.13H534.53zM534.53 371.21H654.3v3.13H534.53zM534.53 377.57H654.3v3.13H534.53zM547.23 383.93H654.3v3.13H547.23zM534.53 390.28H654.3v3.13H534.53z"/><path fill="#79a2e4" d="m625.92 484.77-79.7-22.29-17.85 11.67 97.55 10.62z"/><rect width="160.97" height="57.39" x="547.23" y="436.34" fill="#5275c2" rx="2.84"/><path fill="#fd9572" d="M708.76 501.55H559.35a1.27 1.27 0 1 1 0-2.54h149.41a4.51 4.51 0 0 0 4.51-4.51v-45.83a1.27 1.27 0 1 1 2.54 0v45.83a7.06 7.06 0 0 1-7.05 7.05Z"/><path fill="#d8e5ee" d="M582.08 459.89H687.6v3.13H582.08zM567.83 466.24H687.6v3.13H567.83zM567.83 472.6h90.56v3.13h-90.56zM567.83 478.96H687.6v3.13H567.83zM567.83 449.87H687.6V453H567.83z"/><path fill="#79a2e4" d="m596.2 570.59 79.71-22.3 17.85 11.67-97.56 10.63z"/><rect width="160.97" height="57.39" x="513.93" y="522.16" fill="#79a2e4" rx="2.84" transform="rotate(180 594.41 550.85)"/><path fill="#fd9572" d="M662.78 587.36H513.37a7.05 7.05 0 0 1-7.05-7v-45.87a1.27 1.27 0 0 1 2.54 0v45.83a4.52 4.52 0 0 0 4.51 4.51h149.41a1.27 1.27 0 1 1 0 2.53Z"/><path fill="#d8e5ee" d="M543.46 539.17h101.9v3.13h-101.9zM534.53 545.7H654.3v3.13H534.53zM534.53 552.06H654.3v3.13H534.53zM534.53 558.41h102.42v3.13H534.53z"/><path fill="#79a2e4" d="M742.12 792a9.27 9.27 0 1 1-9.26-9.27 9.27 9.27 0 0 1 9.26 9.27Z"/><circle cx="825.03" cy="261.4" r="24.09" fill="#79a2e4" transform="rotate(-86.43 825.027 261.401)"/><path fill="#d8e5ee" d="M835.34 247a24.09 24.09 0 1 0 15.79 30.19A24.1 24.1 0 0 0 835.34 247Z"/><path fill="#fff" d="m820.49 262.73-4.11 2.75 1.19 4.8-.97 4.85 4.24 2.55 2.75 4.12 4.8-1.2 4.85.97 2.55-4.24 4.11-2.75-1.19-4.8.97-4.85-4.24-2.55-2.75-4.11-4.8 1.19-4.85-.97-2.55 4.24z"/><path fill="#292739" d="M823.59 283.06a1.27 1.27 0 0 1-1.06-.56l-2.59-3.88-4-2.4a1.26 1.26 0 0 1-.59-1.34l.91-4.57-1.13-4.52a1.29 1.29 0 0 1 .53-1.36l3.88-2.6 2.4-4a1.29 1.29 0 0 1 1.34-.59l4.57.91 4.52-1.12a1.26 1.26 0 0 1 1.37.52l2.59 3.88 4 2.4a1.26 1.26 0 0 1 .59 1.34l-.91 4.57 1.13 4.53a1.29 1.29 0 0 1-.53 1.36l-3.88 2.59-2.4 4a1.27 1.27 0 0 1-1.34.59l-4.57-.91-4.53 1.1a1.53 1.53 0 0 1-.3.06ZM818 274.5l3.47 2.1a1.24 1.24 0 0 1 .41.38l2.25 3.37 3.93-1a1.32 1.32 0 0 1 .56 0l4 .79 2.09-3.47a1.38 1.38 0 0 1 .39-.41l3.37-2.25-1-3.93a1.18 1.18 0 0 1 0-.56l.79-4-3.48-2.09a1.35 1.35 0 0 1-.4-.39l-2.25-3.37-3.93 1a1.18 1.18 0 0 1-.56 0l-4-.79-2.09 3.48a1.35 1.35 0 0 1-.39.4l-3.34 2.24 1 3.93a1.32 1.32 0 0 1 0 .56Zm2.47-11.77Z"/><path fill="#292739" d="M868 482.21a1.25 1.25 0 0 1-.42-.08 1.26 1.26 0 0 1-.77-1.62c12-33.33 14.33-78.09 6.49-122.82-6.78-38.67-20.51-71.66-34.16-82.1a1.27 1.27 0 0 1 1.54-2c14.34 11 28.12 43.81 35.12 83.68 7.91 45.15 5.51 90.39-6.6 124.12a1.28 1.28 0 0 1-1.2.82Z"/><path fill="#292739" d="M871.13 400.64a1.27 1.27 0 0 1-1.26-1.25c-.47-30.93-8.78-65.09-24.71-101.53a1.27 1.27 0 1 1 2.32-1c16.07 36.75 24.45 71.24 24.92 102.51a1.27 1.27 0 0 1-1.25 1.29Z"/><path fill="#734339" d="M874.33 733.61c5.39 5.18 8.48 11.55 8.22 18.44-.6 16.55-20.74 29.83-44.8 29.57s-43.38-13.75-43.38-30.35c0-6.59 3-12.68 8.23-17.66l.24-.22.56-.52c3.24-3 15.38-14.64 17.14-21.17l.06-.22c1.49-5.67 8.62-9.79 17-9.79h1.8c8.36 0 15.49 4.12 17 9.79a1.74 1.74 0 0 0 0 .22c1.76 6.53 13.91 18.16 17.14 21.17l.57.52Z"/><path fill="#eaeefa" stroke="#292739" stroke-linecap="round" stroke-linejoin="round" stroke-width="2.92" d="M810.49 704c0 5.63 12.12 10.2 27.06 10.2s27.07-4.57 27.07-10.2-12.12-10.21-27.07-10.21-27.06 4.57-27.06 10.21Z"/><path fill="#85c4cb" d="M876.47 579.22c-1.78-3.15-3.6-6.27-5.39-9.37a156.08 156.08 0 0 1-9.88-20.39c-1.64-4.16-6.1-19.1-6.1-19.1-11.69 26.59-20.18 52.82-11.49 80 1.24 12.61 12.95 23 16.32 35.09 3.29 11.86.51 25-8.49 35.71-5.25 6.23-12.64 12.21-13 19.41 22.08-7.21 39.19-22.39 47.64-39.36s8.76-35.54 3.74-52.72c-2.92-10.04-7.98-19.78-13.35-29.27Z"/><path fill="#fff" d="M863.85 680.28a1.24 1.24 0 0 1-.88-.36 1.27 1.27 0 0 1 0-1.79c21.87-22.4 13.12-47.5 3-76.55-6.25-18-12.72-36.51-13.29-57a1.27 1.27 0 1 1 2.53-.07c.56 20.12 7 38.5 13.16 56.26 5.11 14.67 9.94 28.52 10.66 41.64.81 14.82-3.71 26.74-14.23 37.52a1.25 1.25 0 0 1-.95.35Z"/><path fill="#fff" stroke="#292739" stroke-linecap="round" stroke-linejoin="round" stroke-width="2.92" d="M829.94 581.37c-9.74-25.87-13.4-52.14-5-79.72a1.43 1.43 0 0 0-2.53-1.24c-23.52 33.94-30.57 73.76-19.1 109.68.78 7.89 6.81 14.42 10.71 21.49a156.64 156.64 0 0 1 11 24.85 148.55 148.55 0 0 1 7.54 35.8c.31 3.67-1.81 13.09 1.35 15.91 4.43 4 9.34-.53 10.8-4.4 13.09-34.53 11-67.63-5-100a240.7 240.7 0 0 1-9.77-22.37Z"/><path fill="#292739" d="M840.86 702.19h-.11a1.27 1.27 0 0 1-1.15-1.38c3-33.11-5.41-61.26-13.5-88.49-6.42-21.56-13.05-43.86-13.72-68.06a1.27 1.27 0 0 1 2.53-.07c.67 23.87 7 45 13.62 67.41 8.16 27.45 16.61 55.84 13.6 89.44a1.28 1.28 0 0 1-1.27 1.15Z"/><path fill="#fff" stroke="#292739" stroke-linecap="round" stroke-linejoin="round" stroke-width="2.92" d="M784.27 599.23c-24.06-14.72-54.95-23.37-74.63-41.41-.73 27.56 14.2 54.48 40.27 72.64 16.68 11.62 37.5 19.7 52.94 32.26a72 72 0 0 1 22.23 30c1 2.71 1.18 12.46 7.13 8.31 3.41-2.37 2.5-12.08 2.63-15.29.89-21.38-6.49-42.55-20.71-60.39a114.38 114.38 0 0 0-29.86-26.12Z"/><path fill="#292739" d="M828.05 683.9a1.26 1.26 0 0 1-1.24-1c-7.34-35.5-30.32-50.87-56.92-68.66-16.09-10.76-32.73-21.89-47.92-38.66a1.27 1.27 0 1 1 1.88-1.7c15 16.54 31.49 27.58 47.45 38.25 13.3 8.9 25.86 17.3 36.08 28 11.49 12.09 18.46 25.5 21.91 42.21a1.26 1.26 0 0 1-1 1.49Z"/><path fill="#eaeefa" stroke="#292739" stroke-linecap="round" stroke-linejoin="round" stroke-width="2.92" d="M810.49 704c0 5.63 12.12 10.2 27.06 10.2s27.07-4.57 27.07-10.2c0-2.75-2.87-5.24-7.54-7.07 2.45 6.37-41.8 6.37-38-.38-5.3 1.87-8.59 4.51-8.59 7.45Z"/><path fill="#292739" stroke="#292739" stroke-linecap="round" stroke-linejoin="round" stroke-width="2.92" d="M475.25 459.14 439 503.53a2.36 2.36 0 0 0-.05 2.9l14.34 19a2.35 2.35 0 0 0 3.7.07l35.51-43.73a2.36 2.36 0 0 0 .11-2.82L479 459.29a2.35 2.35 0 0 0-3.75-.15Z"/><path fill="#eaeefa" stroke="#292739" stroke-linecap="round" stroke-linejoin="round" stroke-width="2.92" d="m473.13 456.3-36.26 44.39a2.36 2.36 0 0 0-.06 2.9l14.35 19a2.34 2.34 0 0 0 3.69.07L490.37 479a2.34 2.34 0 0 0 .1-2.81l-13.59-19.7a2.35 2.35 0 0 0-3.75-.19Z"/><path fill="#a3a3a3" d="M245.77 697.54h21.39v107.03h-21.39z"/><path fill="#8a8a8a" d="M296.09 724.8a17.08 17.08 0 0 1-14 7.34h-51.22a17.1 17.1 0 0 1-14-7.34l-19.12-27.54h117.5Z"/><path fill="gray" d="M274.28 697.26h-76.57l17.14 24.68c36.62.25 88.25-7.24 88.25-7.24.18-3.01-11.95-10.26-28.82-17.44Z"/><path fill="#8a8a8a" d="M246.65 769.79h19.62a7.25 7.25 0 0 1 7.25 7.25v45a6.14 6.14 0 0 1-6.14 6.14h-21.85a6.14 6.14 0 0 1-6.13-6.18v-45a7.25 7.25 0 0 1 7.25-7.21Z"/><path fill="#8a8a8a" d="M172.16 864.3a6.45 6.45 0 0 1-5.52-9.79l20.42-23.41a28.39 28.39 0 0 1 13.8-11.69l42.53-19.48c3.32-1.31 7.07 3 8.38 6.3s-.31 12.4-3.63 13.71l-42.53 11.49a15.28 15.28 0 0 0-7.49 6.34l-20.42 23.41a6.45 6.45 0 0 1-5.54 3.12Z"/><circle cx="164.9" cy="864.3" r="12.4" fill="#7a7a7a" transform="rotate(-76.72 164.878 864.286)"/><circle cx="163.87" cy="864.3" r="7.75" fill="#8a8a8a" transform="rotate(-45 163.867 864.304)"/><path fill="#8a8a8a" d="M340.76 864.3a6.45 6.45 0 0 0 5.52-9.79l-20.41-23.41a28.45 28.45 0 0 0-13.81-11.69l-42.53-19.48c-3.31-1.31-7.07 3-8.38 6.3s.32 12.4 3.63 13.71l42.53 11.49a15.28 15.28 0 0 1 7.49 6.34l20.42 23.41a6.45 6.45 0 0 0 5.54 3.12Z"/><circle cx="348.02" cy="864.3" r="12.4" fill="#7a7a7a" transform="rotate(-13.28 348.105 864.475)"/><circle cx="349.05" cy="864.3" r="7.75" fill="#8a8a8a" transform="rotate(-45 349.057 864.306)"/><path fill="#8a8a8a" d="M256.46 864.09a6.46 6.46 0 0 1-6.46-6.45l-2.42-49.24c0-3.57 5.32-6.46 8.88-6.46s8.88 2.89 8.88 6.46l-2.42 49.24a6.46 6.46 0 0 1-6.46 6.45Z"/><circle cx="256.46" cy="864.3" r="12.4" fill="#7a7a7a" transform="rotate(-45 256.456 864.303)"/><circle cx="255.43" cy="864.3" r="7.75" fill="#8a8a8a" transform="rotate(-76.72 255.4 864.284)"/><path fill="#c49a68" d="M209.42 635.86s-32.27 8.07-39.75 21-20.78 45.53 12.11 51.66 51.47 6 72 7c46.26 2.21 105.34 5.09 107-20.61 1.13-17.94-24.13-21.77-53.63-22.65s-97.73-36.4-97.73-36.4Z"/><path fill="#b89062" d="M198.28 646.11c-.33 7.24-20.24 21 22.27 32.43s99.12 8.75 116.86 6.13 12.65-34-45.11-42.62-94.02 4.06-94.02 4.06Z"/><path fill="#d6a871" d="M312.88 694.92s34.06-8.63 39.28 0-26.59 16-63.07 15.47-109.82-7.81-117.28-15.47 13-13.66 51.73-8 69.97 11.42 89.34 8Z"/><path fill="#ffb888" d="M366.86 802.89s1.32 22.76-6.05 37.18 38.87 10.26 38.87 10.26-3.56-24.31 0-49.81-32.82 2.37-32.82 2.37Z"/><path fill="#536b70" d="M357.83 842.19S353.26 854.5 355 863s16.18 9.93 22.65 8.56 10.07-6.27 15.92-4.88 18.52 7.58 28.68 6.94 23.86-4.66 27.24-10.76-7.49-9.25-13.84-11.12c-14.34-4.23-22.49-9.05-35.73-23.11-2-2.14-9.29 10.44-22.48 10.44-2.76-.07-14.57-8.47-19.61 3.12Z"/><path fill="#8abac7" d="M393.58 866.64c5.85 1.4 18.52 7.58 28.68 6.94s23.86-4.66 27.24-10.76c1.37-2.47.4-4.45-1.65-6.07-.11 5.67-8.92 7.7-21.53 9.58s-27.85-2.85-35.58-4.87-13.65 3.19-21.59.67c-5.78-1.84-11.72-3.16-14.53-3.74A21.26 21.26 0 0 0 355 863c1.75 8.46 16.18 9.93 22.65 8.56s10.08-6.31 15.93-4.92Z"/><path fill="#8abac7" d="M380.73 840.94s15.47 8 22 10.22 16.5 7.22 23.4 6.17a20.6 20.6 0 0 0 7.48-2.5c1.34-.81 1.27-1.2.18-.85-3 1-9.08 3.14-15.33 1.42-6.47-1.79-20.13-7.59-36.42-15-2.71-1.22-1.31.54-1.31.54Z"/><path fill="#523028" d="M281.42 575c9 4.16 55.32 17.41 77.6 26.33s65.48 32.86 67.55 46.23-22.37 166.52-22.37 166.52-30.64 3.35-44-3.89c0 0 7.28-131.69 9.94-137.92 3.48-8.2-18.08-46.49-51.57-60.59C231.46 575 281.42 575 281.42 575Z"/><path fill="#ffb888" d="M442.42 818.5s17.4 13 24.86 40.23c2.88 10.48 40.2-16.63 40.2-16.63s-12.65-2.68-19.78-14.54c-4.52-7.54-8.4-21.2-12.75-32.95-11.2-30.24-32.53 23.89-32.53 23.89Z"/><path fill="#536b70" d="M462.24 848.86s-4 12.51-1.85 20.88 16.62 9.17 23 7.5 9.77-6.73 15.68-5.6 18.84 6.71 29 5.6 23.63-5.75 26.72-12-7.91-8.89-14.34-10.47c-14.52-3.56-31.66-17.57-50.1-26-2.68-1.22-6.71 17.83-9.24 19s-14.37-10.77-18.87 1.09Z"/><path fill="#8abac7" d="M499.09 871.64c5.9 1.12 18.84 6.71 29 5.6s23.63-5.75 26.72-12c1.25-2.53.2-4.46-1.93-6 .15 5.66-8.56 8.1-21.06 10.56s-27.95-1.56-35.77-3.22-13.49 3.81-21.54 1.66c-5.86-1.56-11.85-2.61-14.69-3.06a21.53 21.53 0 0 0 .61 4.55c2.14 8.36 16.62 9.17 23 7.5s9.75-6.72 15.66-5.59Z"/><path fill="#8abac7" d="M485.06 846.56s15.82 7.23 22.47 9.18 16.82 6.45 23.66 5.08a20.3 20.3 0 0 0 7.36-2.84c1.29-.87 1.21-1.25.14-.85-3 1.12-8.93 3.56-15.25 2.12-6.55-1.49-20.46-6.65-37.07-13.28-2.79-1.11-1.31.59-1.31.59Z"/><path fill="#734339" d="M181.4 578s-2.14 26.09 0 41.13 17.07 52.58 64.37 55.92 55.32-.33 84.28 3 42.65 8.16 44.88 12.06 8.6 22.59 21.41 47.66S438 818 440.28 821.89s37.39-6.68 44.63-20c0 0-36.44-111-61.14-158.84-9.07-17.58-153.88-65-153.88-65s-66.68 16.2-88.49-.05Z"/><path fill="#633a30" d="M448.81 822c-12.27-26.16-34.35-72.9-41.22-85.21-9.69-17.35-23.81-52.47-18.16-60.37s-7.67 1-6.05-5-13.25.89-40.17 0-68-2.83-89.39-4.44-40.84-22.6-46.42-44.8c-5.24-20.84-3.23-20.18 24.11-25.83 20.66-4.27 34.08-13.64 39.41-18l-1-.34s-66.68 16.25-88.49 0c0 0-2.14 26.09 0 41.13s17.07 52.58 64.37 55.92 55.32-.33 84.28 3 42.65 8.16 44.88 12.06 8.6 22.59 21.41 47.66S438 818 440.28 821.89c.65 1.11 3.96 1.05 8.53.11Z"/><path fill="#633a30" d="M464.44 808.24a1.2 1.2 0 0 1-1.09-.69c-25.72-53.42-65.69-134-70.38-137-2-1-3.34-2-3.39-3.33s1.16-2.07 2.33-2.79a10.5 10.5 0 0 0 2.1-1.54l-1.38.25a46.82 46.82 0 0 1-9.25 1.06c-10.87 0-74.1-12.86-95.53-17.91-17.13-4-46.07-17.43-46.85-22.8a2 2 0 0 1 1-2 21.1 21.1 0 0 0 3.69-2.41 25.81 25.81 0 0 0-3-1.25c-1.09-.4-2.33-.86-3.73-1.44-8.24-3.41-11-27.75-11.24-30.51a1.21 1.21 0 0 1 2.41-.25c.73 7.11 3.9 26.1 9.75 28.52 1.37.57 2.58 1 3.65 1.41 3 1.11 4.66 1.73 4.79 3.28s-1.31 2.59-4.78 4.58c2 3.58 25.73 16 44.89 20.53 20.74 4.89 84.47 17.84 95 17.84a45.63 45.63 0 0 0 8.79-1c2.66-.51 4-.77 4.71.31s-.08 2.1-.39 2.58a10.12 10.12 0 0 1-3.31 2.84c-.35.21-.78.48-1 .68a9.76 9.76 0 0 0 2 1.23c1.16.6 4.25 2.2 38.32 70.51 16.75 33.6 32.95 67.24 33.11 67.57a1.21 1.21 0 0 1-.56 1.62 1.24 1.24 0 0 1-.66.11Z"/><path fill="#452721" d="M190.78 646.34a1.19 1.19 0 0 1-.73-.25 1.21 1.21 0 0 1-.24-1.69c.12-.15 11.54-15.49 11.54-22.66 0-7.47-4.78-32.62-4.83-32.87a1.21 1.21 0 0 1 2.38-.46c.2 1.05 4.87 25.63 4.87 33.33 0 8-11.53 23.46-12 24.11a1.21 1.21 0 0 1-.99.49Z"/><path fill="#f7a57f" d="M305.51 393.05a15.19 15.19 0 0 0-6.37-9.42c-5.65-4-11.13-7.62-10.28-15.34s-.61-11 1.47-15.07 11.05-9.14 15.18-10.22 11.93 6.19 16 12.65 5.92 1.77 5.65 12.32-2.35 19.43-2.12 25.08-19.53 0-19.53 0Z"/><path fill="#eb9a77" d="M313.91 351.72s6 1.62 2.73 7.81-5.11 11.57-10.76 12.64-1.26 4.84-7 0-3.26-7.26-1.36-11.3 16.39-9.15 16.39-9.15Z"/><path fill="#77afb5" d="M328.46 383.63s29.07 84.49 19.2 107.51c-6.34 14.79-22.38 32.46-37.34 10.23-9.44-14-7.82-45.95-7.15-74.15.4-16.5-1.13-37.56-1.13-37.56Z"/><path fill="#ffb888" d="M257.45 324.32s-7.81 20.14-14.8 28.48 28.93 30.2 28.93 30.2 11.19-24.21 19-35.31c7.01-10.06-13.49-37.31-33.13-23.37Z"/><path fill="#77afb5" d="M280.3 416.91c-3.34-19.63-6.88-37.8-6.88-37.8s-19.69-9.52-28.93-28.74c0 0-17.31 8.62-30.23 23.15a172.33 172.33 0 0 0-17.46 22.36c.49.21 80.86 20.51 83.5 21.03Z"/><path fill="#85c4cb" d="M269.89 582.92c8.07-8.07 16.19-6.75 19.2-18.9 4.4-17.76-3-86-3-102.92 0-10.16-4.55-37.61-8.21-58-5.57 2.22-12.22 4-18.85 3.6-15.07-.86-28.13-3.43-50.22-27-10.16 12-18.24 24.07-29.27 50.25-12.91 30.68-13.72 60.14-10.9 88.39s2.66 59.66 12.26 67.41c13.41 10.81 80.92 5.25 88.99-2.83Z"/><path fill="#74b2b8" d="M244.53 551.91s20.36 2.42 32.38 0l1.54 8.88s-25.85 3.23-33.92 0ZM238.39 505.17c10.74 16.42 42.37 36.83 42.37 36.83v-50l-56.41-72.8s9.52 79.07 14.04 85.97Z"/><path fill="#fff5b0" d="M278.43 376.75c2.08 5 10 12.91 20.55 44.39s6.5 123.91 6.9 134 5.25 6.86-7.26 16.14-13.78 21.44-21.42 9.51-9.2-25.28-5.2-64.41 7.62-100.08 2.37-117 4.06-22.63 4.06-22.63Z"/><path fill="#fe9" d="M278.7 536.63c1.49-30.76 5.4-123.53 4.05-134.2-1.07-8.53-5.59-18.46-7.45-22.29a15.77 15.77 0 0 0-1.37 2.79c2.07 4.48 5.53 12.77 6.42 19.8 1.25 9.94-2.36 98.52-4.07 133.79-.75 15.41 2.81 31.88 10.08 47.19.56-.56 1.15-1.21 1.77-1.93-6.82-14.7-10.13-30.43-9.43-45.15Z"/><path fill="#fe9" d="m298.71 571.21 2-1.46c-9.3-17.39-9.48-31.45-7.52-40.87 9-43.57.23-101.63-2.66-120.71-.35-2.35-.63-4.21-.77-5.34-1.05-8.29-8.2-20.53-11.55-25.9a11 11 0 0 0-1.79 1.72c3.36 5.44 10 17 10.93 24.48.15 1.17.43 3 .79 5.4 2.87 19 11.6 76.71 2.67 119.86-2.08 9.9-1.91 24.61 7.9 42.82Z"/><path fill="#fff5b0" d="M251.52 337.87s1.72 8.9 13 18.18 18.24 15.85 16.88 22.31-3.76 10.9-11.4 7.64-14.22-10.63-22.05-16.42-13.48-15.36-10.65-19.24 9.38-15.34 14.22-12.47Z"/><path fill="#ffb888" d="M402.48 495.68s27.34-6.77 33.26-6.23 12.21 6.5 16.51 9.19 14.8 9.68 13.46 12.91-6.09 0-6.09 0-1.18 4-3.33 4.31-11.17-7.92-11.17-7.92-8.48 3.74-13.86 4.75-23.87 3.17-23.87 3.17Z"/><path fill="#85c4cb" d="M219.51 411.05s1.61 31.89 28.65 75.48c24.69 39.79 39.16 44.39 43.8 44.8s23.56-24.55 15.94-40.77c-15.9-33.9-31.9-92.69-47.2-101.17s-40.38 2.29-41.19 21.66Z"/><path fill="#85c4cb" d="M303.67 481.13s20.05 6.26 38.61 6.5c33.11.43 70.15 4.55 70.15 4.55s8.07 20.58 4.44 25.83-106.45 23.85-126.68 12.93-4.19-59.1 13.48-49.81Z"/><path fill="#ffb888" d="M334.61 284.53s4 13.19 1.59 23.57-6 11.58-6.79 13.18c-.31.63-1.9 2.78-1.94 4.54a46.78 46.78 0 0 0 .61 11.24c1.5 8.26 1.11 12.61-3.86 11.78-2-.33-3.47-1-4.71-.13-.75.52-2.21 4.42-2.88 6.44-1.2 3.6-3.47 1.1-2.95 3.61.11.54-.84 1.78-2.91 2.45-3.83 1.23-6.46 8.9-12.15 8-5.1-.79-20.1-8.25-21.53-20.79-.86-7.55-18-51.52 6-63.91s51.52.02 51.52.02Z"/><path fill="#d4956c" d="M259.56 290.37s-3.46 15.07-3.46 20.19-3 19.91 1.73 22.06c8.58 3.94 10 3.35 13.75-3.92s2.55-10.69 8.47-14.95 13-4.81 2.72-14.23a36.47 36.47 0 0 0-23.21-9.15Z"/><path fill="#754c24" d="M332.72 290.58s1.64 1.61 4.25 0 2.95-12.92-10.34-19.78-31.65-12.11-44.16-8.07a31.4 31.4 0 0 0-20 18.56c-3.63 9.09-3.83 10.9-1 11.91s10.9.4 16.75 6.46 5.65 14.53 9.89 14.73 8.88-3.23 12.51-12.71 8.89-20.18 32.1-11.1Z"/><path fill="#754c24" d="M268.21 276.92s-7.53-8.34-23.14 0S223 303 233 309.75s20.22-.54 22.22-10 5.08-17.76 11.48-16.14 1.51-6.69 1.51-6.69Z"/><path fill="#ffb888" d="M289 316.81s2.79-6.56-2.18-10.48c-6.29-5-11.1 8.71-11.1 14s9.03 10.41 13.28-3.52Z"/><path fill="#754c24" d="M312.88 312.52s7.8-2.37 17 4.63c.67.54-.18 3.53-3.34 2.18s-3.24-2.15-6.57-3.31a43 43 0 0 0-5.81-1c-2.02-.47-3.1-2.02-1.28-2.5ZM322.09 324.58c-.85 1.95-2.83 3-4.4 2.28s-2.17-2.84-1.31-4.79 2.83-3 4.41-2.27 2.21 2.83 1.3 4.78Z"/><path fill="#f7a57f" d="M313.91 357.33a4.22 4.22 0 0 0-1.17-1.29c-1.52-1.2-4-2.71-4.14-2.2s.63 1.44 1.87 2.42a25.29 25.29 0 0 0 3.27 2.1Z"/><path fill="#c49a68" d="M196.91 618.1c.35-19.84-27.14-85.32-29.59-113.92-.84-9.86-4.17-26.79-8.08-33.85 16-13.83 27.93-61.37 21.21-80.94-7.58-22.05-33.59-12.64-33.59-12.64s-20.18 85.56-22.6 92a4.39 4.39 0 0 0-.26 2.36c-5.44 26.13-1.87 41.62 1.57 65.44 1.94 13.44 4.57 22.28 9.27 27.11-1.24 13.67 7.76 40.25 10.59 61.69 3.42 25.83 8.84 53.47 8.84 53.47 43.44-6.55 42.14-33.27 42.64-60.72Z"/><path fill="#b58c5c" d="M196.91 618.1c.35-19.84-27.14-85.32-29.59-113.92-.84-9.86-4.17-26.79-8.08-33.85 16-13.83 27.93-61.37 21.21-80.94-7.58-22.05-33.59-12.64-33.59-12.64s25 0 28.25 12.64-14 68.62-25.83 79.38S170 563 175.51 586.39c4.94 20.91 22.2 65.88-21.57 90.73.21 1.11.33 1.72.33 1.72 43.44-6.57 42.14-33.29 42.64-60.74Z"/><path fill="#e6b47c" d="M142 380a5.77 5.77 0 0 1 6.45-5.23c6.05.3 1.22 13.3-3.22 29.44s-17 69-19 73.86 1.53 37.94 8.43 70.63 26.81 121.73 26.81 128.69c0 10.19-9.55 4.49-13.45-10.43-2.15-8.21-11.09-72-18.57-104.13-4.61-19.89-14.93-68.75-11.3-87S142 380 142 380Z"/></g></svg>