<svg xmlns="http://www.w3.org/2000/svg" enable-background="new 0 0 5320 3547" viewBox="0 0 5320 3547"><path fill="#F7FCFF" d="M3731.49,3014.97c155.85-84.82,231.16-209.47,334.26-380.1c72.28-119.62,488.89-809.18,233.03-1175.33
				c-146.86-210.17-352.97-81.52-733.47-333.63c-356.26-236.04-294.08-427.33-592.12-622.68
				c-383.07-251.08-1000.31-272.35-1314.13,7.64c-169.13,150.89-90.05,246.47-370.55,825.15
				c-214.93,443.4-285.82,437.77-328.53,657.07c-79.29,407.09,71.45,906.85,366.73,1023.8c94.06,37.26,155.26,16.84,339.99-7.64
				c442-58.58,796.41-35.11,1153.69-11.46C3376.15,3034.57,3506.88,3137.21,3731.49,3014.97z"/><ellipse cx="2560.32" cy="3134.72" fill="#E0E0E0" rx="1513.08" ry="104.43"/><circle cx="2790.63" cy="2771.66" r="217.7" fill="#EDF7F7"/><circle cx="1258.52" cy="2254.96" r="179.35" fill="#EDF7F7"/><ellipse cx="2559.64" cy="3021.52" fill="#E0E0E0" rx="1316.39" ry="134.84"/><polygon fill="#BD3553" points="1837.46 2858.21 1769.88 2929.83 2380.44 2929.83 2317.61 2858.21"/><path fill="#CF3C59" d="M2796.72,2701.09H1400.63c-47.93,0-86.79-38.86-86.79-86.79v-888.68c0-47.93,38.86-86.79,86.79-86.79
					h1396.09c47.93,0,86.79,38.86,86.79,86.79v888.68C2883.51,2662.24,2844.65,2701.09,2796.72,2701.09z"/><polygon fill="#EB4265" points="1837.46 2835.39 1769.88 2907.01 2380.44 2907.01 2317.61 2835.39"/><polygon fill="#CF3C59" points="2288.89 2842.6 2273.54 2858.21 1885.28 2858.21 1899.5 2670.89 2287.18 2670.89"/><polygon fill="#F54769" points="2273.54 2858.21 1864.73 2858.21 1882.91 2666.15 2270.58 2666.15"/><path fill="#F54769" d="M2764.32,2673.46H1368.22c-47.93,0-86.79-38.86-86.79-86.79V1698c0-47.93,38.86-86.79,86.79-86.79
					h1396.09c47.93,0,86.79,38.86,86.79,86.79v888.68C2851.1,2634.61,2812.25,2673.46,2764.32,2673.46z"/><path fill="#F3FFED" d="M2707.16,2502.74H1425.38c-38.86,0-70.36-31.5-70.36-70.36v-663.25c0-47.93,38.86-86.79,86.79-86.79
					h1248.94c47.93,0,86.79,38.86,86.79,86.79v663.25C2777.53,2471.24,2746.02,2502.74,2707.16,2502.74z"/><circle cx="2066.27" cy="2582.57" r="58.49" fill="#C40858"/><circle cx="2066.27" cy="2582.57" r="39.51" fill="#DB405E"/><path fill="#BD3553" d="M1769.88,2907.01v22.81c0,0,24.32-24.13,22.92-23.47C1791.41,2907.01,1769.88,2907.01,1769.88,2907.01z"/><polygon fill="#BD3553" points="2380.44 2907.01 2380.44 2929.83 2360.43 2907.01"/><path fill="#015C1A" d="M3878.53,2975.62h-908.37v-208.83h908.37c20.15,0,36.48,16.33,36.48,36.48v135.87
					C3915.02,2959.29,3898.68,2975.62,3878.53,2975.62z"/><path fill="#015216" d="M3841.61,2962.89h-871.44v-183.37h871.44c20.15,0,36.48,16.33,36.48,36.48v110.4
					C3878.09,2946.55,3861.75,2962.89,3841.61,2962.89z"/><path fill="#F0FFF3" d="M3844.39,2846.46v49.5c0,7.59-1.78,14.76-4.93,21.12c0,0.02-0.02,0.02-0.02,0.04
					c-7.78,15.63-23.93,26.36-42.55,26.36h-826.73v-144.54h826.73C3823.12,2798.94,3844.39,2820.21,3844.39,2846.46z"/><path fill="#E9F7EB" d="M3839.47,2917.06c-7.78,15.65-23.93,26.4-42.57,26.4h-826.73v-129.05l0.74,4.81
					c9.27,60.63,61.42,105.41,122.75,105.41h720.08C3823.22,2924.63,3832.06,2921.86,3839.47,2917.06z"/><polygon fill="#C8D4C9" points="2970.17 2821.4 3740.56 2825.36 2970.17 2829.32"/><path fill="#C8D4C9" d="M3005.82,2853.38c35.65-1.64,71.31-2.5,106.96-3.08c17.83-0.36,35.65-0.45,53.48-0.66l53.48-0.22
					l53.48,0.21c17.83,0.22,35.65,0.29,53.48,0.66c35.65,0.58,71.31,1.44,106.96,3.09c-35.65,1.65-71.31,2.51-106.96,3.09
					c-17.83,0.37-35.65,0.44-53.48,0.66l-53.48,0.21l-53.48-0.22c-17.83-0.21-35.65-0.3-53.48-0.66
					C3077.13,2855.87,3041.47,2855.02,3005.82,2853.38z"/><path fill="#C8D4C9" d="M3105.14,2886.49c11.67-1.64,23.35-2.5,35.02-3.08c11.67-0.63,23.35-0.87,35.02-0.88
					c11.67,0,23.35,0.24,35.02,0.87c11.67,0.58,23.35,1.44,35.02,3.09c-11.67,1.65-23.35,2.51-35.02,3.09
					c-11.67,0.63-23.35,0.86-35.02,0.87c-11.67-0.02-23.35-0.25-35.02-0.88C3128.49,2888.98,3116.82,2888.12,3105.14,2886.49z"/><path fill="#C8D4C9" d="M3426.04,2886.49c19.84-1.64,39.69-2.5,59.53-3.08c9.92-0.37,19.84-0.45,29.77-0.66l29.77-0.22
					l29.77,0.21c9.92,0.22,19.84,0.29,29.77,0.66c19.84,0.58,39.69,1.44,59.53,3.09c-19.84,1.65-39.69,2.51-59.53,3.09
					c-9.92,0.37-19.84,0.44-29.77,0.66l-29.77,0.21l-29.77-0.22c-9.92-0.21-19.84-0.3-29.77-0.66
					C3465.72,2888.98,3445.88,2888.12,3426.04,2886.49z"/><path fill="#C8D4C9" d="M3203.19,2922.14c24.83-1.64,49.66-2.5,74.49-3.08c12.42-0.37,24.83-0.45,37.25-0.66l37.25-0.22
					l37.25,0.21c12.42,0.22,24.83,0.29,37.25,0.66c24.83,0.58,49.66,1.44,74.49,3.09c-24.83,1.65-49.66,2.51-74.49,3.09
					c-12.42,0.37-24.83,0.44-37.25,0.66l-37.25,0.21l-37.25-0.22c-12.42-0.21-24.83-0.3-37.25-0.66
					C3252.86,2924.64,3228.03,2923.78,3203.19,2922.14z"/><path fill="#C8D4C9" d="M2970.17,2922.14c7.22-1.64,14.43-2.49,21.65-3.1c7.22-0.58,14.43-0.85,21.65-0.86
					c7.22-0.01,14.43,0.26,21.65,0.85c7.22,0.61,14.43,1.47,21.65,3.12c-7.22,1.65-14.43,2.5-21.65,3.12
					c-7.22,0.58-14.43,0.85-21.65,0.85c-7.22,0-14.43-0.28-21.65-0.86C2984.6,2924.63,2977.38,2923.78,2970.17,2922.14z"/><path fill="#C8D4C9" d="M3637.42,2853.38c14.33-1.64,28.65-2.5,42.98-3.08c7.16-0.36,14.33-0.45,21.49-0.66l21.49-0.22
					l21.49,0.21c7.16,0.22,14.33,0.29,21.49,0.66c14.33,0.58,28.65,1.44,42.98,3.09c-14.33,1.65-28.65,2.51-42.98,3.09
					c-7.16,0.37-14.33,0.44-21.49,0.66l-21.49,0.21l-21.49-0.22c-7.16-0.21-14.33-0.3-21.49-0.66
					C3666.07,2855.87,3651.74,2855.02,3637.42,2853.38z"/><polygon fill="#015C1A" points="2970.17 2766.79 2790.63 2728.3 2790.63 2912.46 2970.17 2975.62"/><polygon fill="#F0FFF3" points="2970.17 2798.94 2790.63 2758.86 2790.63 2886.68 2970.17 2943.47"/><path fill="#ECFAEE" d="M2967.4,2828.65c0,0,10.8,96.12-176.77,44.76v13.27l179.53,56.79v-115.49L2967.4,2828.65z"/><polygon fill="#02AD31" points="2790.63 2728.3 3501.17 2728.3 3850.34 2766.79 2970.17 2766.79"/><polygon fill="#C8D4C9" points="2970.49 2829.49 2889.15 2807.41 2972.21 2821.76"/><path fill="#C8D4C9" d="M2845.02,2827.98c7.67,0.74,15.19,2.05,22.65,3.56c3.75,0.7,7.44,1.61,11.16,2.42l11.07,2.74
					c7.36,1.92,14.65,4.08,21.9,6.43c7.24,2.35,14.43,4.91,21.48,8.04c-7.67-0.74-15.19-2.04-22.65-3.55
					c-7.46-1.52-14.88-3.22-22.23-5.17l-10.99-3.06c-3.64-1.12-7.3-2.15-10.91-3.38C2859.26,2833.65,2852.06,2831.1,2845.02,2827.98
					z"/><path fill="#C8D4C9" d="M2842.89,2794.46c-4.64,0.18-9.13-0.25-13.6-0.81c-4.45-0.6-8.85-1.43-13.21-2.45
					c-4.36-1.02-8.66-2.24-12.92-3.69c-4.25-1.48-8.46-3.11-12.53-5.35c4.64-0.19,9.14,0.24,13.6,0.8c4.45,0.6,8.85,1.43,13.21,2.46
					c4.35,1.03,8.66,2.25,12.92,3.7C2834.6,2790.6,2838.81,2792.23,2842.89,2794.46z"/><path fill="#C8D4C9" d="M2800.44,2846.67c6.44,0.44,12.72,1.44,18.95,2.65c6.24,1.17,12.41,2.63,18.53,4.24
					c6.12,1.63,12.19,3.43,18.19,5.51c6.01,2.05,11.96,4.3,17.76,7.12c-6.44-0.43-12.72-1.43-18.95-2.64
					c-6.24-1.17-12.41-2.63-18.53-4.25c-6.12-1.64-12.19-3.44-18.19-5.52C2812.2,2851.73,2806.24,2849.48,2800.44,2846.67z"/><path fill="#C8D4C9" d="M2864.53,2898.88c7.65,0.75,15.15,2.07,22.6,3.58c3.74,0.7,7.42,1.61,11.13,2.43l11.05,2.75
					c7.34,1.92,14.62,4.09,21.85,6.44c7.23,2.36,14.4,4.92,21.42,8.06c-7.65-0.74-15.16-2.06-22.6-3.57
					c-7.45-1.52-14.85-3.23-22.18-5.19l-10.96-3.07c-3.63-1.12-7.28-2.15-10.88-3.39
					C2878.73,2904.57,2871.56,2902.01,2864.53,2898.88z"/><path fill="#ECFAEE" d="M3844.39,2846.46v49.5c0,7.59-1.78,14.76-4.93,21.12c0,0.02-0.02,0.02-0.02,0.04
					c-16.32,24.48-155.28,8.99-155.28,8.99s139.23-38.69,118.85-80.28c-20.36-41.6-157.04-46.89-157.04-46.89h150.92
					C3823.12,2798.94,3844.39,2820.21,3844.39,2846.46z"/><polygon fill="#015216" points="2970.17 2779.52 2790.63 2744.37 2790.63 2761.95 2970.17 2798.94"/><polygon fill="#015216" points="2970.17 2943.47 2970.17 2962.89 2790.63 2898.88 2790.63 2886.68"/><path fill="#C20265" d="M3850.89,2761.05h-742.08v-172.08h742.08c20.15,0,36.48,16.33,36.48,36.48v99.12
					C3887.38,2744.72,3871.04,2761.05,3850.89,2761.05z"/><path fill="#A61919" d="M3820.46,2750.56h-711.65v-151.1l711.65,0c20.15,0,36.48,16.33,36.48,36.48v78.13
					C3856.95,2734.23,3840.61,2750.56,3820.46,2750.56z"/><path fill="#F0FFF3" d="M3829.18,2654.62v40.79c0,6.25-1.47,12.16-4.06,17.4c0,0.02-0.02,0.02-0.02,0.03
					c-6.41,12.88-19.72,21.72-35.06,21.72h-681.24v-119.1h681.24C3811.65,2615.46,3829.18,2632.99,3829.18,2654.62z"/><path fill="#E9F7EB" d="M3825.12,2712.8c-6.41,12.89-19.72,21.76-35.08,21.76h-681.24v-106.34l0.61,3.96
					c7.64,49.96,50.61,86.85,101.15,86.85h593.35C3811.74,2719.04,3819.02,2716.75,3825.12,2712.8z"/><polygon fill="#C8D4C9" points="3108.81 2633.97 3743.62 2637.24 3108.81 2640.5"/><path fill="#C8D4C9" d="M3138.19,2660.32c29.38-1.35,58.76-2.06,88.14-2.54c14.69-0.3,29.38-0.37,44.07-0.54l44.07-0.18
					l44.07,0.17c14.69,0.18,29.38,0.24,44.07,0.54c29.38,0.48,58.76,1.19,88.14,2.55c-29.38,1.36-58.76,2.07-88.14,2.55
					c-14.69,0.3-29.38,0.36-44.07,0.54l-44.07,0.17l-44.07-0.18c-14.69-0.18-29.38-0.24-44.07-0.54
					C3196.95,2662.38,3167.57,2661.67,3138.19,2660.32z"/><path fill="#C8D4C9" d="M3220.04,2687.6c9.62-1.35,19.24-2.06,28.85-2.54c9.62-0.52,19.24-0.71,28.86-0.73
					c9.62,0,19.24,0.2,28.85,0.72c9.62,0.48,19.24,1.19,28.86,2.55c-9.62,1.36-19.24,2.07-28.86,2.55
					c-9.62,0.52-19.24,0.71-28.85,0.72c-9.62-0.01-19.24-0.21-28.86-0.73C3239.27,2689.66,3229.65,2688.96,3220.04,2687.6z"/><path fill="#C8D4C9" d="M3484.45,2687.6c16.35-1.35,32.7-2.06,49.05-2.54c8.18-0.3,16.35-0.37,24.53-0.54l24.53-0.18l24.53,0.17
					c8.18,0.18,16.35,0.24,24.53,0.54c16.35,0.48,32.7,1.19,49.05,2.55c-16.35,1.36-32.7,2.07-49.05,2.55
					c-8.18,0.3-16.35,0.36-24.53,0.54l-24.53,0.17l-24.53-0.18c-8.18-0.18-16.35-0.24-24.53-0.54
					C3517.16,2689.66,3500.8,2688.96,3484.45,2687.6z"/><path fill="#C8D4C9" d="M3300.83,2716.98c20.46-1.35,40.92-2.06,61.38-2.54c10.23-0.3,20.46-0.37,30.69-0.54l30.69-0.18
					l30.69,0.17c10.23,0.18,20.46,0.24,30.69,0.54c20.46,0.48,40.92,1.19,61.38,2.55c-20.46,1.36-40.92,2.07-61.38,2.55
					c-10.23,0.3-20.46,0.36-30.69,0.54l-30.69,0.17l-30.69-0.18c-10.23-0.18-20.46-0.24-30.69-0.54
					C3341.75,2719.04,3321.29,2718.33,3300.83,2716.98z"/><path fill="#C8D4C9" d="M3108.81,2716.98c5.95-1.35,11.89-2.05,17.84-2.56c5.95-0.48,11.89-0.7,17.84-0.71
					c5.95,0,11.89,0.22,17.84,0.7c5.95,0.5,11.89,1.21,17.84,2.57c-5.95,1.36-11.89,2.06-17.84,2.57c-5.95,0.48-11.89,0.7-17.84,0.7
					c-5.95,0-11.89-0.23-17.84-0.71C3120.7,2719.04,3114.76,2718.33,3108.81,2716.98z"/><path fill="#C8D4C9" d="M3658.63,2660.32c11.8-1.35,23.61-2.06,35.41-2.54c5.9-0.3,11.8-0.37,17.71-0.54l17.71-0.18l17.71,0.17
					c5.9,0.18,11.8,0.24,17.71,0.54c11.8,0.48,23.61,1.19,35.41,2.55c-11.8,1.36-23.61,2.07-35.41,2.55
					c-5.9,0.3-11.8,0.36-17.71,0.54l-17.71,0.17l-17.71-0.18c-5.9-0.18-11.8-0.24-17.71-0.54
					C3682.24,2662.38,3670.44,2661.67,3658.63,2660.32z"/><polygon fill="#C20265" points="3108.81 2588.97 2960.88 2557.26 2960.88 2709.01 3108.81 2761.05"/><polygon fill="#F0FFF3" points="3108.81 2615.47 2960.88 2582.44 2960.88 2687.77 3108.81 2734.56"/><path fill="#ECFAEE" d="M3106.53,2639.95c0,0,8.9,79.2-145.66,36.88v10.94l147.94,46.79v-95.17L3106.53,2639.95z"/><polygon fill="#E30315" points="2960.88 2557.26 3546.36 2557.26 3834.09 2588.97 3108.81 2588.97"/><polygon fill="#C8D4C9" points="3109.08 2640.64 3042.06 2622.44 3110.5 2634.27"/><path fill="#C8D4C9" d="M3005.69,2639.39c6.32,0.61,12.51,1.69,18.67,2.94c3.09,0.58,6.13,1.33,9.19,1.99l9.13,2.26
					c6.06,1.58,12.07,3.36,18.05,5.3c5.97,1.94,11.89,4.05,17.7,6.62c-6.32-0.61-12.52-1.68-18.67-2.93
					c-6.15-1.25-12.26-2.65-18.32-4.26l-9.06-2.52c-3-0.92-6.01-1.77-8.99-2.78C3017.42,2644.07,3011.5,2641.97,3005.69,2639.39z"/><path fill="#C8D4C9" d="M3003.93,2611.78c-3.82,0.15-7.53-0.2-11.2-0.67c-3.67-0.5-7.3-1.18-10.89-2.02
					c-3.59-0.84-7.14-1.85-10.64-3.04c-3.5-1.22-6.97-2.57-10.32-4.41c3.82-0.15,7.53,0.19,11.21,0.66c3.67,0.5,7.3,1.18,10.88,2.03
					c3.59,0.85,7.14,1.86,10.64,3.05C2997.11,2608.6,3000.58,2609.94,3003.93,2611.78z"/><path fill="#C8D4C9" d="M2968.96,2654.8c5.3,0.36,10.48,1.19,15.62,2.18c5.14,0.96,10.22,2.16,15.27,3.5
					c5.04,1.34,10.05,2.83,14.99,4.54c4.95,1.69,9.86,3.54,14.64,5.87c-5.3-0.36-10.48-1.18-15.62-2.18
					c-5.14-0.97-10.22-2.17-15.26-3.5c-5.04-1.35-10.05-2.83-14.99-4.55C2978.64,2658.97,2973.74,2657.12,2968.96,2654.8z"/><path fill="#C8D4C9" d="M3021.77,2697.82c6.3,0.62,12.49,1.7,18.62,2.95c3.08,0.58,6.12,1.33,9.17,2l9.1,2.27
					c6.05,1.58,12.05,3.37,18,5.31c5.95,1.94,11.86,4.06,17.65,6.64c-6.31-0.61-12.49-1.69-18.63-2.95
					c-6.14-1.25-12.23-2.66-18.28-4.27l-9.03-2.53c-2.99-0.93-6-1.77-8.96-2.79C3033.47,2702.5,3027.56,2700.39,3021.77,2697.82z"/><path fill="#ECFAEE" d="M3829.18,2654.62v40.79c0,6.25-1.47,12.16-4.06,17.4c0,0.02-0.02,0.02-0.02,0.03
					c-13.45,20.17-127.95,7.41-127.95,7.41s114.73-31.88,97.93-66.15c-16.78-34.28-129.4-38.63-129.4-38.63h124.36
					C3811.65,2615.46,3829.18,2632.99,3829.18,2654.62z"/><polygon fill="#A61919" points="3108.81 2599.47 2960.88 2570.5 2960.88 2584.98 3108.81 2615.47"/><polygon fill="#A61919" points="3108.81 2734.56 3108.81 2750.56 2960.88 2697.82 2960.88 2687.77"/><g><path fill="#02559C" d="M3752.93,2573.36h-818.12v-188.89h818.12c20.15,0,36.48,16.33,36.48,36.48v115.92
					C3789.41,2557.03,3773.08,2573.36,3752.93,2573.36z"/><path fill="#013968" d="M3719.53,2561.84h-784.72v-165.85h784.72c20.15,0,36.48,16.33,36.48,36.48v92.89
					C3756.01,2545.51,3739.68,2561.84,3719.53,2561.84z"/><path fill="#F0FFF3" d="M3725.54,2456.53v44.77c0,6.86-1.61,13.35-4.46,19.1c0,0.02-0.02,0.02-0.02,0.04
					c-7.04,14.14-21.64,23.85-38.48,23.85H2934.8v-130.73h747.77C3706.29,2413.55,3725.54,2432.79,3725.54,2456.53z"/><path fill="#E9F7EB" d="M3721.08,2520.39c-7.04,14.15-21.64,23.88-38.5,23.88h-747.77v-116.72l0.67,4.35
					c8.39,54.84,55.55,95.34,111.03,95.34h651.31C3706.39,2527.24,3714.38,2524.73,3721.08,2520.39z"/><polygon fill="#C8D4C9" points="2934.81 2433.87 3631.62 2437.45 2934.81 2441.03"/><path fill="#C8D4C9" d="M2967.06,2462.79c32.25-1.48,64.5-2.26,96.75-2.79c16.12-0.33,32.25-0.4,48.37-0.6l48.37-0.2l48.37,0.19
					c16.12,0.2,32.25,0.26,48.37,0.6c32.25,0.52,64.5,1.3,96.75,2.8c-32.25,1.49-64.5,2.27-96.75,2.8
					c-16.12,0.33-32.25,0.4-48.37,0.6l-48.37,0.19l-48.37-0.2c-16.12-0.19-32.25-0.27-48.37-0.6
					C3031.56,2465.05,2999.31,2464.27,2967.06,2462.79z"/><path fill="#C8D4C9" d="M3056.89,2492.74c10.56-1.48,21.12-2.26,31.67-2.79c10.56-0.57,21.12-0.78,31.67-0.8
					c10.56,0,21.12,0.22,31.67,0.79c10.56,0.52,21.12,1.3,31.67,2.8c-10.56,1.49-21.12,2.27-31.67,2.8
					c-10.56,0.57-21.12,0.78-31.67,0.79c-10.56-0.01-21.12-0.23-31.67-0.8C3078.01,2494.99,3067.45,2494.22,3056.89,2492.74z"/><path fill="#C8D4C9" d="M3347.14,2492.74c17.95-1.48,35.9-2.26,53.84-2.79c8.97-0.33,17.95-0.4,26.92-0.6l26.92-0.2l26.92,0.19
					c8.97,0.2,17.95,0.26,26.92,0.6c17.95,0.52,35.9,1.3,53.84,2.8c-17.95,1.49-35.9,2.27-53.84,2.8c-8.97,0.33-17.95,0.4-26.92,0.6
					l-26.92,0.19l-26.92-0.2c-8.97-0.19-17.95-0.27-26.92-0.6C3383.03,2494.99,3365.09,2494.22,3347.14,2492.74z"/><path fill="#C8D4C9" d="M3145.58,2524.99c22.46-1.48,44.92-2.26,67.38-2.79c11.23-0.33,22.46-0.4,33.69-0.6l33.69-0.2
					l33.69,0.19c11.23,0.2,22.46,0.26,33.69,0.6c22.46,0.52,44.92,1.3,67.38,2.8c-22.46,1.49-44.92,2.27-67.38,2.8
					c-11.23,0.33-22.46,0.4-33.69,0.6l-33.69,0.19l-33.69-0.2c-11.23-0.19-22.46-0.27-33.69-0.6
					C3190.5,2527.24,3168.04,2526.47,3145.58,2524.99z"/><path fill="#C8D4C9" d="M2934.81,2524.99c6.53-1.48,13.05-2.25,19.58-2.81c6.53-0.53,13.05-0.77,19.58-0.77
					c6.53-0.01,13.05,0.24,19.58,0.76c6.53,0.55,13.05,1.33,19.58,2.82c-6.53,1.49-13.05,2.26-19.58,2.82
					c-6.53,0.52-13.05,0.77-19.58,0.76c-6.53,0-13.05-0.25-19.58-0.78C2947.86,2527.24,2941.33,2526.47,2934.81,2524.99z"/><path fill="#C8D4C9" d="M3538.33,2462.79c12.96-1.48,25.91-2.26,38.87-2.79c6.48-0.33,12.96-0.4,19.44-0.6l19.44-0.2l19.44,0.19
					c6.48,0.2,12.96,0.26,19.44,0.6c12.96,0.52,25.91,1.3,38.87,2.8c-12.96,1.49-25.91,2.27-38.87,2.8
					c-6.48,0.33-12.96,0.4-19.44,0.6l-19.44,0.19l-19.44-0.2c-6.48-0.19-12.96-0.27-19.44-0.6
					C3564.24,2465.05,3551.29,2464.27,3538.33,2462.79z"/><polygon fill="#015C1A" points="2934.81 2384.47 2772.42 2349.66 2772.42 2516.23 2934.81 2573.36"/><polygon fill="#F0FFF3" points="2934.81 2413.55 2772.42 2377.3 2772.42 2492.91 2934.81 2544.28"/><path fill="#ECFAEE" d="M2932.31,2440.43c0,0,9.77,86.94-159.88,40.48v12l162.38,51.36v-104.46L2932.31,2440.43z"/><polygon fill="#0272D0" points="2772.42 2349.66 3415.09 2349.66 3730.92 2384.47 2934.81 2384.47"/><polygon fill="#C8D4C9" points="2935.1 2441.19 2861.53 2421.21 2936.66 2434.19"/><path fill="#C8D4C9" d="M2821.62,2439.82c6.94,0.67,13.74,1.86,20.49,3.22c3.39,0.63,6.73,1.46,10.09,2.19l10.02,2.48
					c6.66,1.73,13.25,3.69,19.81,5.81c6.55,2.13,13.06,4.44,19.42,7.27c-6.94-0.67-13.74-1.85-20.49-3.22
					c-6.75-1.37-13.46-2.91-20.11-4.67l-9.94-2.77c-3.29-1.01-6.6-1.94-9.86-3.06C2834.49,2444.95,2827.99,2442.64,2821.62,2439.82z
					"/><path fill="#C8D4C9" d="M2819.68,2409.5c-4.2,0.16-8.26-0.22-12.3-0.73c-4.03-0.54-8.01-1.29-11.95-2.22
					c-3.94-0.92-7.84-2.03-11.68-3.34c-3.84-1.34-7.65-2.82-11.33-4.84c4.2-0.17,8.26,0.21,12.3,0.73
					c4.03,0.54,8.01,1.29,11.95,2.23c3.94,0.93,7.83,2.04,11.68,3.35C2812.19,2406.01,2816,2407.48,2819.68,2409.5z"/><path fill="#C8D4C9" d="M2781.29,2456.72c5.82,0.4,11.51,1.31,17.14,2.4c5.64,1.06,11.22,2.38,16.76,3.84
					c5.53,1.47,11.03,3.1,16.45,4.98c5.43,1.85,10.82,3.89,16.07,6.44c-5.82-0.39-11.51-1.3-17.14-2.39
					c-5.64-1.06-11.22-2.38-16.76-3.85c-5.53-1.48-11.03-3.11-16.45-4.99C2791.93,2461.3,2786.54,2459.27,2781.29,2456.72z"/><path fill="#C8D4C9" d="M2839.26,2503.95c6.92,0.68,13.71,1.87,20.44,3.24c3.38,0.64,6.71,1.46,10.07,2.2l9.99,2.49
					c6.64,1.74,13.22,3.7,19.76,5.83c6.54,2.13,13.02,4.45,19.37,7.29c-6.92-0.67-13.71-1.86-20.45-3.23
					c-6.74-1.38-13.43-2.92-20.06-4.69l-9.92-2.77c-3.28-1.02-6.59-1.95-9.84-3.06C2852.1,2509.09,2845.62,2506.77,2839.26,2503.95z
					"/><path fill="#ECFAEE" d="M3725.54,2456.53v44.77c0,6.86-1.61,13.35-4.46,19.1c0,0.02-0.02,0.02-0.02,0.04
					c-14.76,22.14-140.45,8.13-140.45,8.13s125.93-34.99,107.5-72.61c-18.42-37.62-142.04-42.41-142.04-42.41h136.5
					C3706.29,2413.55,3725.54,2432.79,3725.54,2456.53z"/><polygon fill="#015216" points="2934.81 2395.99 2772.42 2364.2 2772.42 2380.09 2934.81 2413.55"/><polygon fill="#015216" points="2934.81 2544.28 2934.81 2561.84 2772.42 2503.95 2772.42 2492.91"/></g><g><path fill="#060A38" d="M2161.44,1043.78c1.34,0.62-1.12,45.98-11.91,61.48c-10.79,15.5-67.05-50.39-67.05-50.39
					S2085.5,1008.6,2161.44,1043.78z"/><path fill="#FFB281" d="M1750.45,1851.91l7.18,248.66c0,0-45.11,62.39-10.88,123.33c24.96,44.43,47.16,28.15,47.16,28.15
					l52.36-384.16L1750.45,1851.91z"/><path fill="#EB9D6A" d="M1790.92,1907.98l30.3,24.89c0,0-31.31,167.53-47.6,213.87c-16.28,46.34,24.42,55.74,24.42,55.74
					l42.59-300.61L1790.92,1907.98z"/><path fill="#323969" d="M1883.84,1315.65c0,0-32.34,33.88-101.65,132.46c-69.31,98.57-104.73,406.62-101.65,422.02
					s112.19,69.16,157.75,38.43L1883.84,1315.65z"/><path fill="#FFB281" d="M1912.33,2924.41l-18.31,145.14c-35.71,19.55-64.75,15.52-82.17,9.24c-11.46-4.14-17.89-9.24-17.89-9.24
					v-126.81L1912.33,2924.41z"/><path fill="#FC873F" d="M1999.37,2530.33l-63.83,409.57c-123.67,49.2-167.22,0-167.22,0v-431.17L1999.37,2530.33z"/><path fill="#FFB281" d="M2264.68,2942.74v126.81c0,0-35.74,28.35-88.79,5.51c-3.67-1.58-7.42-3.4-11.27-5.51l-17.05-135.18
					l-1.26-9.95L2264.68,2942.74z"/><path fill="#F2A372" d="M1811.85,3078.78c-11.46-4.14-17.89-9.24-17.89-9.24v-115.41l42.28,7.63l-0.04,0.18
					c-9.4,40.65,11.04,81.8,48.46,100.26c1.03,0.51,1.81,0.98,2.31,1.4C1891.29,3067.24,1846.94,3074.05,1811.85,3078.78z"/><path fill="#D97536" d="M1935.54,2939.9c-123.67,49.2-167.22,0-167.22,0v-313.87l135.56,44.91
					c-53.92,6.68-94.41,52.5-94.41,106.84v58.48c0,65.2,58.5,114.73,122.85,104.18C1933.39,2940.25,1934.45,2940.08,1935.54,2939.9z
					"/><path fill="#F2A372" d="M2269.62,3066.73l-4.94,0.44l-88.79,7.89c-3.67-1.58-7.42-3.4-11.27-5.51l-17.05-135.18l27.25,10.87
					l20.27,97.07l69.59,22.8L2269.62,3066.73z"/><path fill="#FC873F" d="M2290.34,2508.73v431.17l-0.02,0.01c-0.91,0.99-44.83,48.68-167.2-0.01l-42.29-271.32l-21.54-138.25
					L2290.34,2508.73z"/><path fill="#D97536" d="M2290.34,2939.9l-0.02,0.01c-0.91,0.99-44.83,48.68-167.2-0.01l-42.29-271.32l146.22,7.47l0,0
					c-54.28,20.98-87.63,75.86-81.25,133.7l3.68,33.31c7.38,66.9,71.38,112.88,136.96,97.77
					C2287.73,2940.53,2289.03,2940.22,2290.34,2939.9z"/><path fill="#323969" d="M2367.47,2646.39c-12.39,4.24-25.18,8.04-38.31,11.43h-0.04c-0.03,0.01-0.06,0.03-0.07,0.03
					c-0.12,0.03-0.32,0.07-0.61,0.15c-20.34,5.25-41.49,9.51-63.17,12.93c-239.29,37.8-543.13-27.28-543.13-35.32
					c0-9.24,32.35-398.9,86.26-542.15c22.46-59.68,32.89-199.85,40.08-345.07c10.08-203.32,13.82-416.56,35.38-432.73
					c36.97-27.72,97.42-36.96,97.42-36.96l168.27-1.55c62.76,18.11,101.27,38.51,101.27,38.51L2367.47,2646.39z"/><path fill="#1E2359" d="M2097.26,1470.3c0,0-36.5,76.35-103.2-3.91c-66.7-80.26-75.15-150.75-75.15-150.75l-132.86,126.96
					c0,0,86.09-155.74,157.38-154.95L2097.26,1470.3z"/><path fill="#C74E4B" d="M1943.44,1287.66c0,0,58.61,167.77,110.59,198.95s141.84-194.35,141.84-194.35
					S2080.12,1244.03,1943.44,1287.66z"/><path fill="#F7EBEB" d="M1972.36,1279.67l97.3,157.27l101.44-152.84C2171.1,1284.1,2066.47,1252.36,1972.36,1279.67z"/><path fill="#E6DBDB" d="M1981.25,1280.3c0,0,44.75,50.73,59.16,56.68c14.4,5.95,45.76,4.07,56.86-5.64s29.57-37.74,29.57-37.74
					S2016.67,1260.57,1981.25,1280.3z"/><path fill="#EDEDED" d="M2009.62,1246.15c0,0,49.03-15.41,115.65,7.12l-7.32,21.95
					C2117.95,1275.22,1997.74,1288.71,2009.62,1246.15z"/><path fill="#FFB281" d="M2009.62,1193.67l7.38,78.42c0,0,31.45,44.05,50.44,43.56c19.89-0.51,51.09-43.32,51.09-43.32
					l5.12-84.95C2123.65,1187.38,2058.39,1159.48,2009.62,1193.67z"/><path fill="#E8A175" d="M2115.52,1200.21c0,0-20.81,37.81-48.64,40.75s-55.88-35.21-55.88-35.21l-2.76-24.23L2115.52,1200.21z"/><path fill="#FFB281" d="M2153.77,1046.49c0,0-8.67,132.28-45.05,160.57c-19.29,15.01-34.84,21.57-48.98,21.32
					c-12.55-0.2-23.98-5.76-35.93-15.53c-25.41-20.79-45.62-109.17-42.16-153.07c0.57-7.25,4.13-13.62,9.94-19.03
					C2020.9,1013.38,2107.46,1010.82,2153.77,1046.49z"/><polygon fill="#FFF" points="2009.62 1246.15 2059.76 1294.13 2046.33 1334.9 1981.25 1278.68"/><path fill="#E8A175" d="M2059.73,1228.38c-12.55-0.2-23.98-5.76-35.93-15.53c-25.41-20.79-45.62-109.17-42.16-153.07
					c0.57-7.25,4.13-13.62,9.94-19.03c9.18-2.24,20.72-1.61,35.06,4.59c0,0-24.43,9.82-24.43,15.46c0,5.64-9.38,34.78-10.01,46.82
					C1991.56,1119.66,1999.73,1205.26,2059.73,1228.38z"/><polygon fill="#FFF" points="2125.27 1253.27 2074.82 1296.4 2086.18 1333.94 2149.52 1277.14"/><path fill="#323969" d="M2250.79,1315.65c0,0,175.2,251.05,176.74,324.98c1.54,73.93-19.89,211-133.93,163.26L2250.79,1315.65z"/><polygon fill="#E6DBDB" points="2059.76 1294.13 2066.63 1326.04 2050.14 1323.34"/><polygon fill="#E6DBDB" points="2074.82 1296.4 2066.63 1326.04 2083.36 1324.6"/><path fill="#FFF482" d="M2069.69,1471.35c-0.02,0-0.04,0-0.06,0c-6.53-0.03-26.42-0.13-73.78-94.46
					c-22.83-45.47-41.31-91.51-41.5-91.97l9.19-3.68c0.18,0.46,18.53,46.16,41.18,91.26c40.27,80.19,58.84,88.92,64.96,88.95
					c0,0,0.01,0,0.01,0c2.36,0,16.38-4.22,63.44-86.49c25.11-43.9,47.22-88.38,47.44-88.82l8.87,4.4
					c-0.22,0.45-22.46,45.19-47.72,89.34C2095.4,1460.86,2078.88,1471.35,2069.69,1471.35z"/><path fill="#1E2359" d="M2348.21,1643.71c0,0,71.62,60.51,19.25,163.1c0,0-22.2,21.72-73.87-2.92
					S2283.52,1649.87,2348.21,1643.71z"/><polygon fill="#0F1A91" points="2067.51 858.49 2270.43 955.53 2074.82 1038.7 1853.42 956.68"/><polygon fill="#080E4D" points="2067.51 865.14 2270.43 962.17 2074.82 1045.34 1853.42 963.32"/><polygon fill="#060A38" points="2067.51 865.14 2066.45 867.41 2014.73 978.11 2030.39 1031.99 1853.42 963.32"/><path fill="#FFB281" d="M2383.9,1723.61c0,0-11.82,13.28-37.23,21.76c-16.41,5.47-97.02-43.63-152.08-79.11
					c-0.01-0.01-0.01-0.01-0.01-0.01c-27.65-17.81-48.85-32.21-52.27-34.53c-0.01,0-0.03-0.01-0.03-0.01
					c-0.31-0.2-0.45-0.31-0.45-0.31l0.02-0.06l11.19-28.85l3.42-8.83l191.75,50.05c7.16,6.21,12.9,12.7,17.51,19.19h0.02
					C2387.4,1693.38,2383.9,1723.61,2383.9,1723.61z"/><path fill="#2A2E36" d="M2164.16,1019.96c0,0,16.38,66.04-43.32,38.09c-35.43-16.59-122.63-16.14-124.95,2.31
					c-8.28,65.96-18.29,47.36-18.29,47.36s-20.99-78.74-12.9-85.1C1972.79,1016.27,2110.44,985.88,2164.16,1019.96z"/><path fill="#EB9D6A" d="M2383.9,1723.61c0,0-11.82,13.28-37.23,21.76c-16.41,5.47-97.02-43.63-152.08-79.11
					c-0.01-0.01-0.01-0.01-0.01-0.01s-30.77-16.99-52.27-34.53c-0.01,0-0.03-0.01-0.03-0.01c-0.15-0.12-0.29-0.23-0.44-0.37
					c-15.33-12.57-25.72-25.35-16.4-32.25c14.54-10.76,23.25-3.21,27.59,3.4c2.35,3.59,3.42,6.93,3.42,6.93l160.39,107.01
					c10.85,7.24,24.54,9.3,36.82,4.88c5.64-2.03,10.46-5.27,12.05-10.43c4.66-15.04,0-47.97,0-47.97h0.02
					C2387.4,1693.38,2383.9,1723.61,2383.9,1723.61z"/><path fill="#0D177D" d="M1962.85,1027.24l-1.61-73.93c0,0,122.11-56.41,204.1,2.5l-1.18,64.14
					C2164.16,1019.96,2058.53,998.75,1962.85,1027.24z"/><polygon fill="#0F1A91" points="2270.43 962.17 2270.43 955.53 2263.49 958.85"/><polygon fill="#0F1A91" points="1853.42 956.68 1853.42 963.32 1861.43 959.65"/><rect width="220.83" height="281.13" x="1958.95" y="1596.7" fill="#FFF6F0"/><rect width="206.91" height="263.41" x="1965.91" y="1605.56" fill="#6E84C4"/><rect width="189.58" height="241" x="1974.57" y="1616.76" fill="#FFF6F0"/><polygon fill="#BF001A" points="2105.24 1857.73 2094.34 1856.99 2095.08 1867.9 2073.27 1846.08 2083.43 1835.92"/><polygon fill="#BF001A" points="2033.49 1857.73 2044.39 1856.99 2043.65 1867.9 2065.46 1846.08 2055.3 1835.92"/><polygon fill="#A80017" points="2094.34 1856.99 2081.98 1843.91 2077.42 1850.23 2095.08 1867.9"/><polygon fill="#A80017" points="2043.72 1857.04 2056.22 1844.53 2061.94 1849.61 2043.65 1867.9"/><polygon fill="#D9001D" points="2090.48 1831.75 2087.56 1836.01 2088.35 1841.11 2083.87 1843.67 2082.36 1848.6 2077.22 1848.98 2073.72 1852.77 2068.93 1850.86 2064.13 1852.77 2060.63 1848.97 2055.49 1848.6 2053.98 1843.67 2049.51 1841.11 2050.29 1836.01 2047.38 1831.75 2050.29 1827.5 2049.51 1822.4 2053.99 1819.84 2055.49 1814.9 2060.63 1814.53 2064.13 1810.74 2068.93 1812.64 2073.72 1810.74 2077.22 1814.53 2082.37 1814.91 2083.87 1819.84 2088.35 1822.4 2087.56 1827.5"/><polygon fill="#BA0018" points="2084.58 1831.75 2081.49 1834.26 2083.39 1837.75 2079.58 1838.87 2080 1842.83 2076.04 1842.41 2074.92 1846.22 2071.43 1844.32 2068.93 1847.41 2066.42 1844.32 2062.93 1846.22 2061.81 1842.41 2057.85 1842.82 2058.27 1838.87 2054.46 1837.75 2056.36 1834.25 2053.27 1831.75 2056.36 1829.25 2054.46 1825.76 2058.27 1824.64 2057.86 1820.68 2061.81 1821.1 2062.93 1817.29 2066.43 1819.19 2068.93 1816.1 2071.43 1819.19 2074.92 1817.29 2076.04 1821.1 2080 1820.68 2079.58 1824.64 2083.4 1825.76 2081.49 1829.25"/><polygon fill="#FFF" points="2081.08 1831.75 2078.68 1833.7 2080.16 1836.41 2077.2 1837.28 2077.52 1840.35 2074.45 1840.03 2073.58 1842.99 2070.87 1841.51 2068.93 1843.91 2066.98 1841.51 2064.27 1842.99 2063.4 1840.02 2060.33 1840.35 2060.65 1837.28 2057.69 1836.41 2059.17 1833.7 2056.77 1831.75 2059.17 1829.81 2057.69 1827.1 2060.66 1826.23 2060.33 1823.16 2063.4 1823.48 2064.27 1820.52 2066.98 1822 2068.93 1819.6 2070.87 1822 2073.58 1820.52 2074.45 1823.48 2077.52 1823.16 2077.2 1826.23 2080.16 1827.1 2078.68 1829.81"/><rect width="150.56" height="5.39" x="1994.73" y="1688.57" fill="#EDE5E0"/><rect width="150.56" height="5.39" x="1994.73" y="1701.47" fill="#EDE5E0"/><rect width="150.56" height="5.39" x="1994.73" y="1714.37" fill="#EDE5E0"/><rect width="150.56" height="5.39" x="1994.73" y="1727.27" fill="#EDE5E0"/><rect width="150.56" height="5.39" x="1994.73" y="1740.17" fill="#EDE5E0"/><rect width="150.56" height="5.39" x="1994.73" y="1753.07" fill="#EDE5E0"/><rect width="100.5" height="16.17" x="2019.38" y="1640.63" fill="#586B9E"/><rect width="52.57" height="5.01" x="2089.26" y="1794.65" fill="#EDE5E0"/><path fill="#FFB281" d="M2156.45,1595.48l-1.39,1.21l-21.66,0.34c0,0-1.37-0.34-3.33,0c0,0,0,0-0.01,0
					c-3.54,0.63-8.94,3.48-11.53,14.63c-2.13,9.09-7.79,14.23-25.27,12.19c-5.41-0.64-9.47-5.03-9.76-10.33
					c-0.04-0.47-0.03-0.96,0-1.45c1.1-15.21,6.4-42.29,30.2-42.29C2157.08,1569.78,2156.45,1595.48,2156.45,1595.48z"/><path fill="#222842" d="M1778.52,3151.94h133.29c9.42,0,17.06-7.64,17.06-17.06v-33.09c0,0-8.49-50.14-83.7-47.83
					c-67.8,2.09-81.38,40.18-83.4,47.67c-0.2,0.76-0.3,1.53-0.3,2.31v30.93C1761.47,3144.31,1769.1,3151.94,1778.52,3151.94z"/><path fill="#3A4573" d="M1849.81,3145.78c-51.84,0-87.6-7.23-89.75-7.68l2.81-13.58c0.75,0.15,75.67,15.25,164.95,1.58
					l2.1,13.71C1900.96,3144.25,1873.68,3145.78,1849.81,3145.78z"/><path fill="#222842" d="M2149.25,3079.29c0.42-8.7,6.04-15.66,13.19-16.35c35.66-3.44,138.82-10.35,170.9,20.67
					c39.02,37.72,28.67,61.9,28.67,61.9s-196.71,2.9-207.06-4.84C2147.7,3135.26,2148.26,3099.97,2149.25,3079.29z"/><path fill="#3A4573" d="M2263.22,3142.02c-62.75,0-112.11-3.37-112.85-3.42l0.96-13.83c1.1,0.08,111.24,7.58,211.39,0
					l1.05,13.83C2329.87,3141.16,2294.84,3142.02,2263.22,3142.02z"/><path fill="#1E2359" d="M2298.43,1525.64l2.32,105.68l47.46,12.39c0,0,33.98-8.56,56.06,13.09c0,0-3.13-22.98-30.69-29.24
					l-47.1-0.35L2298.43,1525.64z"/><path fill="#1E2359" d="M1846.27,1586.23c0,0-18.47,308.12-24.11,310.94c-5.64,2.82-59.41,18.6-135.39-19.35
					c0,0,90.61,62.78,151.52,30.73L1846.27,1586.23z"/><path fill="#1E2359" d="M2329.15,2657.82c0,0-0.04,0.01-0.12,0.03c-0.12,0.03-0.32,0.07-0.61,0.15
					c-4.3,1.02-27.4,6.44-63.17,12.93c-239.29,37.8-543.13-27.28-543.13-35.32c0-9.24,32.35-398.9,86.26-542.15
					c22.46-59.68,30.7-263.67,37.89-408.89c1.26-7.04,4.7,49.75,5.95,42.71l-5.95,353.09c0,0,7.1,52.61,97.18,63.89
					c0,0-67.55,36.17-119.88,3.75l-56.84,435.88c0,0,239.9,104.64,562.38,73.94H2329.15z"/><path fill="#EB9D6A" d="M2130.06,1597.03c-3.54,0.63-8.94,3.48-11.53,14.63c-2.13,9.09-7.79,14.23-25.27,12.19
					c-5.41-0.64-9.47-5.03-9.76-10.33c7.95,12.39,26.1,6.06,26.81,4.43c0.7-1.65,2.81-11.51,7.98-16.67
					C2123.33,1596.24,2129.7,1596.99,2130.06,1597.03z"/><path fill="#0A1261" d="M2072.34,928.97c0,0-53.85,36.58-57.61,49.13c-3.76,12.55,23.79,35.66,23.79,35.66
					s-52.1,5.6-75.68,13.47l-1.61-73.93C1961.23,953.31,2017.22,928.98,2072.34,928.97z"/><path fill="#F0F0F0" d="M2009.62,1246.15c0,0-4,19.51,10.89,38.53c14.89,19.02,28.31,42.67,28.31,42.67l-2.48,7.54l-65.08-56.22
					L2009.62,1246.15z"/></g><g><path fill="#303440" d="M2819.29,1613.13c-24.78-35.4-40.27-76.82-44.79-119.79c-1.01-9.59-1.65-20.85,1.26-31.66
							c3.61-13.42,12.08-24.49,21.18-35.59c2.45-2.98,4.91-5.96,7.38-8.95c20.01-24.17,40.69-49.16,51.42-78.44
							c11.93-32.56,11.01-68.99,10.19-101.13c-0.48-19.09-1.03-40.73-8.37-59.69c-12.75-32.92-43.65-54.7-73.54-75.77
							c-1.85-1.3-3.69-2.6-5.53-3.9c-45.48-32.2-88.69-68.35-128.42-107.42c-12.16-11.96-25.99-26.09-36.32-42.55
							c-20.78-33.13-26.35-73.5-31.26-109.12l8.46-1.17c4.79,34.77,10.23,74.18,30.03,105.75c9.83,15.67,23.26,29.38,35.07,41
							c39.41,38.76,82.26,74.6,127.37,106.54c1.83,1.3,3.67,2.59,5.51,3.89c30.92,21.8,62.9,44.34,76.58,79.67
							c7.88,20.34,8.45,42.77,8.95,62.56c0.83,32.9,1.78,70.19-10.71,104.28c-11.23,30.66-32.4,56.22-52.86,80.94
							c-2.46,2.97-4.92,5.94-7.36,8.91c-8.49,10.35-16.36,20.62-19.54,32.4c-2.55,9.46-1.94,19.74-1.02,28.55
							c4.37,41.54,19.34,81.57,43.29,115.79L2819.29,1613.13z"/><path fill="#303440" d="M2594.91,523.82c55.44,96.92,48.97,303.96-3.84,334.16c-27.71,15.85-100.5-9.09-168.09-51.49
							c-50.53-31.7-98.16-73.16-121.88-114.62c-55.44-96.92-34.6-213.11,46.53-259.51c54.92-31.41,123.4-22.8,179.11,16.12l0,0.01
							C2553.33,467.04,2577.01,492.51,2594.91,523.82z"/><path fill="#262A33" d="M2594.91,523.82c55.44,96.92,48.97,303.96-3.84,334.16c-27.71,15.85-100.5-9.09-168.09-51.49
							c20.4-11.24,121.35,44,155.19,5.91c48.58-54.65,5.19-248.43-4.59-274.27c-13.33-35.22-30.04-65.06-46.84-89.64
							C2553.33,467.04,2577.01,492.51,2594.91,523.82z"/><path fill="#545C70" d="M2322.08,561.29c-4.28,29.74-0.06,54.95-7.75,53.84c-7.69-1.11-24.38-28.11-20.1-57.85
					c4.28-29.74,27.9-50.94,35.59-49.83C2337.51,508.56,2326.35,531.56,2322.08,561.29z"/></g><g><path fill="#303440" d="M3207.98,2356.27l-8.17-1.39c7.05-41.34,24.63-80.5,50.84-113.25c5.85-7.31,13.1-15.52,22.48-20.99
						c11.65-6.8,25.05-8.66,38.91-10.11c3.72-0.39,7.46-0.76,11.2-1.14c30.3-3.03,61.64-6.16,89.03-19.05
						c30.46-14.33,54.68-40.11,76.05-62.84c12.7-13.51,27.08-28.82,34.96-46.91c13.67-31.42,7.2-67.54,0.95-102.48
						c-0.39-2.16-0.77-4.32-1.15-6.47c-9.42-53.27-14.57-107.7-15.33-161.79c-0.23-16.55-0.14-35.75,3.97-54.15
						c8.27-37.05,31.98-68.71,52.9-96.65l6.63,4.97c-20.42,27.27-43.56,58.17-51.44,93.49c-3.91,17.53-4,36.15-3.77,52.23
						c0.75,53.64,5.87,107.63,15.2,160.46c0.38,2.14,0.76,4.3,1.15,6.46c6.47,36.15,13.15,73.53-1.51,107.24
						c-8.45,19.42-23.36,35.29-36.52,49.29c-21.88,23.28-46.67,49.66-78.56,64.67c-28.68,13.5-60.73,16.7-91.73,19.79
						c-3.73,0.37-7.45,0.74-11.16,1.13c-12.92,1.35-25.36,3.06-35.6,9.03c-8.21,4.79-14.81,12.3-20.19,19.01
						C3231.79,2278.46,3214.8,2316.31,3207.98,2356.27z"/><path fill="#C93232" d="M3788.35,1449.89c-27.88,104.73-173.64,243.21-230.7,228.02c-29.94-7.97-63.16-74.86-80.88-150.25
						c-13.25-56.36-17.83-117.49-5.9-162.29c27.88-104.73,121.55-170.71,209.22-147.37c59.35,15.8,100.73,68.48,112.63,133.36
						l0,0.01C3798.39,1382.32,3797.35,1416.06,3788.35,1449.89z"/><path fill="#972626" d="M3788.35,1449.89c-27.88,104.73-173.64,243.21-230.7,228.02c-29.94-7.97-63.16-74.86-80.88-150.25
						c21.76,6.16,53.73,113.19,103.09,109.99c70.83-4.57,173.12-167.94,184.01-192.45c14.84-33.41,23.67-65.41,28.85-93.84
						C3798.39,1382.32,3797.35,1416.06,3788.35,1449.89z"/><path fill="#D45B5B" d="M3574.45,1289.56c-23.25,17.6-37.54,37.89-42.09,31.87s2.36-36.04,25.6-53.64
						c23.25-17.6,54.02-16.12,58.58-10.11C3621.1,1263.69,3597.7,1271.95,3574.45,1289.56z"/></g><g><path fill="#303440" d="M1599.9,2386.27c-18.45-30.26-28.98-64.98-30.45-100.39c-0.33-7.91-0.27-17.16,2.68-25.86
						c3.66-10.8,11.16-19.42,19.19-28.04c2.16-2.32,4.33-4.63,6.51-6.94c17.63-18.75,35.87-38.13,46.17-61.54
						c11.46-26.04,12.59-55.91,13.59-82.26c0.6-15.66,1.27-33.4-3.76-49.3c-8.73-27.61-32.89-47.05-56.27-65.84
						c-1.45-1.17-2.89-2.33-4.33-3.48c-35.56-28.72-69.06-60.56-99.56-94.61c-9.33-10.42-19.93-22.71-27.52-36.72
						c-15.29-28.2-17.75-61.54-19.93-90.96l6.98-0.52c2.12,28.71,4.52,61.25,19.1,88.13c7.23,13.34,17.51,25.26,26.58,35.38
						c30.25,33.77,63.47,65.34,98.74,93.83c1.43,1.16,2.87,2.31,4.32,3.48c24.18,19.45,49.19,39.56,58.55,69.19
						c5.39,17.06,4.69,35.45,4.08,51.68c-1.03,26.98-2.19,57.56-14.18,84.82c-10.79,24.52-29.44,44.35-47.48,63.52
						c-2.17,2.31-4.34,4.61-6.49,6.92c-7.48,8.03-14.47,16.03-17.68,25.51c-2.58,7.61-2.62,16.06-2.31,23.32
						c1.42,34.23,11.6,67.79,29.43,97.04L1599.9,2386.27z"/><path fill="#4D69B8" d="M1472.75,1482.84c40.35,82.22,24.31,251.38-20.49,273.37c-23.51,11.54-81.8-12.66-134.94-50.88
						c-39.72-28.57-76.57-64.99-93.83-100.16c-40.35-82.22-17.27-176.26,51.56-210.04c46.6-22.87,102.21-12.26,145.8,22.49l0,0.01
						C1441.66,1434.2,1459.72,1456.28,1472.75,1482.84z"/><path fill="#3A4F8A" d="M1472.75,1482.84c40.35,82.22,24.31,251.38-20.49,273.37c-23.51,11.54-81.8-12.66-134.94-50.88
						c17.29-8.15,97.06,42.32,126.75,12.89c42.6-42.22,17.14-203.12,10.47-224.78c-9.08-29.53-21.22-54.82-33.69-75.82
						C1441.66,1434.2,1459.72,1456.28,1472.75,1482.84z"/><path fill="#658AF2" d="M1247.44,1499.36c-5.05,24.12-2.9,44.98-9.14,43.68c-6.24-1.3-18.5-24.28-13.45-48.4
						s25.49-40.25,31.73-38.95C1262.82,1456.99,1252.49,1475.24,1247.44,1499.36z"/></g><g><path fill="#BAE1FF" d="M1463.14,1110.14c6.57-1.17,13.14-1.78,19.71-2.22c6.57-0.42,13.14-0.61,19.71-0.61
					c6.57,0,13.14,0.19,19.71,0.61c6.57,0.44,13.14,1.05,19.71,2.23c-6.57,1.18-13.14,1.79-19.71,2.23
					c-6.57,0.42-13.14,0.61-19.71,0.61c-6.57,0-13.14-0.2-19.71-0.61C1476.27,1111.92,1469.7,1111.31,1463.14,1110.14z"/><path fill="#BAE1FF" d="M1502.55,1070.72c1.17,6.57,1.78,13.14,2.22,19.71c0.42,6.57,0.61,13.14,0.61,19.71
					c0,6.57-0.19,13.14-0.61,19.71c-0.44,6.57-1.05,13.14-2.23,19.71c-1.18-6.57-1.79-13.14-2.23-19.71
					c-0.42-6.57-0.61-13.14-0.61-19.71c0-6.57,0.2-13.14,0.61-19.71C1500.76,1083.86,1501.37,1077.29,1502.55,1070.72z"/></g><g><path fill="#BAE1FF" d="M1703.91,786.22c20.43-3.65,40.85-5.55,61.28-6.91c20.43-1.29,40.85-1.9,61.28-1.91
					c20.43-0.01,40.85,0.59,61.28,1.88c20.43,1.36,40.85,3.26,61.28,6.93c-20.43,3.68-40.85,5.58-61.28,6.93
					c-20.43,1.29-40.85,1.9-61.28,1.88c-20.43-0.01-40.85-0.61-61.28-1.91C1744.76,791.77,1724.33,789.88,1703.91,786.22z"/><path fill="#BAE1FF" d="M1826.46,663.67c3.65,20.43,5.55,40.85,6.91,61.28c1.29,20.43,1.9,40.85,1.91,61.28
					c0.01,20.43-0.59,40.85-1.88,61.28c-1.36,20.43-3.26,40.85-6.93,61.28c-3.68-20.43-5.58-40.85-6.93-61.28
					c-1.29-20.43-1.9-40.85-1.88-61.28c0.01-20.43,0.61-40.85,1.91-61.28C1820.92,704.52,1822.81,684.09,1826.46,663.67z"/></g><g><path fill="#BAE1FF" d="M2795.9,928.97c20.43-3.65,40.85-5.55,61.28-6.91c20.43-1.29,40.85-1.9,61.28-1.91
					c20.43-0.01,40.85,0.59,61.28,1.88c20.43,1.36,40.85,3.26,61.28,6.93c-20.43,3.68-40.85,5.58-61.28,6.93
					c-20.43,1.29-40.85,1.9-61.28,1.88c-20.43-0.01-40.85-0.61-61.28-1.91C2836.75,934.52,2816.33,932.63,2795.9,928.97z"/><path fill="#BAE1FF" d="M2918.46,806.42c3.65,20.43,5.55,40.85,6.91,61.28c1.29,20.43,1.9,40.85,1.91,61.28
					c0.01,20.43-0.59,40.85-1.88,61.28c-1.36,20.43-3.26,40.85-6.93,61.28c-3.68-20.43-5.58-40.85-6.93-61.28
					c-1.29-20.43-1.9-40.85-1.88-61.28c0.01-20.43,0.61-40.85,1.91-61.28C2912.91,847.27,2914.8,826.84,2918.46,806.42z"/></g><g><path fill="#BAE1FF" d="M3720.09,2138.1c14.87-2.66,29.74-4.04,44.62-5.03c14.87-0.94,29.74-1.38,44.62-1.39
					c14.87-0.01,29.74,0.43,44.62,1.37c14.87,0.99,29.74,2.37,44.62,5.05c-14.87,2.68-29.74,4.06-44.62,5.05
					c-14.87,0.94-29.74,1.38-44.62,1.37c-14.87-0.01-29.74-0.45-44.62-1.39C3749.84,2142.14,3734.97,2140.76,3720.09,2138.1z"/><path fill="#BAE1FF" d="M3809.32,2048.87c2.66,14.87,4.04,29.74,5.03,44.62c0.94,14.87,1.38,29.74,1.39,44.62
					c0.01,14.87-0.43,29.74-1.37,44.62c-0.99,14.87-2.37,29.74-5.05,44.62c-2.68-14.87-4.06-29.74-5.05-44.62
					c-0.94-14.87-1.38-29.74-1.37-44.62c0.01-14.87,0.45-29.74,1.39-44.62C3805.29,2078.62,3806.67,2063.74,3809.32,2048.87z"/></g><g><path fill="#BAE1FF" d="M3688,1499.35c12.77-2.28,25.54-3.47,38.31-4.32c12.77-0.81,25.54-1.19,38.31-1.19
					c12.77-0.01,25.54,0.37,38.31,1.18c12.77,0.85,25.54,2.04,38.31,4.34c-12.77,2.3-25.54,3.49-38.31,4.34
					c-12.77,0.81-25.54,1.19-38.31,1.18c-12.77-0.01-25.54-0.38-38.31-1.19C3713.55,1502.82,3700.78,1501.64,3688,1499.35z"/><path fill="#BAE1FF" d="M3764.63,1422.72c2.28,12.77,3.47,25.54,4.32,38.31c0.81,12.77,1.19,25.54,1.19,38.31
					c0.01,12.77-0.37,25.54-1.18,38.31c-0.85,12.77-2.04,25.54-4.34,38.31c-2.3-12.77-3.49-25.54-4.34-38.31
					c-0.81-12.77-1.19-25.54-1.18-38.31c0.01-12.77,0.38-25.54,1.19-38.31C3761.16,1448.27,3762.35,1435.49,3764.63,1422.72z"/></g><g><polygon fill="#187FC9" points="1614.49 2885.81 1525.17 2849.31 1501.13 2942.76 1378.9 2699.44 1492.27 2642.49"/><polygon fill="#187FC9" points="1013.19 2686.63 1106.64 2710.67 1070.14 2799.99 1313.45 2677.76 1256.5 2564.4"/><polygon fill="#1271B8" points="1525.17 2849.31 1457.95 2705.41 1402.13 2745.68 1501.13 2942.76"/><polygon fill="#1271B8" points="1100.85 2709.18 1240.39 2639.08 1274.14 2697.51 1070.14 2799.99"/><polygon fill="#86C6F7" points="1562.86 2627.12 1526.62 2654.7 1519.03 2699.6 1474.4 2708.63 1448.1 2745.79 1403.96 2734.64 1364.14 2756.71 1329.24 2727.44 1283.75 2730.07 1264.97 2688.58 1222.9 2671.17 1223.99 2625.65 1193.59 2591.77 1214.31 2551.23 1201.7 2507.48 1237.94 2479.9 1245.53 2435 1290.16 2425.97 1316.47 2388.81 1360.6 2399.96 1400.43 2377.9 1435.33 2407.16 1480.82 2404.53 1499.6 2446.02 1541.66 2463.43 1540.57 2508.95 1570.98 2542.84 1550.25 2583.37"/><polygon fill="#499AD6" points="1513.48 2610.76 1480.64 2623.15 1486.88 2657.69 1451.79 2656.51 1444.31 2690.81 1412.34 2676.33 1392.35 2705.18 1368.36 2679.54 1338.82 2698.5 1326.44 2665.66 1291.89 2671.89 1293.07 2636.81 1258.78 2629.33 1273.26 2597.36 1244.41 2577.36 1270.04 2553.38 1251.09 2523.84 1283.93 2511.46 1277.69 2476.91 1312.78 2478.09 1320.25 2443.79 1352.23 2458.28 1372.22 2429.43 1396.2 2455.06 1425.74 2436.1 1438.13 2468.95 1472.68 2462.71 1471.49 2497.79 1505.79 2505.27 1491.31 2537.25 1520.16 2557.24 1494.53 2581.22"/><polygon fill="#FFF" points="1484.15 2601.04 1458.65 2610.66 1463.49 2637.48 1436.25 2636.57 1430.44 2663.2 1405.61 2651.95 1390.11 2674.35 1371.48 2654.45 1348.54 2669.17 1338.92 2643.67 1312.1 2648.51 1313.01 2621.26 1286.39 2615.46 1297.63 2590.63 1275.24 2575.13 1295.13 2556.5 1280.42 2533.56 1305.92 2523.94 1301.07 2497.12 1328.32 2498.03 1334.13 2471.41 1358.95 2482.65 1374.46 2460.25 1393.08 2480.15 1416.02 2465.44 1425.64 2490.94 1452.47 2486.09 1451.55 2513.34 1478.18 2519.15 1466.93 2543.97 1489.33 2559.47 1469.43 2578.1"/></g><g><path fill="#BAE1FF" d="M1177.82,2549.53c9.44-1.69,18.87-2.56,28.31-3.19c9.44-0.6,18.87-0.88,28.31-0.88
					c9.44-0.01,18.87,0.27,28.31,0.87c9.44,0.63,18.87,1.51,28.31,3.2c-9.44,1.7-18.87,2.58-28.31,3.2
					c-9.44,0.6-18.87,0.88-28.31,0.87c-9.44,0-18.87-0.28-28.31-0.88C1196.69,2552.09,1187.26,2551.21,1177.82,2549.53z"/><path fill="#BAE1FF" d="M1234.44,2492.91c1.69,9.44,2.56,18.87,3.19,28.31c0.6,9.44,0.88,18.87,0.88,28.31
					c0.01,9.44-0.27,18.87-0.87,28.31c-0.63,9.44-1.51,18.87-3.2,28.31c-1.7-9.44-2.58-18.87-3.2-28.31
					c-0.6-9.44-0.88-18.87-0.87-28.31c0-9.44,0.28-18.87,0.88-28.31C1231.87,2511.78,1232.75,2502.35,1234.44,2492.91z"/></g><g><circle cx="1639.81" cy="858.49" r="64.09" fill="#EDF7F7"/></g><g><circle cx="2451.87" cy="1271.15" r="28.1" fill="#FEFFEB"/></g><g><circle cx="2833.32" cy="663.67" r="52.85" fill="#EDF7F7"/></g><g><circle cx="3989.4" cy="1819.75" r="105.64" fill="#EDF7F7"/></g><g><path fill="#A2C7C9" d="M2998.63,3068.65l6.94,22.75c0,0-111.44,65.69-165.14,64.96c-47.03-0.64-100.68-10.42-116.88-25.74
							c-3.09-2.93,2.71-16.65,2.71-16.65s90.85,24.09,120.02,19.24S2998.63,3068.65,2998.63,3068.65z"/><path fill="#323969" d="M2840.53,3136.49c-54.8-1.69-114.12-20.24-114.12-20.24s-4.25-7.78-4.62-18.13
							c-0.02-0.32-0.04-0.7-0.04-1.12c-0.19-19.78,14.34-48.08,97.47-50.61c0,0,34.89-33.11,45.96-36.42
							c0.92-0.27,2.24-0.74,3.93-1.34c18.98-6.83,83.66-31.72,105.89,1.7c0,0,26.68,57.5,24.95,66.9
							C2998.22,3086.62,2895.32,3138.16,2840.53,3136.49z"/><path fill="#262C52" d="M2866.84,3075.64c-1.76-0.45-35.53-8.97-44.95-14.34c-9.67-5.53-62.29,2.79-73.86,12.21
							c-11.36,9.27-25.74,25.43-26.16,25.92c-0.03-0.14-0.04-0.58-0.09-1.31c-0.02-0.32-0.04-0.7-0.04-1.12
							c-0.19-19.78,14.34-48.08,97.47-50.61c0,0,34.89-33.11,45.96-36.42c0.92-0.27,2.24-0.74,3.93-1.34
							c1.1,1.45,1.94,3.19,2.45,5.19c0.65,2.42-27.14,24.41-32.06,35.5C2834.72,3060.09,2865.25,3074.88,2866.84,3075.64z"/><path fill="#FFAC78" d="M2831.47,2908.29l37.77,113.89c28.35,19.38,56.7,13.25,85.05-5.43l-12.58-159.29L2831.47,2908.29z"/><path fill="#3C75AD" d="M2955.18,2573.97l23.16,331.33c14.1,23.23-135.8,57.84-166.62,10.85
							c-10.72-16.34-23.9-415.08-23.9-415.08L2955.18,2573.97z"/><path fill="#A2C7C9" d="M3669.47,2660.98l24.05,2.84c0,0,17.05,126.33-5.05,174.29c-19.36,42.01-49.9,86.31-70.7,94.75
							c-3.97,1.61-14.5-9.08-14.5-9.08s58.78-72.03,65.87-100.17S3669.47,2660.98,3669.47,2660.98z"/><path fill="#323969" d="M3669.92,2830.1c-23.44,48.57-64.46,94.47-64.46,94.47s-8.97,0.71-18.81-3.08
							c-0.31-0.11-0.67-0.25-1.06-0.41c-18.59-7.72-39.28-32.06-8.5-107.77c0,0-17.07-44.56-15.76-55.82
							c0.11-0.93,0.2-2.31,0.31-4.07c1.18-19.78,3.67-87.82,43.82-94.47c0,0,64.46-1.04,72.56,4.26
							C3686.12,2668.52,3693.33,2781.53,3669.92,2830.1z"/><path fill="#262C52" d="M3623.46,2782.19c-1.12,1.4-22.57,28.35-31.34,34.67c-9.03,6.48-22.23,57.08-18.03,71.23
							c4.15,13.9,13.54,33.27,13.82,33.84c-0.14-0.03-0.56-0.19-1.26-0.44c-0.31-0.11-0.67-0.25-1.06-0.41
							c-18.59-7.72-39.28-32.06-8.5-107.77c0,0-17.07-44.56-15.76-55.82c0.11-0.93,0.2-2.31,0.31-4.07
							c1.79-0.41,3.76-0.47,5.83-0.14c2.52,0.38,12.03,34.12,20.44,42.96C3596.1,2804.86,3622.12,2783.32,3623.46,2782.19z"/><path fill="#FFAC78" d="M3452.72,2747.24l121.66,11.48c29.45-17.75,35.01-45.67,28.84-78.59l-154.1-52.21L3452.72,2747.24z"/><path fill="#3C75AD" d="M3230.09,2469.67l285.71,178.67c27.44,2.7-33.23,141.39-90.12,137.75
							c-19.78-1.27-354.89-227.86-354.89-227.86L3230.09,2469.67z"/><path fill="#E32E2E" d="M2949.95,1179.92c6.42,7.48,126.09,92.93,144.11,144.03c18.02,51.11-8.41,112.57-73.59,160.43
						s-292.08,2.76-337.07,46.13c-44.99,43.37-117.01,3.49-160.47-51.25s-73-176.41,71.89-189.87s126.3-161.97,150.28-177.81
						C2769.08,1095.74,2877.93,1096.04,2949.95,1179.92z"/><path fill="#CF2A2A" d="M2729.99,1231.14c0,0,23.43,79.9,17.12,109.7c-6.31,29.81-200.89,60.19-131.3,163.23
						c61.26,90.7,454.82-114.83,447.61-140.9c-7.21-26.07-110.84-69.34-108.14-88.76c2.7-19.43-7.26-57.92-9.75-77.77
						S2763.34,1156.08,2729.99,1231.14z"/><path fill="#323969" d="M2803.27,1670.23c-26.49,72-58.74,135.1-97.82,187.74c-35.91,48.43-77.58,88.02-125.8,117.52
						l-99.58-84.75l231.58-463.43C2830.3,1440.69,2803.27,1670.23,2803.27,1670.23z"/><path fill="#FFAC78" d="M3299.53,901.78c0,0,26.01-59.56,12.1-92.25c0,0-52.65,3.51-60.76,9.25c-8.11,5.74,2.7,76.38,5.41,83
						C3258.97,908.4,3282.81,914.32,3299.53,901.78z"/><path fill="#1C1F3B" d="M2705.45,1857.97c-35.91,48.43-77.58,88.02-125.8,117.52l-3.59-38.93l46.11-16.82
						c0,0,35.12-20.77,49.75-212.69C2673.39,1687.87,2695.39,1846.82,2705.45,1857.97z"/><path fill="#E68869" d="M3296.37,880.13c0,0-4.38,6.95-17.51,6.13c-13.13-0.82-24.02-13.88-24.02-13.88L3296.37,880.13z"/><path fill="#D99266" d="M3311.6,816.54c0,0,0.94,0.53,1.39,3.51c0.65,4.29-5.91,10.98-5.91,10.98S3303.85,815.96,3311.6,816.54
						z"/><path fill="#323969" d="M3344.59,2392.28c0,0-284.99,303.33-698.49,262.98c-5.05-0.47-10.12-1.02-15.22-1.62
						c0,0,36.03-694.03,41.44-761.14c5.41-67.11-20.44-373.8,47.77-480.36c0,0,22.21-42.39,83.18-52.09
						c61.01-9.72,137.6-36.1,137.6-36.1s107.57,77.99,176.15,190.26c5.41,8.82,10.57,17.86,15.39,27.09
						c14.89,28.35,26.8,58.49,33.73,89.83c6.48,29.31,13.93,68.73,22.01,114.14c8.58,48.21,17.8,103.13,27.19,159.77
						c0.03,0,0.03,0.03,0.03,0.03c33.45,201.61,69,424.75,84.16,443.05C3322.95,2376.37,3344.59,2392.28,3344.59,2392.28z"/><path fill="#F7EBEB" d="M2771.16,1368.94l62.88,203.48h6.87l109.04-249.6l-9.08,1.14l-46.94,14.7l-87.47,20.88
						C2806.47,1359.54,2783.71,1363.5,2771.16,1368.94z"/><path fill="#FFAC78" d="M2902.91,1280.15l-12.5,73.73c-20.41,23.27-42.14,28.3-57.47,27.86c-12.2-0.33-20.35-4.09-20.63-4.89
						c-0.59-1.79-26.47-74.53-26.47-74.53l77.13-0.41L2902.91,1280.15z"/><path fill="#252B4F" d="M2680.88,1038.5c1.8-0.59,171.82-95.36,171.82-95.36l229.5,153.05l-219.88,97.72L2680.88,1038.5z"/><path fill="#313969" d="M3079.04,1103.7l-198.3,88.13l-21.59,9.59l-46.54-39.86l-61.76-52.91l-73.12-62.63
							c1.79-0.6,171.83-95.38,171.83-95.38l9.31,6.21L3079.04,1103.7z"/><path fill="#2B325C" d="M3079.04,1103.7l-198.3,88.13c-23.61-8.87-46.99-19.56-68.13-30.27l-61.76-52.91
							c47.46,5.44,146.8,20.63,161.18-12.47c15.31-35.16-31.82-108.84-53.16-139.33L3079.04,1103.7z"/><polygon fill="#252B4F" points="2677.73 1046 2681.09 1038.4 2685.04 1042.06"/><polygon fill="#252B4F" points="3082.2 1096.19 3079.04 1103.69 3073.75 1099.94"/><path fill="#FCA183" d="M2901.72,1287.18l-11.31,66.7c-20.41,23.27-42.14,28.3-57.47,27.86l-8.01-0.74
						c0,0,62.09-32.88,62.32-40.16c0.16-5.09-26.76-4.22-42.82-3.25c-11.48,0.69-23.01-2.3-32.16-9.13
						c-3.81-2.84-7.12-6.28-8.81-10.32c-2.94-7.03,35.4-10.33,59.51-16.23L2901.72,1287.18z"/><path fill="#FFAC78" d="M2752.82,1101.93c0,0-30.04,98.9-26.43,142.46c3.6,43.56,70.48,74.48,134.16,62.7
						c63.68-11.77,88.12-92.14,89.32-99.2C2951.08,1200.82,2939.06,1086.62,2752.82,1101.93z"/><path fill="#FFAC78" d="M3338.14,1165.1c0,0-113.77-11.88-113.11-17.25c0.64-5.23,7.97-226.75,8.4-239.6
						c0.02-0.38,0.02-0.58,0.02-0.58l7.06-0.63l39.27-3.49l19.74-1.76L3338.14,1165.1z"/><path fill="#E32E2E" d="M2891.62,1144.1c0,0-15.5,61.3-10.08,82.85c5.42,21.55,38.13-20.66,32.83,25.14
						c-5.3,45.79,6.67,65.78,26.88,28.07s6.78-86.24,6.78-86.24S2905.91,1139.37,2891.62,1144.1z"/><path fill="#E32E2E" d="M2893.14,1158.09c0,0-41.36-20.01-48.77-34.25c0,0-53.81,5.23-53.29,2.57s-5.67-14.78,6.7-17.81
						c12.37-3.03,95.88,27.58,100.52,35.25C2902.93,1151.52,2893.14,1158.09,2893.14,1158.09z"/><path fill="#E32E2E" d="M2803.28,1119.87c-0.12,2.74-17.69,18.5-49.67,41.08c-31.98,22.58-31.62,72.06-41.93,74.08
						c-10.31,2.02,12.1-112.45,32.17-120.2C2763.93,1107.07,2804.15,1100.34,2803.28,1119.87z"/><path fill="#262D52" d="M2952.96,1211.3c0,0-26.05-73.32-130.87-92.69c-22.32-4.12-48.22-5.8-78.22-3.79
						c10.71-29.31,27.28-49.86,55.2-71.59c0,0,62.38-10.33,113.77,19.34c0.03,0.03,0.03,0.03,0.06,0.05
						c19.65,11.35,37.71,28.54,50.02,54.45C2965.8,1145.73,2959.85,1178.31,2952.96,1211.3z"/><path fill="#323969" d="M3405.07,1375.99c0,0,0,0-0.03,0.03c-21,49.39-50.16,99.33-74.41,137.44
						c-25.43,39.97-74.41,59.09-120.95,47.36l-77.27-19.5l-38.35-9.67c0,0-21.62-11.04-49.01-29.53c-1.26-0.85-2.3-1.57-3.08-2.12
						c-0.5-0.36-0.93-0.63-1.18-0.82c-0.11-0.08-0.25-0.16-0.36-0.25c-0.03-0.03-0.06-0.03-0.06-0.03
						c-55.65-38.54-130.51-106.04-99.5-174.93c80.38-10.85,162.89-1.1,247.81,32.55l36.33-208.67c0,0,70.9-20,179.04,53.57
						C3449.31,1232.21,3435.93,1303.5,3405.07,1375.99z"/><polygon fill="#E1E8F2" points="3444.31 883.93 3037.59 873.5 3038.19 814.07 3444.31 821.89"/><ellipse cx="3038.94" cy="843.79" fill="#E1E8F2" rx="18.47" ry="29.58"/><ellipse cx="3444.31" cy="853.04" fill="#E1E8F2" rx="19.41" ry="31.08"/><path fill="#FFAC78" d="M3309.13,821.93c0,0.03-0.03,0.08-0.06,0.11c-0.78,1.1-1.71,2.09-2.77,2.91
						c-0.08,0.05-0.2,0.14-0.31,0.22c-0.03,0.03-0.06,0.05-0.08,0.05c-7.93,5.19-63.08,21.73-87.22-6.87l-0.03-0.03
						c0,0,0.64-8.1,5.44-13.93c0.03-0.03,0.03-0.05,0.03-0.05c2.13-2.58,5.1-4.7,9.17-5.44c13.29-2.42,71.63,3.98,76.15,7.28
						C3313.16,808.94,3312.88,816.6,3309.13,821.93z"/><path fill="#E68869" d="M3309.18,821.9c-0.06,0.05-0.08,0.08-0.11,0.14c-1.04,1.1-2.07,2.12-3.08,3.13
						c-0.03,0.03-0.06,0.05-0.08,0.05c-7.93,5.19-63.08,21.73-87.22-6.87c1.26-5.74,5.07-13.27,5.41-13.96
						c0.03-0.03,0.03-0.05,0.03-0.05l5.1,15.74c0,0,8.58,7.09,25.63,9.86c16.65,2.75,52.62-7.55,54.28-8.02
						C3309.15,821.9,3309.18,821.9,3309.18,821.9z"/><path fill="#FFAC78" d="M3285.41,897.81c-0.18,1.38-2.26,3.52-5.63,5.74c-3.13,2.07-7.34,4.21-12.12,5.92
						c-1.01,0.36-2.05,0.69-3.09,1.02c-4.01,1.19-8.31,2.03-12.61,2.22c-6.51,0.31-13.01-0.86-18.52-4.46
						c-3.87-2.5-7.25-6.19-9.81-11.41c0,0-55.99-38.67-6.03-90.65c0,0,10.52-12.96,8.64,16.77c-0.21,2.88-0.4,5.58-0.62,8.08v0.02
						c-0.03,0.28-0.03,0.55-0.05,0.83c-1.94,22.77-3.21,30.96,22.34,40.53c12.62,4.68,21.55,8.89,27.54,12.68
						C3283.02,889.92,3285.86,894.1,3285.41,897.81z"/><path fill="#E68869" d="M3276.55,886.32c-21.64-12.36-48.45-10.14-52.93-23.63c-4.01-11.98,1.12-27.09,1.93-30.82
						c-1.93,22.77-3.2,30.96,22.35,40.52c12.62,4.7,21.56,8.9,27.53,12.69L3276.55,886.32z"/><path fill="#E68869" d="M3225.03,1147.85c0.64-5.23,7.97-226.75,8.4-239.6c-3.87-2.5-7.25-6.19-9.81-11.41
						c0,0,6.77,6.77,16.89,10.2c1.17,0.39,2.41,0.75,3.67,1.04c8.07,1.84,17.83,1.7,23.48,1.4c2.84-0.16,4.62-0.35,4.62-0.35
						l-7.71,1.37l-12.61,2.22l-12.41,2.18c0,0,0.31,185.44,8.4,197.57c8.08,12.12,74.35,46.51,74.35,46.51L3225.03,1147.85z"/><path fill="#292F57" d="M3322.29,1158.97l-82.24,6.13l-27.94,207.31l12.91,60.93c0,0-24.9-70.7-147.05-107.64
						c0,0,62.05,4.91,110.71,30.82l36.35-208.68C3225.03,1147.84,3257.34,1137.73,3322.29,1158.97z"/><path fill="#292F57" d="M3405.04,1376.02c-21,49.39-50.16,99.33-74.41,137.44c-25.43,39.97-74.41,59.09-120.95,47.36
						l-77.27-19.5c14.89,28.35,26.8,58.49,33.73,89.83c13.34,60.44,30.98,163.97,49.2,273.91
						c-49.29-85.19-105.67-361.63-108.08-361.63c-1.99,0-47.35-31.07-62.21-41.32c-1.26-0.85-2.3-1.57-3.08-2.12
						c-0.5-0.36-0.93-0.63-1.18-0.82c-0.11-0.08-0.25-0.16-0.36-0.25c1.63,0.33,35.05,7.5,76.59,15.3
						c66,12.44,152.43,26.59,164.49,18.02C3301.17,1518.21,3403.36,1378.33,3405.04,1376.02z"/><ellipse cx="2529.35" cy="1934.28" fill="#292F57" rx="35.65" ry="66.04" transform="rotate(-50.726 2529.43 1934.352)"/><path fill="#FFAC78" d="M2571.22,1926.67l-109.45,97.74l-6.98,6.21l-10.46,9.34l-46.43-52.99l5.07-5.96l75.61-88.95
							c22.35-14.09,47.3-3.21,65.66,9.97C2560.23,1913.49,2571.22,1926.67,2571.22,1926.67z"/><path fill="#FFAC78" d="M2426.72,2138.23c-0.48,0.69-0.98,1.4-1.49,2.09c-4.04,5.63-8.24,7.97-11.49,7.97
							c-0.03,0-0.06,0-0.06,0c-0.36,0-0.73-0.03-1.07-0.11c-3.87-0.71-5.83-5.19-3.28-11.24c8.58-20.19,9.76-35.03,9.76-35.03
							s-21.34,36.65-41.16,50.77c-19.82,14.15-21.34-3.82-8.1-19.42c4.21-4.97,27.22-37.94,28.88-40.33
							c-2.38,2.56-40.43,43.79-53.8,50.63c-13.82,7.06-17.55-12.61-7.23-20.6c27.5-21.24,45.42-43.29,46.51-44.67
							c-1.65,1.21-41.38,30.66-58.37,35.19c-17.35,4.62-18.08-10.77-4.74-21.43c22.99-18.32,54.53-49.45,54.53-49.45l13.29-21.84
							c0,0-12.84-4.86-24.11,6.18c-11.24,11.04-27.78,3.79-25.9-0.22c14.44-30.63,47.94-45.02,64.09-45.71
							c11.44-0.47,29.58,8.98,43.99,23.65l0.03,0.03v0.03c5.75,5.82,10.88,12.5,14.77,19.7c0.08,0.17,0.2,0.36,0.28,0.52
							C2462.04,2024.94,2473.09,2072.21,2426.72,2138.23z"/><path fill="#292F57" d="M3344.59,2392.28c0,0-284.99,303.33-698.49,262.98c36.03-60.77,416.14-123.62,487.61-149.08
						c89.21-31.78,140.6-127.14,110.85-241.06c-29.75-113.9-87.17-521.67-87.17-521.67c10.54-0.74,20.78-0.08,30.76,1.84
						c8.58,48.21,17.8,103.13,27.19,159.77c0.03,0,0.03,0.03,0.03,0.03c33.45,201.61,69,424.75,84.16,443.05
						C3322.95,2376.37,3344.59,2392.28,3344.59,2392.28z"/><path fill="#E68869" d="M2462.04,2024.94c0,0,11.05,47.28-35.33,113.29c-6.09,10.17-11.94,9.7-12.98,10.05
						c-0.03,0-0.06,0-0.06,0c-0.7,0.16-1.07,0.16-1.07-0.11c-0.17-1.29,7.09-8.19,18.64-26.1c13.96-21.62,26.13-72.85,23.89-89.17
						c-0.11-0.77-0.22-1.54-0.36-2.28c-2.35-14.53-7.37-25.08-7.79-25.9v-0.03l9.95,5.25l95.21-87.41l-7.91-20.49
						c15.98,11.46,26.97,24.64,26.97,24.64l-109.45,97.74C2461.85,2024.58,2461.96,2024.77,2462.04,2024.94z"/><path fill="#E68869" d="M2312.24,2109.74c0,0,7.87,5.06,38.14-11.72c21.35-11.84,35.15-28.62,35.15-28.62s-0.79,8.26-2.09,9.8
						C2382.14,2080.75,2320.74,2130.51,2312.24,2109.74z"/><path fill="#E68869" d="M2401.67,2080.87c-0.9,1.47-44.28,52.65-55.57,57.54c-11.29,4.89-13.56,1.43-13.56,1.43
						s-6.87,6.22,3.64,7.84c10.51,1.62,60.32-50.5,62.52-54.76C2400.92,2088.67,2401.67,2080.87,2401.67,2080.87z"/><path fill="#E68869" d="M2420.59,2092.1c0,0-31.39,43.96-41.6,52.79c-10.21,8.83-16.35,9.78-16.66,11.07s7.65,5.26,10.35,4.97
						C2375.39,2160.64,2422.1,2112.45,2420.59,2092.1z"/><path fill="#E68869" d="M2359.74,2030.6c0,0-0.92-7.3,10.8-12.16s19.83-6.51,23.88-3.97c4.06,2.54-14.18,20.52-14.18,20.52
						l7.87-14.12C2388.11,2020.86,2374.85,2015.05,2359.74,2030.6z"/><path fill="#FFD560" d="M2776.76,1366.98l64.83,197.25l99.28-240.27c15.66-2.03,30.71-3.42,44.89-3.89
						c0,0-104.05,295.92-143.13,301.68c-49.17,7.24-97.25-237.45-97.25-237.45S2759.95,1372.01,2776.76,1366.98z"/><path fill="#A20004" d="M2838.95,1600.09c-0.97,0-1.79-0.21-2.41-0.45c-4.22-1.64-15.42-6-50.96-115.64
							c-17.3-53.39-31.83-105.37-31.98-105.9l7.04-4.11c0.15,0.53,15.33,54.42,32.59,107.66c30.5,94.09,42.42,108.46,45.85,110.48
							c3.7-1.64,18.34-17.1,66.4-137.14c26.78-66.9,50.3-132.16,50.54-132.82l8.68-0.81c-0.24,0.66-24.47,68.22-51,134.61
							c-54.21,135.68-66.79,141.28-71.52,143.39C2840.97,1599.9,2839.88,1600.09,2838.95,1600.09z"/><polygon fill="#E6DADA" points="2835.78 1362.68 2838.76 1386.64 2847.52 1386.64"/><path fill="#E6DADA" d="M2791.72,1369.39c0,0,15.38,48.56,28.63,51.59s61.45-41.12,65.58-46.32c4.12-5.2,22.3-32.26,22.3-32.26
					l-71.01,39.36c0,0-3-0.13-6.71-0.52c-4.69-0.49-10.52-1.39-12.85-2.94c-4.16-2.78-18.08-9.85-18.08-9.85L2791.72,1369.39z"/><polygon fill="#FFF" points="2896.78 1316.32 2835.78 1362.68 2851.08 1400.87 2919.41 1330.95"/><polygon fill="#FFF" points="2811.02 1401.73 2823.04 1363.65 2801.29 1345.81 2788.19 1363.49"/><g><polygon fill="#E6DADA" points="2823.04 1363.65 2823.04 1383.1 2817.66 1380.68"/></g></g></svg>