<svg xmlns="http://www.w3.org/2000/svg" data-name="1" viewBox="0 0 835.27 1000"><g data-name="93"><ellipse cx="395.93" cy="868.34" fill="#ffe8e1" rx="170.38" ry="34.59"/><path fill="#ffe8e1" d="M730.83 566c15.63-33.39 47.68-58.34 57.34-93.93 6.83-25.14 1.35-51.79-4.14-77.27-5.72-26.48-18.54-58.82-17.72-85.92.67-22 13.34-44.29 17-66.3 3.61-21.86 1.17-46.93-15.16-61.91-15-13.73-38-15.23-57.49-9.65S674 188.1 656.4 198.27a436.7 436.7 0 0 1-256 56.59c-45.73-4.12-91.11-15.5-136.94-12.72-71.24 4.32-139.26 45.23-176.46 106.1S44.37 488.3 73 553.66c11.56 26.42 28.65 52.3 27.31 81.1-1.06 22.85-13 42.07-22 62.1-9.25 20.53-7 47 2.67 66.91A85.24 85.24 0 0 0 135 808.34c31.14 8.27 63.75-1.8 95.27-8.42 52-10.93 102.39-23.39 156-26a658.07 658.07 0 0 1 171.26 14c22.78 4.94 46 11.12 69.07 8.05 30.64-4.08 64.9-29.92 79.89-56.74 12.95-23.16 13.53-52.73 12.27-78.61-1.6-31.94-1.76-65.07 12.07-94.62Z"/><path fill="#8abae7" d="m652.23 660.86 11.15-12.12 95.19 77.05-21.64 23.52-84.7-88.45z"/><path fill="#8abae7" d="m647.23 680.38 35.86-38.98-60.29-18.81 24.43 57.79zM681.9 316.64l-13.83-8.95 59.9-106.82 26.83 17.37-72.9 98.4z"/><path fill="#8abae7" d="m701.98 318.28-44.46-28.78-8.38 62.6 52.84-33.82z"/><path fill="#d8e5f3" d="M619.77 643.73 447.92 588a3.72 3.72 0 0 1-2.39-4.7L522.18 347a3.73 3.73 0 0 1 4.7-2.39l171.85 55.76a3.71 3.71 0 0 1 2.39 4.69l-76.65 236.28a3.73 3.73 0 0 1-4.7 2.39Z"/><path d="M610.55 642.6a22.68 22.68 0 0 1-7-1.11l-141.18-45.81a22.7 22.7 0 0 1-14.6-28.61l66.71-205.61a22.75 22.75 0 0 1 28.61-14.6l141.19 45.81a22.7 22.7 0 0 1 14.6 28.61l-66.71 205.61a22.76 22.76 0 0 1-21.62 15.71Zm-5.22-6.6a17 17 0 0 0 21.38-10.91l66.71-205.61a17 17 0 0 0-10.91-21.38l-141.19-45.78a17 17 0 0 0-21.38 10.91l-66.71 205.61a17 17 0 0 0 10.91 21.38Z"/><path fill="#fff" d="M494.73 380.8h157.19v226.75H494.73z" transform="rotate(18.2 571.963 489.974)"/><path fill="#d8e5f3" d="M562.69 371.82h91.64v27.84h-91.64z" transform="rotate(18.2 606.639 381.961)"/><path d="M647.79 416a2.7 2.7 0 0 1-.88-.14l-87.17-28.28a2.86 2.86 0 0 1-1.67-1.42 2.92 2.92 0 0 1-.17-2.19l8.59-26.48a2.87 2.87 0 0 1 3.62-1.84l87.16 28.28a2.85 2.85 0 0 1 1.84 3.61L650.52 414a2.85 2.85 0 0 1-2.73 2Zm-83.54-33L646 409.5l6.82-21-81.75-26.5Z"/><path fill="#d8e5f3" d="M536.99 404.9h25.86v25.86h-25.86z" transform="rotate(17.98 549.813 417.706)"/><path d="M558.23 437a3 3 0 0 1-.88-.14l-24.6-8a2.86 2.86 0 0 1-1.85-3.61l8-24.6a2.88 2.88 0 0 1 3.62-1.85l24.6 8a2.86 2.86 0 0 1 1.84 3.61L561 435a2.87 2.87 0 0 1-2.77 2Zm-21-12.7 19.14 6.21 6.21-19.14-19.14-6.21Z"/><path fill="#d8e5f3" d="M522.81 448.6h25.86v25.86h-25.86z" transform="rotate(17.98 535.633 461.383)"/><path d="M544.06 480.69a2.76 2.76 0 0 1-.89-.14l-24.6-8a2.86 2.86 0 0 1-1.84-3.61l8-24.61a2.87 2.87 0 0 1 3.61-1.84l24.6 8a2.87 2.87 0 0 1 1.85 3.62l-8 24.6a2.88 2.88 0 0 1-2.73 1.98Zm-21-12.69 19.14 6.21 6.21-19.14-19.14-6.22Z"/><path fill="#d8e5f3" d="M508.45 492.89h25.86v25.86h-25.86z" transform="rotate(17.98 521.26 505.674)"/><path d="M529.69 525a2.76 2.76 0 0 1-.89-.14l-24.6-8a2.87 2.87 0 0 1-1.84-3.62l8-24.6a2.86 2.86 0 0 1 3.64-1.84l24.61 8a2.88 2.88 0 0 1 1.84 3.62l-8 24.6a2.88 2.88 0 0 1-2.76 1.98Zm-21-12.69 19.14 6.21 6.21-19.15-19.14-6.21Z"/><path fill="#d8e5f3" d="M494.08 537.18h25.86v25.86h-25.86z" transform="rotate(17.97 507.107 550.25)"/><path d="M515.32 569.27a3 3 0 0 1-.89-.14l-24.6-8a2.87 2.87 0 0 1-1.84-3.62l8-24.6a2.87 2.87 0 0 1 3.61-1.84l24.61 8a2.87 2.87 0 0 1 1.84 3.61l-8 24.61a2.91 2.91 0 0 1-1.43 1.67 2.8 2.8 0 0 1-1.3.31Zm-21-12.7 19.15 6.22 6.21-19.15-19.15-6.21Z"/><path fill="#d8e5f3" d="m585 429.21 56 18.17Z"/><path d="M641 450.25a3 3 0 0 1-.88-.14l-56-18.17a2.87 2.87 0 0 1 1.77-5.46l56 18.17a2.87 2.87 0 0 1-.89 5.6Z"/><path fill="#d8e5f3" d="m570.82 472.91 56 18.17Z"/><path d="M626.81 494a2.77 2.77 0 0 1-.89-.15l-56-18.16a2.87 2.87 0 0 1 1.77-5.46l56 18.17a2.87 2.87 0 0 1-.88 5.6Z"/><path fill="#d8e5f3" d="m556.64 516.61 56 18.16Z"/><path d="M612.63 537.64a2.8 2.8 0 0 1-.89-.14l-56-18.16a2.87 2.87 0 1 1 1.77-5.46l56 18.16a2.87 2.87 0 0 1-.88 5.6Z"/><path fill="#d8e5f3" d="m542.46 560.3 56 18.17Z"/><path d="M598.45 581.34a3 3 0 0 1-.88-.14l-56-18.17a2.87 2.87 0 0 1 1.77-5.46l56 18.17a2.87 2.87 0 0 1-.89 5.6ZM225.55 649.13a1.39 1.39 0 0 1-1.39-1.4V546.37a1.4 1.4 0 0 1 2.79 0v101.36a1.39 1.39 0 0 1-1.4 1.4ZM215.41 598.45a1.4 1.4 0 0 1-1.4-1.4v-66a1.4 1.4 0 0 1 2.8 0v66a1.4 1.4 0 0 1-1.4 1.4Z"/><path fill="#fff" d="m210.49 603.74 8.29 8.3Z"/><path d="M218.78 613.44a1.4 1.4 0 0 1-1-.41l-8.3-8.3a1.39 1.39 0 0 1 0-2 1.41 1.41 0 0 1 2 0l8.29 8.3a1.4 1.4 0 0 1-1 2.39Z"/><path fill="#fff" d="m218.78 603.74-8.29 8.3Z"/><path d="M210.49 613.44a1.4 1.4 0 0 1-1-2.39l8.3-8.3a1.4 1.4 0 1 1 2 2l-8.29 8.3a1.44 1.44 0 0 1-1.01.39ZM733.63 655a1.4 1.4 0 0 1-1.39-1.32c-2.47-43.33 8.39-73.47 17.94-91.12 10.39-19.2 21.23-28 21.69-28.36a1.4 1.4 0 1 1 1.75 2.18c-.11.09-10.94 8.9-21.06 27.65-9.33 17.32-20 46.9-17.53 89.49a1.41 1.41 0 0 1-1.32 1.48Z"/><path d="M743.13 634.47a1.4 1.4 0 0 1-1.4-1.4c0-26.81 7.47-46.63 13.75-58.53 6.82-12.95 13.57-19.46 13.85-19.73a1.4 1.4 0 0 1 1.94 2c-.27.26-26.75 26.15-26.75 76.24a1.4 1.4 0 0 1-1.39 1.42ZM780.57 554.78a5.8 5.8 0 1 1 5.79-5.8 5.81 5.81 0 0 1-5.79 5.8Zm0-8.8a3 3 0 1 0 3 3 3 3 0 0 0-3-2.98Z"/><path fill="#4666c9" d="M331.24 632.28a7 7 0 1 1 7-7 7 7 0 0 1-7 7Zm0-11.28a4.24 4.24 0 1 0 4.24 4.24 4.26 4.26 0 0 0-4.24-4.24Z"/><path d="M45.32 424.89h-.3A1.39 1.39 0 0 1 44 423.2a293.81 293.81 0 0 1 18.8-53.7c12.43-27 34.51-63.9 69.12-86.39a1.4 1.4 0 1 1 1.53 2.34c-34 22.12-55.81 58.52-68.08 85.16a291.6 291.6 0 0 0-18.69 53.18 1.39 1.39 0 0 1-1.36 1.1ZM54.76 367.37a1.43 1.43 0 0 1-.5-.09 1.4 1.4 0 0 1-.81-1.8c.17-.45 17.44-45.11 52.2-75.14a1.39 1.39 0 1 1 1.82 2.11C73.26 322 56.23 366 56.06 366.47a1.39 1.39 0 0 1-1.3.9Z"/><path fill="#fff" d="m132.25 557.76-25.81-14.39 25.37-15.15.44 29.54z"/><path fill="#4666c9" d="M128.09 551.33a1.38 1.38 0 0 1-.68-.18l-25.8-14.39a1.39 1.39 0 0 1-.72-1.2 1.44 1.44 0 0 1 .68-1.22l25.37-15.15a1.4 1.4 0 0 1 2.11 1.18l.44 29.54a1.38 1.38 0 0 1-.68 1.22 1.42 1.42 0 0 1-.72.2Zm-23-15.83 21.57 12-.37-24.69ZM756.71 387.69a11 11 0 1 1 11-11 11 11 0 0 1-11 11Zm0-19.18a8.19 8.19 0 1 0 8.19 8.19 8.2 8.2 0 0 0-8.19-8.19Z"/><path fill="#4666c9" d="M740.48 396.38a1.41 1.41 0 0 1-1.05-2.33l16.24-18.28a1.4 1.4 0 0 1 2.09 1.86l-16.24 18.28a1.39 1.39 0 0 1-1.04.47ZM166.91 533.18a1.4 1.4 0 0 1-1-.41l-10.36-10.37a1.4 1.4 0 0 1 2-2l10.37 10.37a1.4 1.4 0 0 1-1 2.39Z"/><path fill="#4666c9" d="M156.53 533.18a1.4 1.4 0 0 1-1-2.39l10.37-10.37a1.4 1.4 0 0 1 2 2l-10.37 10.37a1.4 1.4 0 0 1-1 .39ZM602.61 751.21a7.66 7.66 0 1 1 7.66-7.65 7.66 7.66 0 0 1-7.66 7.65Zm0-12.52a4.87 4.87 0 1 0 4.86 4.87 4.87 4.87 0 0 0-4.86-4.87Z"/><path d="M608.48 208.87a1.4 1.4 0 0 1-.4-2.74c19.47-5.73 38.1-16.27 56.12-26.46 31.51-17.82 61.28-34.65 89.4-21.61a1.4 1.4 0 1 1-1.18 2.54c-26.82-12.44-56 4.05-86.84 21.5-18.16 10.27-36.93 20.89-56.71 26.72a1.31 1.31 0 0 1-.39.05Z"/><path d="M664.68 171.66a1.4 1.4 0 0 1-.81-2.55A175.29 175.29 0 0 1 692 153.79c14.95-6.43 36.72-12.95 55.53-7.54a1.41 1.41 0 0 1 1 1.74 1.39 1.39 0 0 1-1.73.95c-34.58-10-80.8 22.14-81.26 22.46a1.44 1.44 0 0 1-.86.26Z"/><circle cx="153.63" cy="710.68" r="31" fill="#f57a3e" transform="rotate(-67.5 153.632 710.677)"/><path fill="#f57a3e" d="M153.63 676.05a1.16 1.16 0 0 1-1.16-1.16v-18.73a1.16 1.16 0 0 1 2.32 0v18.73a1.16 1.16 0 0 1-1.16 1.16ZM119.59 700.78a1.12 1.12 0 0 1-.36 0l-17.81-5.79a1.18 1.18 0 0 1-.75-1.47 1.16 1.16 0 0 1 1.47-.74l17.86 5.73a1.16 1.16 0 0 1-.36 2.27ZM121.58 756a1.16 1.16 0 0 1-.94-1.85l11-15.15a1.16 1.16 0 1 1 1.88 1.37l-11 15.15a1.19 1.19 0 0 1-.94.48ZM185.67 756a1.17 1.17 0 0 1-.94-.48l-11-15.15a1.17 1.17 0 1 1 1.89-1.37l11 15.15a1.16 1.16 0 0 1-1 1.85ZM187.67 700.78a1.16 1.16 0 0 1-.36-2.27l17.81-5.78a1.16 1.16 0 0 1 1.47.74 1.18 1.18 0 0 1-.75 1.47L188 700.73a1.12 1.12 0 0 1-.33.05ZM135.73 680.85a1.15 1.15 0 0 1-1-.58l-4.73-8.11a1.17 1.17 0 0 1 2-1.17l4.68 8.11a1.17 1.17 0 0 1-1 1.75ZM122.63 694a1.13 1.13 0 0 1-.58-.16l-8.11-4.68a1.17 1.17 0 0 1-.42-1.59 1.15 1.15 0 0 1 1.59-.42l8.11 4.68a1.16 1.16 0 0 1-.59 2.17ZM117.84 711.84h-9.37a1.16 1.16 0 0 1 0-2.32h9.37a1.16 1.16 0 1 1 0 2.32ZM114.53 734.42a1.15 1.15 0 0 1-1-.58 1.17 1.17 0 0 1 .42-1.59l8.11-4.68a1.16 1.16 0 1 1 1.17 2l-8.11 4.68a1.16 1.16 0 0 1-.59.17ZM131.05 751a1.1 1.1 0 0 1-.58-.16 1.16 1.16 0 0 1-.43-1.59l4.69-8.11a1.16 1.16 0 0 1 2 1.17l-4.68 8.11a1.18 1.18 0 0 1-1 .58ZM153.63 757a1.16 1.16 0 0 1-1.16-1.17v-9.36a1.16 1.16 0 1 1 2.32 0v9.36a1.16 1.16 0 0 1-1.16 1.17ZM176.21 751a1.17 1.17 0 0 1-1-.58l-4.68-8.11a1.16 1.16 0 0 1 2-1.17l4.68 8.11a1.17 1.17 0 0 1-1 1.75ZM192.73 734.42a1.16 1.16 0 0 1-.58-.16l-8.15-4.68a1.16 1.16 0 0 1 1.17-2l8.11 4.68a1.16 1.16 0 0 1-.59 2.17ZM198.78 711.84h-9.36a1.16 1.16 0 0 1 0-2.32h9.36a1.16 1.16 0 1 1 0 2.32ZM184.63 694a1.15 1.15 0 0 1-1-.58 1.17 1.17 0 0 1 .42-1.59l8.11-4.68a1.15 1.15 0 0 1 1.59.42 1.17 1.17 0 0 1-.42 1.59l-8.11 4.68a1.16 1.16 0 0 1-.59.16ZM171.52 680.85a1.16 1.16 0 0 1-.58-.16 1.17 1.17 0 0 1-.42-1.59l4.68-8.1a1.16 1.16 0 0 1 2 1.17l-4.68 8.11a1.15 1.15 0 0 1-1 .57Z"/><path fill="#fff" d="M237.25 804.14V184.12h12.32v616.15l-12.32 3.87z"/><path d="M237.25 805.54a1.4 1.4 0 0 1-1.4-1.4v-620a1.4 1.4 0 0 1 1.4-1.4h12.32a1.4 1.4 0 0 1 1.4 1.4v616.13a1.4 1.4 0 1 1-2.8 0V185.52h-9.53v618.62a1.4 1.4 0 0 1-1.39 1.4Z"/><path fill="#fff" d="M106.7 99.86h271.19v195.2H106.7z" transform="translate(-.8 .98)"/><path d="M378.84 296.7a2.42 2.42 0 0 1-.54.07l-271.19 1.09a2.24 2.24 0 0 1-2.26-2.24l-.79-195.2a2.25 2.25 0 0 1 2.24-2.26l271.19-1.09a2.25 2.25 0 0 1 2.26 2.24l.79 195.2a2.26 2.26 0 0 1-1.7 2.19Zm-269.5-3.35L376 292.27l-.77-190.69-266.69 1.08Z"/><path fill="#f57a3e" d="M180.84 224.06a11 11 0 0 1 7.95 2.88 10.6 10.6 0 0 1 .06 14.8 12.24 12.24 0 0 1-15.82.06 9.8 9.8 0 0 1-3-7.35 9.92 9.92 0 0 1 3-7.41 10.82 10.82 0 0 1 7.81-2.98Zm8.06-10.71-16.22.07-2.57-68.18 20.81-.08ZM239.24 223.83a10.91 10.91 0 0 1 7.95 2.87 9.92 9.92 0 0 1 3 7.42 9.79 9.79 0 0 1-3 7.38 11 11 0 0 1-7.93 2.94 10.86 10.86 0 0 1-7.88-2.88 9.77 9.77 0 0 1-3-7.35 9.92 9.92 0 0 1 3-7.41 10.74 10.74 0 0 1 7.86-2.97Zm8.06-10.71-16.22.06-2.57-68.18 20.81-.09ZM297.64 223.59a11 11 0 0 1 7.95 2.87 10 10 0 0 1 3 7.43 9.78 9.78 0 0 1-3 7.37 10.92 10.92 0 0 1-7.93 2.94 10.81 10.81 0 0 1-7.88-2.87 9.78 9.78 0 0 1-3-7.36 9.92 9.92 0 0 1 3-7.41 10.74 10.74 0 0 1 7.86-2.97Zm8.06-10.71-16.22.07-2.57-68.18 20.82-.08Z"/><path fill="#fff" d="m394.2 678.18-36.13 146.3H324.8l33.71-162.16 35.69 15.86z"/><path d="M323.64 825.43a1.48 1.48 0 0 1-.3-1.25L357.05 662a1.5 1.5 0 0 1 2.07-1.07l35.69 15.87a1.49 1.49 0 0 1 .85 1.72l-36.13 146.3a1.51 1.51 0 0 1-1.46 1.14H324.8a1.48 1.48 0 0 1-1.16-.53ZM392.45 679l-32.85-14.6L326.64 823h30.26Z"/><path fill="#fff" d="m437.83 681.16 23.68 143.32 30.9-.55-14.87-142.77h-39.71z"/><path d="M460 824.72 436.35 681.4a1.49 1.49 0 0 1 .34-1.21 1.51 1.51 0 0 1 1.14-.53h39.71A1.5 1.5 0 0 1 479 681l14.9 142.78a1.51 1.51 0 0 1-1.46 1.65l-30.9.55a1.48 1.48 0 0 1-1.54-1.26Zm16.15-142.06h-36.6L462.78 823l28-.5ZM391.09 314.47c-5.9 5.71-8.9 13.7-11.84 21.37s-6.23 15.6-12.49 20.91c-9.9 8.41-24.24 8.05-36.75 11.52-20.78 5.75-37.62 23.84-41.88 45s4.27 44.32 21.19 57.68c13 10.28 29.71 14.55 46 17.9 17.23 3.55 35.08 6.36 52.32 2.88s33.93-14.46 39.72-31.07c4.31-12.38 2.15-26-1.19-38.71s-7.84-25.27-8.08-38.38c-.18-9.49 1.88-18.85 3-28.27s1.29-19.32-2.48-28c-7.19-16.58-33.27-26.6-47.52-12.83Z"/><path fill="#4666c9" d="M492.41 823.93c5.79 18.62 35.75 19.06 35.75 33.16H460.3l1.21-32.61Z"/><path fill="#fff" d="M279.12 574.76s-11.82 15.3-15.35 31.16c0 0 2.45 14.1 18.4 11l6.94-16.09s4.19 12.12 6.83 11.24 1.39-26.4 1.39-26.4Z"/><path d="M263.77 607.42a1.49 1.49 0 0 0 1.45-1.13c3.85-15 15-30.5 15.11-30.65a1.5 1.5 0 0 0-2.43-1.76c-.47.66-11.59 16.15-15.58 31.67a1.5 1.5 0 0 0 1.08 1.82 1.64 1.64 0 0 0 .37.05ZM267.52 614.68a1.48 1.48 0 0 0 1.4-1l7.71-20.27a1.5 1.5 0 1 0-2.8-1.06l-7.71 20.27a1.51 1.51 0 0 0 .87 1.93 1.69 1.69 0 0 0 .53.13ZM274 618.13a1.5 1.5 0 0 0 1.38-.91l7.76-18.43a1.5 1.5 0 0 0-2.77-1.16l-7.75 18.42a1.5 1.5 0 0 0 .8 2 1.46 1.46 0 0 0 .58.08ZM282.17 618.43a1.47 1.47 0 0 0 1.37-.9l5.4-12.5c1.54 4.06 4 8.84 7.14 8.55 1.34-.13 4.88-.47 2.74-28a1.48 1.48 0 0 0-1.61-1.37 1.5 1.5 0 0 0-1.38 1.6c.8 10.28.89 22.25-.29 24.7-.89-.57-3.11-3.71-5-10.07a1.5 1.5 0 0 0-1.35-1.07 1.47 1.47 0 0 0-1.46.9l-6.95 16.08a1.5 1.5 0 0 0 .78 2 1.43 1.43 0 0 0 .61.08Z"/><path fill="#f57a3e" d="M368.43 527.62v-58.3l-66.76 119-26.44-15.86s69.36-149 87.25-158.63C402.8 392 455 404.59 455 404.59l58.17-32.44 14.54-77.33h30.41s-2.65 92.16-7.94 101.6-73 53.79-73 53.79l4.23 73.53Z"/><path d="M470.5 524.11 486.41 695s-55.52 15.9-137.81-16.81l19.83-150.57Z"/><circle cx="544.03" cy="294.82" r="19.83" fill="#fff"/><path d="M522.7 294.82a21.33 21.33 0 1 1 21.3 21.33 21.36 21.36 0 0 1-21.3-21.33Zm3 0a18.34 18.34 0 1 0 18.3-18.33 18.36 18.36 0 0 0-18.31 18.33Z"/><path fill="#fff" d="M443.86 402.62c-18.59 44.22-53.25 1.18-53.25 1.18s14.14-3.41 13.46-21.86l23.51-1.52s-3.47 22.27 16.28 22.2Z"/><path d="M389.45 404.74a1.51 1.51 0 0 1-.25-1.42 1.48 1.48 0 0 1 1.06-1c.53-.13 12.94-3.41 12.32-20.35a1.5 1.5 0 0 1 1.4-1.55l23.51-1.53a1.54 1.54 0 0 1 1.2.49 1.51 1.51 0 0 1 .37 1.24c0 .1-1.49 10.18 3.61 16.11 2.49 2.9 6.23 4.37 11.11 4.37h.08a1.49 1.49 0 0 1 1.24.66 1.51 1.51 0 0 1 .14 1.41c-5.25 12.5-12.34 19.46-21.06 20.69a20.83 20.83 0 0 1-2.83.2c-16.13.03-31.23-18.49-31.9-19.32Zm40.94-6c-4.62-5.37-4.71-13.15-4.47-16.68l-20.33 1.32c0 13.81-8.37 19.26-12.44 21.1 4.26 4.73 17.76 18.31 30.62 16.48 7.15-1 13.14-6.69 17.84-16.89-4.76-.45-8.53-2.24-11.22-5.37Z"/><path fill="#fff" d="M420.64 392c-26 0-39.94-64.77-6.89-70.06 22.35-3.59 42.03 70.06 6.89 70.06Z"/><path d="M393.07 354.82c-1.18-14.85 3.57-31.68 20.44-34.38 5.63-.9 11.28 2.31 16.36 9.29 9.81 13.47 15.37 39.16 8.13 53.39-3.45 6.78-9.45 10.36-17.36 10.36-15.13 0-26.09-20.07-27.57-38.66ZM414 323.4c-14.87 2.38-19 17.67-17.94 31.19 1.76 22.17 14.14 35.9 24.59 35.9 6.8 0 11.75-2.94 14.69-8.73 5.58-11 3.39-34.79-7.88-50.27-3.88-5.33-8.15-8.19-12.16-8.19a8 8 0 0 0-1.3.1Z"/><path d="M429.74 333.79c-.66 3.22-2.43 6.36-5.32 7.9-3.44 1.85-7.82 1.16-11.25 3-3.16 1.73-4.85 5.28-5.93 8.71s-1.8 7.09-3.84 10.06-6 5.06-9.29 3.67-4.44-5.09-5.14-8.46c-1.72-8.29-2.1-17.08.6-25.12s8.85-15.2 17-17.61c11.6-3.42 25.86 4.92 23.17 17.85Z"/><path fill="#fff" d="M388.28 370.15c2.73 6 8.68 9.21 13.3 7.11s6.14-8.67 3.41-14.69-8.69-9.2-13.3-7.11-6.14 8.67-3.41 14.69Z"/><path d="M398.55 379.41a8.8 8.8 0 0 0 3.65-.78 1.5 1.5 0 0 0-1.2-2.73 6.72 6.72 0 0 1-6-.47 13.17 13.17 0 0 1-6.24-13.76 6.74 6.74 0 0 1 3.62-4.85c3.85-1.74 8.93 1.11 11.32 6.37a1.49 1.49 0 1 0 2.72-1.24c-3.07-6.76-9.92-10.28-15.28-7.85a9.68 9.68 0 0 0-5.3 6.9 16.18 16.18 0 0 0 7.75 17.07 10.68 10.68 0 0 0 4.96 1.34Z"/><path fill="#4666c9" d="m358.07 824.48-4.84 32.61h-48.92l20.49-32.61h33.27z"/><path fill="#fff" d="M460.3 852.9h67.86v8.37H460.3z" transform="rotate(180 494.23 857.09)"/><path d="M458.8 861.28v-8.38a1.5 1.5 0 0 1 1.5-1.49h67.86a1.5 1.5 0 0 1 1.5 1.49v8.38a1.5 1.5 0 0 1-1.5 1.49H460.3a1.5 1.5 0 0 1-1.5-1.49Zm67.87-6.88H461.8v5.38h64.87Z"/><path fill="#fff" d="M306.21 852.9h45.69v8.37h-45.69z" transform="rotate(180 329.06 857.09)"/><path d="M304.72 861.28v-8.38a1.49 1.49 0 0 1 1.49-1.49h45.69a1.5 1.5 0 0 1 1.5 1.49v8.38a1.5 1.5 0 0 1-1.5 1.49h-45.69a1.49 1.49 0 0 1-1.49-1.49Zm45.69-6.88h-42.7v5.38h42.7Z"/><path fill="#fff" d="M317.05 840.41h25.6a1.5 1.5 0 0 0 0-3h-25.6a1.5 1.5 0 0 0 0 3ZM320.68 832.81h25.6a1.5 1.5 0 0 0 0-3h-25.6a1.5 1.5 0 0 0 0 3ZM491.37 842.28a1.34 1.34 0 0 0 .48-.08l11.6-4a1.5 1.5 0 0 0-1-2.84l-11.6 4a1.5 1.5 0 0 0 .49 2.91ZM486.62 835.74a1.34 1.34 0 0 0 .48-.08l11.6-4a1.5 1.5 0 0 0-1-2.84l-11.6 4a1.5 1.5 0 0 0 .49 2.91Z"/><path d="M408.84 487.34a1.47 1.47 0 0 0 1.15-.54l14.12-16.8a1.5 1.5 0 1 0-2.3-1.92l-14.12 16.85a1.5 1.5 0 0 0 1.15 2.46Z"/><path fill="#fff" d="m544.81 254.11.83-103a10.75 10.75 0 0 1 21.49.17l-.83 103a23.05 23.05 0 1 1-21.49-.18Z"/><path d="M530.71 274.4a24.65 24.65 0 0 1 12.48-21.26l.81-102.09a12.37 12.37 0 1 1 24.73.2l-.82 102.09a24.68 24.68 0 1 1-37.22 21.06ZM556.46 142a9.12 9.12 0 0 0-9.2 9.05l-.83 103a1.64 1.64 0 0 1-.88 1.43 21.43 21.43 0 1 0 20 .16 1.6 1.6 0 0 1-.85-1.44l.83-103a9.13 9.13 0 0 0-5.3-8.36 9 9 0 0 0-3.77-.84Z"/><path fill="#f57a3e" d="M540.71 274.48a14.68 14.68 0 1 1 14.56 14.8 14.69 14.69 0 0 1-14.56-14.8Z"/><path fill="#f57a3e" d="M554 277.54a3.09 3.09 0 0 0 1.33.3 3.25 3.25 0 0 0 3.27-3.22l.94-115.94a3.25 3.25 0 0 0-6.49-.05l-.94 115.94a3.26 3.26 0 0 0 1.89 2.97Z"/><path d="M555.47 182.13a1.49 1.49 0 0 0 .66.15l10.75.09a1.62 1.62 0 1 0 0-3.24l-10.72-.13a1.62 1.62 0 0 0-.69 3.09ZM555.32 200.49a1.49 1.49 0 0 0 .66.15l10.75.09a1.62 1.62 0 1 0 0-3.24L556 197.4a1.62 1.62 0 0 0-.69 3.09ZM555.17 218.85a1.5 1.5 0 0 0 .67.15l10.74.09a1.62 1.62 0 1 0 0-3.24l-10.75-.09a1.62 1.62 0 0 0-1.63 1.61 1.6 1.6 0 0 0 .97 1.48ZM555 237.21a1.5 1.5 0 0 0 .67.15l10.75.09a1.62 1.62 0 0 0 0-3.24l-10.75-.09a1.62 1.62 0 0 0-.69 3.09Z"/><ellipse cx="149.21" cy="416.83" fill="#f57a3e" rx="62.28" ry="62.27" transform="rotate(-89.69 149.184 416.823)"/><path fill="#ffd7c7" stroke="#0f1023" stroke-miterlimit="10" stroke-width="2.4" d="M142.18 346.81a62.28 62.28 0 1 0 62.26 62.27 62.34 62.34 0 0 0-62.26-62.27Z"/><ellipse cx="142.18" cy="409.08" fill="#2b47a0" rx="44.45" ry="44.46" transform="rotate(-.17 144.305 418.137)"/><path fill="#fff" d="m123.85 420.84 10.21-39.64 6.51-2.49 3.79 13.53 4.51.49 10.07 28.06-35.09.05z"/><path d="M159.14 421.39a.64.64 0 0 1-.2 0l-35.09.06a.63.63 0 0 1-.5-.25.61.61 0 0 1-.11-.54l10.21-39.64a.65.65 0 0 1 .38-.44l6.52-2.5a.65.65 0 0 1 .51 0 .59.59 0 0 1 .32.4l3.67 13.11 4.09.45a.65.65 0 0 1 .53.41l10.07 28.06a.63.63 0 0 1-.08.58.7.7 0 0 1-.32.3Zm-34.47-1.18 33.37-.06-9.63-26.83-4.12-.45a.62.62 0 0 1-.54-.46l-3.6-12.86-5.56 2.13Z"/><path fill="#d8e5f3" d="m140.57 378.71 11.29 4.49 7.04 11.52 7.03 5 10.56 21.04-17.55.03-10.07-28.06-4.51-.49-3.79-13.53z"/><path d="M176.69 421.36a.64.64 0 0 1-.2 0h-17.55a.64.64 0 0 1-.59-.42l-9.94-27.68-4.12-.45a.62.62 0 0 1-.54-.46L140 378.88a.66.66 0 0 1 .19-.65.63.63 0 0 1 .66-.11l11.29 4.49a.63.63 0 0 1 .3.26l7 11.41 6.92 4.92a.55.55 0 0 1 .2.23l10.57 21a.68.68 0 0 1 0 .62.65.65 0 0 1-.44.31Zm-17.3-1.21h16.07l-10-20-6.9-4.91a.58.58 0 0 1-.17-.18l-6.93-11.34-9.9-3.94 3.32 11.88 4.09.45a.65.65 0 0 1 .53.41Z"/><path fill="#fff" d="m104.8 420.88 12.99-28.1 9.27-2.77 4.56 30.82-26.82.05z"/><path d="M131.82 421.43a.65.65 0 0 1-.2 0H104.8a.63.63 0 0 1-.53-.29.61.61 0 0 1 0-.61l13-28.09a.66.66 0 0 1 .4-.35l9.26-2.77a.66.66 0 0 1 .53.07.62.62 0 0 1 .28.45l4.57 30.82a.64.64 0 0 1-.15.51.59.59 0 0 1-.34.26Zm-26-1.19h25.1l-4.35-29.37-8.3 2.48Z"/><path fill="#fff" d="M109 419.64c3.86 0 1.85 18.48 4.6 18.22s2-12.62 3.82-12.62 1.61 9 4 9c4.51 0 .38-14.75 5.65-14.76Z"/><path d="M114 438.42a2.09 2.09 0 0 1-.36.08 1.23 1.23 0 0 1-.92-.31c-1-.88-1.27-3.67-1.58-8.17-.25-3.65-.66-9.75-2.16-9.75a.64.64 0 0 1-.64-.63.64.64 0 0 1 .66-.64c2.68 0 3 5.31 3.43 10.94.18 2.76.47 6.93 1.15 7.3h.07c.93-.31 1.44-4.52 1.71-6.81.44-3.62.7-5.8 2.06-5.8s1.77 2 2.3 4.5c.35 1.69 1 4.51 1.74 4.51 1.57 0 1.73-3.23 1.88-6.35.2-3.93.43-8.4 3.77-8.4a.63.63 0 0 1 .63.63.64.64 0 0 1-.63.64c-2 0-2.29 3-2.5 7.2-.19 3.71-.38 7.55-3.15 7.55-1.82 0-2.41-2.8-3-5.52a12.79 12.79 0 0 0-1-3.43 20.83 20.83 0 0 0-.85 4.62c-.44 3.72-.86 7.26-2.61 7.84Z"/><path fill="#fff" d="M147 419.47c3 0 1.07 12.11 3.41 12.11s.77-12.12 3-12.12Z"/><path d="M150.83 432.15a1.54 1.54 0 0 1-.43.06c-1.7 0-1.86-2.68-2.05-6.08-.14-2.26-.36-6-1.36-6a.63.63 0 0 1-.63-.63.64.64 0 0 1 .63-.64c2.2 0 2.4 3.51 2.62 7.22.1 1.62.27 4.64.79 4.9.59-.25.8-3.7.91-5.55.23-3.67.4-6.58 2.11-6.58a.64.64 0 0 1 .64.64.63.63 0 0 1-.63.63c-.54.3-.74 3.61-.85 5.38-.21 3.41-.37 6.19-1.75 6.65Z"/><path fill="#d8e5f3" d="M163.33 418.65c3.75 0 .51 8.52 3 8.51s.53-4.72 2.45-4.72.26 3.05 1.85 3.05 0-6.06 1.32-6.06Z"/><path d="M167.05 427.69a2.1 2.1 0 0 1-.7.11 1.44 1.44 0 0 1-1-.42c-.71-.73-.68-2.17-.65-3.84 0-1.49.07-3.33-.58-4a1 1 0 0 0-.75-.27.64.64 0 0 1 0-1.27 2.24 2.24 0 0 1 1.67.66c1 1 1 3 .94 4.89 0 1.15-.05 2.58.28 2.93h.14c.58 0 .75-.39.82-2 .05-1.09.13-2.73 1.63-2.73s1.67 1.51 1.69 2.24a2.51 2.51 0 0 0 .09.8 8.47 8.47 0 0 0 .17-2.57c0-1.63 0-2.65.48-3.18a1 1 0 0 1 .72-.31.63.63 0 0 1 .16 1.25 9.78 9.78 0 0 0-.1 2.21c0 1.54.07 2.88-.55 3.52a1.14 1.14 0 0 1-.83.35c-1.38 0-1.41-1.32-1.43-2 0-1-.12-1-.41-1s-.32.5-.37 1.53-.16 2.68-1.42 3.1Z"/><path fill="#d8e5f3" d="m127.06 390.01 9.54 8.5 7.18 22.3-12.16.02-4.56-30.82z"/><path d="M144 421.41h-12.36a.64.64 0 0 1-.63-.55l-4.56-30.82a.64.64 0 0 1 1-.57L137 398a.64.64 0 0 1 .18.28l7.18 22.3a.62.62 0 0 1-.09.56.64.64 0 0 1-.27.27Zm-11.81-1.21h10.74l-6.86-21.31-8.11-7.22Z"/></g></svg>