<svg xmlns="http://www.w3.org/2000/svg" enable-background="new 0 0 5320 3547" viewBox="0 0 5320 3547"><rect width="5320" height="3547" fill="#FFF" display="none"/><path fill="#E3EBFC" d="M1037.92,2808.54c-98.06-42.92-244.63-113.5-335.96-300.02c-178.43-364.42-66.96-1009.98,208.95-1311.21
				c200.71-219.12,337.79-91.57,770.24-283.35c424.16-188.11,413.38-364.52,737.46-516.7
				c478.93-224.89,1195.68-165.13,1532.29,361.14c211.2,330.2,105.68,582.85,401.51,988.96
				c197.83,271.57,365.86,324.48,401.51,561.15c46.65,309.69-189.27,570.77-220.8,611.86
				c-335.23,436.77-701.68,159.08-1995.69,160.42C2302.82,3081.02,1686.14,3092.24,1037.92,2808.54z"/><polygon fill="#9DAAC2" points="1336.61 1461.19 1321.49 1461.19 1321.49 1522.07 1336.61 1522.07 1336.61 1522.08 1402.16 1522.08 1402.16 1522.07 1417.43 1522.07 1417.43 1461.19 1402.16 1461.19 1402.16 1461.19 1464.42 1461.19 1397.9 1406.33 1397.9 1316.71 1372.64 1295.62 1371.25 1249.67 1370.29 1249.67 1368.96 1249.67 1367.57 1295.62 1342.31 1316.71 1342.31 1406.33 1275.79 1461.19 1336.61 1461.19"/><rect width="21.32" height="60.87" x="1275.78" y="1461.19" fill="#9DAAC2"/><rect width="21.32" height="60.87" x="1443.11" y="1461.19" fill="#9DAAC2"/><polygon fill="#9DAAC2" points="1499.33 2681.51 1499.33 2327.33 1439.21 2327.33 1439.21 2319.71 1439.24 2319.71 1439.24 2310.55 1439.21 2310.55 1439.21 2291.17 1439.24 2291.17 1439.24 2282.01 1439.21 2282.01 1439.21 2262.63 1439.24 2262.63 1439.24 2253.47 1439.21 2253.47 1439.21 2234.09 1439.24 2234.09 1439.24 2224.93 1439.21 2224.93 1439.21 2205.55 1439.24 2205.55 1439.24 2196.39 1439.21 2196.39 1439.21 2177.01 1439.24 2177.01 1439.24 2167.85 1439.21 2167.85 1439.21 2148.47 1439.24 2148.47 1439.24 2139.31 1439.21 2139.31 1439.21 2119.93 1439.24 2119.93 1439.24 2110.77 1439.21 2110.77 1439.21 2091.38 1439.24 2091.38 1439.24 2082.22 1439.21 2082.22 1439.21 2062.84 1439.24 2062.84 1439.24 2053.68 1439.21 2053.68 1439.21 2034.3 1439.24 2034.3 1439.24 2025.14 1439.21 2025.14 1439.21 2005.76 1439.24 2005.76 1439.24 1996.6 1439.21 1996.6 1439.21 1977.22 1439.24 1977.22 1439.24 1968.06 1439.21 1968.06 1439.21 1948.68 1439.24 1948.68 1439.24 1939.52 1439.21 1939.52 1439.21 1920.14 1439.24 1920.14 1439.24 1910.98 1439.21 1910.98 1439.21 1891.6 1439.24 1891.6 1439.24 1882.44 1439.21 1882.44 1439.21 1863.06 1439.24 1863.06 1439.24 1853.9 1439.21 1853.9 1439.21 1834.52 1439.24 1834.52 1439.24 1825.36 1439.21 1825.36 1439.21 1805.98 1439.24 1805.98 1439.24 1796.82 1439.21 1796.82 1439.21 1777.44 1439.24 1777.44 1439.24 1768.28 1439.21 1768.28 1439.21 1748.9 1439.24 1748.9 1439.24 1739.74 1439.21 1739.74 1439.21 1720.36 1439.24 1720.36 1439.24 1711.2 1439.21 1711.2 1439.21 1691.82 1439.24 1691.82 1439.24 1682.66 1439.21 1682.66 1439.21 1663.28 1439.24 1663.28 1439.24 1654.12 1439.21 1654.12 1439.21 1654.11 1440.54 1654.11 1453.74 1575.53 1464.42 1575.53 1464.42 1522.1 1370.29 1522.1 1275.79 1522.1 1275.79 1575.53 1286.41 1575.53 1299.67 1654.11 1299.55 1654.11 1299.55 2327.33 1235.69 2327.33 1235.69 2681.51 1214.72 2681.51 1214.72 2794.48 1367.52 2794.48 1520.32 2794.48 1520.32 2681.51"/><path fill="#9DAAC2" d="M3615.23,2435.83v-50.09c13.94-2.36,27.21-5.18,39.79-8.43c31.18-4.55,61.05-17.3,87.96-33.41
				c87.33-45.59,119.94-106.24,119.94-106.24c-0.02,0.01-0.03,0.02-0.04,0.03c-180.45,92.14-308.68-25.08-314.82-30.83
				c-0.15-0.13-0.22-0.22-0.22-0.22h-1.96v-76.86h12.15v-28.71h-9.59c0.02,0,0.03-0.01,0.05-0.01h9.52
				c4.82-1.14,9.58-2.52,14.31-4.01c194.95-38.03,200.32-174.23,200.32-174.23c-8.07,6.4-16.13,12.39-24.17,18.06
				c-5.39,2.59-10.77,5.03-16.1,7.2c-226.16,92.39-392.26-180.85-392.26-180.85h0.66c8.52,0,15.44-8.17,15.44-18.23v-10.98
				c0-10.07-6.91-18.24-15.44-18.24h-2.68l-14-54.17c-0.24-0.93-0.73-1.57-1.32-1.99c-0.12-0.09-0.26-0.15-0.39-0.22
				c-0.14-0.07-0.27-0.13-0.41-0.17c-0.13-0.04-0.28-0.06-0.43-0.07c-0.2-0.02-0.4-0.03-0.61,0c-0.51,0.04-1.08,0.15-1.77,0.47
				l-0.74,1.17l-0.62,2.89l-13.47,52.1h-2.67c-8.52,0-15.44,8.17-15.44,18.24v10.98c0,10.07,6.91,18.23,15.44,18.23h1.61
				c-0.11,0.22-0.22,0.43-0.33,0.65c-78.02,156.77-189.78,195.25-276.02,197.54c-17.69-9.24-34.88-19.59-51.28-31.25
				c0,0,9.8,12.62,25.96,30.94c-60.22-3.14-102.78-21.91-102.78-21.91c30.32,64.47,71.84,102.72,109.29,125.32
				c0.04,0.04,0.07,0.04,0.07,0.04c49.6,29.95,92.07,32.5,92.07,32.5h83.75c0.01,0,0.02,0,0.03,0.01h-83.77v28.71h17.24v76.86h0.02
				c-2.52,1.73-5.04,3.41-7.57,5.03c-1.16,0.75-2.33,1.45-3.5,2.18c-1.37,0.85-2.74,1.73-4.11,2.55c-1.34,0.8-2.68,1.55-4.02,2.33
				c-1.2,0.69-2.39,1.41-3.59,2.08c-1.47,0.82-2.94,1.59-4.41,2.38c-1.07,0.58-2.15,1.18-3.22,1.73c-1.48,0.77-2.97,1.49-4.45,2.23
				c-1.07,0.53-2.14,1.08-3.2,1.6c-1.5,0.72-3,1.39-4.5,2.08c-1.05,0.48-2.1,0.99-3.15,1.45c-1.54,0.69-3.09,1.32-4.64,1.98
				c-1.01,0.42-2.01,0.87-3.01,1.28c-1.54,0.63-3.09,1.21-4.63,1.81c-1.01,0.39-2.03,0.8-3.04,1.18c-1.54,0.58-3.09,1.11-4.63,1.66
				c-1,0.35-2.01,0.73-3.01,1.07c-1.57,0.53-3.13,1.02-4.69,1.52c-0.98,0.31-1.96,0.64-2.94,0.95c-1.59,0.49-3.17,0.94-4.76,1.39
				c-0.95,0.27-1.9,0.56-2.85,0.83c-1.59,0.44-3.18,0.84-4.76,1.25c-0.95,0.24-1.9,0.5-2.84,0.73c-1.58,0.39-3.16,0.74-4.74,1.1
				c-0.95,0.22-1.9,0.45-2.85,0.65c-1.58,0.34-3.17,0.65-4.75,0.97c-0.93,0.18-1.87,0.38-2.8,0.56c-1.59,0.3-3.17,0.56-4.75,0.83
				c-0.92,0.16-1.84,0.33-2.76,0.47c-1.59,0.25-3.17,0.48-4.76,0.71c-0.9,0.13-1.81,0.27-2.71,0.39c-1.59,0.21-3.17,0.4-4.75,0.58
				c-0.9,0.1-1.79,0.22-2.69,0.32c-1.57,0.17-3.13,0.31-4.7,0.45c-0.9,0.08-1.8,0.17-2.7,0.25c-1.56,0.13-3.11,0.23-4.67,0.33
				c-0.89,0.06-1.78,0.13-2.66,0.18c-1.56,0.09-3.1,0.16-4.65,0.22c-0.65,0.03-1.29,0.06-1.94,0.08
				c-13.14-6.21-26.13-12.91-38.9-20.2c0,0,7.4,8.06,20.12,20.31c-0.28-0.01-0.57-0.01-0.85-0.02c-0.83-0.02-1.67-0.04-2.5-0.07
				c-1.51-0.05-3.02-0.12-4.52-0.19c-0.83-0.04-1.66-0.07-2.49-0.12c-1.49-0.08-2.98-0.18-4.46-0.28c-0.82-0.06-1.65-0.11-2.47-0.17
				c-1.48-0.11-2.95-0.24-4.42-0.37c-0.8-0.07-1.61-0.14-2.41-0.22c-1.47-0.14-2.93-0.3-4.38-0.46c-0.79-0.09-1.59-0.17-2.38-0.26
				c-1.44-0.17-2.88-0.35-4.31-0.53c-0.79-0.1-1.57-0.2-2.36-0.3c-1.43-0.19-2.84-0.4-4.25-0.61c-0.77-0.11-1.54-0.22-2.3-0.34
				c-1.4-0.21-2.78-0.44-4.17-0.67c-0.77-0.13-1.54-0.25-2.31-0.38c-1.37-0.24-2.73-0.48-4.09-0.73c-0.75-0.14-1.5-0.27-2.24-0.41
				c-1.36-0.26-2.71-0.53-4.06-0.8c-0.73-0.15-1.46-0.29-2.18-0.44c-1.34-0.28-2.67-0.56-4-0.85c-0.71-0.15-1.41-0.31-2.11-0.46
				c-1.32-0.3-2.62-0.6-3.92-0.9c-0.7-0.17-1.4-0.33-2.1-0.5c-1.28-0.31-2.54-0.62-3.81-0.94c-0.69-0.17-1.39-0.35-2.07-0.52
				c-1.25-0.32-2.49-0.65-3.72-0.98c-0.68-0.18-1.35-0.36-2.02-0.54c-1.23-0.34-2.45-0.68-3.66-1.02c-0.65-0.18-1.3-0.37-1.94-0.55
				c-1.19-0.34-2.37-0.69-3.55-1.04c-0.65-0.19-1.3-0.39-1.95-0.58c-1.16-0.35-2.31-0.71-3.46-1.07c-0.62-0.19-1.23-0.39-1.84-0.58
				c-1.14-0.36-2.27-0.73-3.4-1.1c-0.6-0.2-1.2-0.39-1.79-0.59c-1.1-0.37-2.2-0.74-3.28-1.11c-0.59-0.2-1.18-0.4-1.76-0.6
				c-1.07-0.37-2.12-0.74-3.17-1.12c-0.57-0.2-1.14-0.4-1.7-0.61c-1.03-0.37-2.05-0.74-3.06-1.12c-0.56-0.21-1.12-0.41-1.67-0.62
				c-0.99-0.37-1.96-0.74-2.92-1.11c-0.55-0.21-1.09-0.42-1.63-0.63c-0.95-0.37-1.89-0.74-2.81-1.1c-0.51-0.2-1.03-0.41-1.53-0.61
				c-0.93-0.37-1.85-0.74-2.75-1.11c-0.48-0.2-0.97-0.4-1.44-0.59c-0.89-0.37-1.77-0.74-2.64-1.1c-0.45-0.19-0.91-0.38-1.36-0.57
				c-0.87-0.37-1.73-0.74-2.57-1.1c-0.42-0.18-0.83-0.36-1.24-0.54c-0.83-0.36-1.65-0.72-2.45-1.08c-0.41-0.18-0.81-0.36-1.21-0.54
				c-0.78-0.35-1.55-0.7-2.3-1.04c-0.38-0.17-0.76-0.35-1.13-0.52c-0.75-0.35-1.49-0.69-2.21-1.03c-0.35-0.16-0.69-0.32-1.02-0.48
				c-0.71-0.34-1.42-0.67-2.1-1c-0.31-0.15-0.62-0.3-0.92-0.45c-0.69-0.33-1.37-0.66-2.02-0.99c-0.26-0.13-0.52-0.26-0.78-0.38
				c-0.66-0.33-1.31-0.65-1.93-0.96c-0.23-0.11-0.45-0.23-0.68-0.34c-0.63-0.32-1.24-0.63-1.83-0.93c-0.18-0.09-0.36-0.18-0.54-0.28
				c-0.59-0.31-1.17-0.61-1.72-0.89c-0.16-0.08-0.31-0.16-0.47-0.24c-0.56-0.29-1.1-0.58-1.6-0.85c-0.1-0.05-0.2-0.11-0.3-0.16
				c-0.53-0.28-1.04-0.56-1.51-0.82c-0.08-0.04-0.15-0.08-0.22-0.12c-0.49-0.27-0.95-0.52-1.38-0.76c-0.02-0.01-0.04-0.02-0.06-0.03
				c-2.34-1.3-3.71-2.12-4-2.29l-0.07-0.04c25.13,57.52,63.94,95.89,103.55,121.38l0.04,0.04c0.04,0.04,0.07,0.04,0.07,0.04
				c71.58,46.07,145.58,50.3,145.58,50.3h-0.01v57.41h18.81v245.85h-47.03v41.21h-14.11v41.21h690.14v-41.21h-14.11v-41.21H3607
				v-245.85H3615.23z M3529.41,2484.45v-48.61h28.71v48.61H3529.41z M3407.92,2681.68v-181.96h97.98v181.96H3407.92z
				 M3200.6,2129.79h65.45v76.86h-48.99h-16.46V2129.79z M3461.51,2484.45v-48.61h18.22v48.61H3461.51z M3188.84,2435.83v48.61
				h-18.22v-48.61H3188.84z M3198.84,2435.83h18.22v48.61h-18.22V2435.83z M3227.05,2435.83h11.95v48.61h-11.95V2435.83z
				 M3262.52,2435.83h14.11v48.61h-14.11V2435.83z M3286.82,2435.83h16.46v48.61h-16.46V2435.83z M3313.47,2435.83h16.46v48.61
				h-16.46V2435.83z M3340.12,2435.83h16.46v48.61h-16.46V2435.83z M3366.77,2435.83h2.16h15.48v48.61h-17.64V2435.83z
				 M3407.92,2435.83h15.38v48.61h-15.38V2435.83z M3433.29,2435.83h18.22v48.61h-18.22V2435.83z M3289.56,2129.79h79.36v76.86
				h-28.82h-50.54V2129.79z M3392.44,2206.65v-76.86h60.55v76.86H3392.44z M3092.24,2435.83h25.28v48.61h-5.29h-19.99V2435.83z
				 M3141.03,2435.83h19.6v48.61h-19.6V2435.83z M3239.01,2499.73v181.96h-97.98v-181.96H3239.01z M3262.52,2499.73h104.25h17.64
				v181.96h-121.88V2499.73z M3489.73,2484.45v-48.61h16.17v48.61H3489.73z M3522.35,2206.65h-45.85v-76.86h45.85V2206.65z
				 M3141.03,2129.79h36.05v76.86h-36.05V2129.79z M3082.25,2435.83v48.61h-18.81v-48.61H3082.25z M3063.43,2499.73h48.79h5.29
				v181.96h-54.08V2499.73z M3529.41,2681.68v-181.96h54.08v181.96H3529.41z M3583.49,2484.45h-15.38v-48.61h15.38V2484.45z"/><ellipse cx="2457.3" cy="2818.96" fill="#A7B5CF" rx="1871.72" ry="198.99"/><path fill="#A7B5CF" d="M4603.5,2379.93c-185.53,41.1-327.58-113.02-327.58-113.02h-85.88v-105.31
				c160.89-38.53,178.29-137.42,178.29-137.42c-166.33,48.8-299.68-79.2-299.68-79.2l2.9-42.49l-8.15-15.73l-9.24-118.15
				l-9.24,118.15l-8.15,15.73l2.9,42.49c0,0-133.35,128-299.68,79.2c0,0,17.39,98.89,178.28,137.42v105.31h-85.88
				c0,0-142.05,154.11-327.58,113.02c0,0,91.32,125,173.94,123.29v188.36c0,0-44.21,37.67-106.17-38.1c0,0-5.44,59.08,48.92,98.89
				c0,0-10.87,14.13-40.22,0c0,0,23.92,64.21,78.27,97.61v53.94h394.61h394.61v-53.94c54.35-33.39,78.27-97.61,78.27-97.61
				c-29.35,14.13-40.22,0-40.22,0c54.35-39.81,48.92-98.89,48.92-98.89c-61.97,75.77-106.17,38.1-106.17,38.1v-188.36
				C4512.18,2504.93,4603.5,2379.93,4603.5,2379.93z"/><path fill="#A7B5CF" d="M4702.7,3020.7c0,33.58-53.57,65.55-150.79,94.85c-307.41,92.61-1051.5,157.94-1920.58,157.94
				c-869.04,0-1613.14-65.34-1920.55-157.94c-97.22-29.3-150.79-61.28-150.79-94.85c0-35.65,60.48-69.57,169.59-100.34
				c318.18-89.67,1049.91-152.41,1901.75-152.41s1583.6,62.75,1901.78,152.41C4642.22,2951.13,4702.7,2985.05,4702.7,3020.7z"/><polygon fill="#6990BF" points="2267.03 2840.62 1711.86 2521.07 2050.16 2244.71 1826.54 2036.77 1976.56 1897.88 1879.09 1786.48 1954.76 1645.12 1968.74 1654.81 1899.8 1783.58 2001.01 1899.26 1852.54 2036.73 2077.17 2245.6 1743.43 2518.23 2274.48 2823.9"/><polygon fill="#6990BF" points="1587.93 2842.55 1580.77 2825.76 2110.99 2528.56 1798.45 2246.18 2026.32 2038.7 1859.96 1900.04 1967.93 1776.98 1904.91 1662.92 1918.8 1652.86 1988.79 1779.56 1885.1 1897.75 2053.34 2037.98 1824.81 2246.05 2141.55 2532.23"/><path fill="#6187A8" d="M1602.76,2834.1l-92.93-1l-0.19,0.23c0.92-1.12,92.74-116.28,186.01-441.03
								c86.23-300.23,191.24-845.66,201.82-1739.16l89.5,0.76c-4.79,403.97-28.95,772.7-71.83,1095.94
								c-34.44,259.65-91.15,487.52-138.39,687.45C1729.12,2638.86,1606.92,2829.12,1602.76,2834.1z"/><path fill="#364F69" d="M1986.95,653.9c-4.79,403.99-28.95,772.72-71.83,1095.94c-34.45,259.66-91.17,487.54-138.4,687.46
								c-47.62,201.55-169.83,391.83-174,396.79l-20.2-0.21c6.9-9.32,126.73-197.42,173.78-396.52
								c47.23-199.93,103.95-427.8,138.38-687.46c42.87-323.23,67.04-691.95,71.83-1095.94L1986.95,653.9z"/><path fill="#6187A8" d="M2270.75,2832.26c-4.12-4.95-113.91-164.59-174.93-395.84c-52.15-197.63-101.1-427.24-133.82-686.7
								c-40.73-323.01-62.44-691.61-64.55-1095.57l89.51-1.25c4.65,893.46,106.03,1438.32,190.26,1738.08
								c91.11,324.24,182.17,438.89,183.08,440.01l-0.19-0.23L2270.75,2832.26z"/><path fill="#364F69" d="M2307.71,2831.65l-35.84,0.61c-4.13-4.94-113.91-164.59-174.92-395.83
								c-52.15-197.64-101.11-427.24-133.83-686.72c-40.72-323.02-62.44-691.62-64.54-1095.57l89.51-1.25l0,0.4l-53.28,0.75
								c2.1,403.95,23.82,772.55,64.56,1095.57c32.7,259.48,81.66,489.08,133.81,686.71
								C2192.94,2662.79,2299.47,2820.61,2307.71,2831.65z"/><polygon fill="#9FB7CF" points="1655.61 2376.19 1642.39 2376.33 1642.27 2329.94 1655.49 2329.8"/><polygon fill="#9FB7CF" points="1692.31 2375.81 1679.08 2375.95 1678.96 2329.56 1692.18 2329.42"/><polygon fill="#9FB7CF" points="1729 2375.42 1715.78 2375.56 1715.66 2329.17 1728.88 2329.03"/><polygon fill="#9FB7CF" points="1765.69 2375.04 1752.47 2375.18 1752.35 2328.79 1765.57 2328.65"/><polygon fill="#9FB7CF" points="1802.39 2374.65 1789.16 2374.79 1789.04 2328.4 1802.27 2328.26"/><polygon fill="#9FB7CF" points="1839.08 2374.27 1825.86 2374.41 1825.74 2328.02 1838.96 2327.88"/><polygon fill="#9FB7CF" points="1875.78 2373.88 1862.55 2374.02 1862.43 2327.63 1875.65 2327.49"/><polygon fill="#9FB7CF" points="1912.47 2373.5 1899.25 2373.64 1899.12 2327.25 1912.35 2327.11"/><polygon fill="#9FB7CF" points="1949.16 2373.11 1935.94 2373.25 1935.82 2326.86 1949.04 2326.73"/><polygon fill="#9FB7CF" points="1985.86 2372.73 1972.63 2372.87 1972.51 2326.48 1985.74 2326.34"/><polygon fill="#9FB7CF" points="2022.55 2372.35 2009.33 2372.48 2009.21 2326.09 2022.43 2325.96"/><polygon fill="#9FB7CF" points="2059.25 2371.96 2046.02 2372.1 2045.9 2325.71 2059.12 2325.57"/><polygon fill="#9FB7CF" points="2095.94 2371.58 2082.72 2371.71 2082.59 2325.32 2095.82 2325.19"/><polygon fill="#9FB7CF" points="2132.63 2371.19 2119.41 2371.33 2119.29 2324.94 2132.51 2324.8"/><polygon fill="#9FB7CF" points="2169.33 2370.81 2156.1 2370.95 2155.98 2324.56 2169.21 2324.42"/><polygon fill="#9FB7CF" points="2206.02 2370.42 2192.8 2370.56 2192.68 2324.17 2205.9 2324.03"/><polygon fill="#9FB7CF" points="2242.71 2370.04 2229.49 2370.18 2229.37 2323.79 2242.59 2323.65"/><polygon fill="#9FB7CF" points="2252.46 2323.54 1629.5 2330.08 1629.43 2305.01 2252.4 2298.48"/><polygon fill="#9FB7CF" points="1775.38 1828.33 1767.89 1828.34 1767.99 1802.08 1775.47 1802.06"/><polygon fill="#9FB7CF" points="1796.15 1828.28 1788.67 1828.3 1788.76 1802.03 1796.25 1802.01"/><polygon fill="#9FB7CF" points="1816.93 1828.23 1809.44 1828.25 1809.54 1801.98 1817.03 1801.96"/><polygon fill="#9FB7CF" points="1837.71 1828.19 1830.22 1828.21 1830.32 1801.93 1837.81 1801.92"/><polygon fill="#9FB7CF" points="1858.49 1828.14 1851 1828.16 1851.1 1801.89 1858.59 1801.87"/><polygon fill="#9FB7CF" points="1879.27 1828.1 1871.78 1828.11 1871.88 1801.84 1879.36 1801.82"/><polygon fill="#9FB7CF" points="1900.05 1828.05 1892.56 1828.07 1892.66 1801.8 1900.14 1801.78"/><polygon fill="#9FB7CF" points="1920.82 1828 1913.34 1828.02 1913.43 1801.75 1920.92 1801.73"/><polygon fill="#9FB7CF" points="1941.6 1827.96 1934.11 1827.97 1934.21 1801.7 1941.7 1801.69"/><polygon fill="#9FB7CF" points="1962.38 1827.91 1954.89 1827.93 1954.99 1801.66 1962.48 1801.64"/><polygon fill="#9FB7CF" points="1983.16 1827.86 1975.67 1827.88 1975.77 1801.61 1983.26 1801.59"/><polygon fill="#9FB7CF" points="2003.94 1827.82 1996.45 1827.83 1996.55 1801.56 2004.04 1801.55"/><polygon fill="#9FB7CF" points="2024.72 1827.77 2017.23 1827.79 2017.33 1801.52 2024.81 1801.5"/><polygon fill="#9FB7CF" points="2045.49 1827.72 2038.01 1827.74 2038.1 1801.47 2045.59 1801.45"/><polygon fill="#9FB7CF" points="2066.27 1827.68 2058.79 1827.69 2058.88 1801.42 2066.37 1801.41"/><polygon fill="#9FB7CF" points="2087.05 1827.63 2079.56 1827.65 2079.66 1801.38 2087.15 1801.36"/><polygon fill="#9FB7CF" points="2107.83 1827.58 2100.34 1827.6 2100.44 1801.33 2107.93 1801.31"/><polygon fill="#9FB7CF" points="2113.52 1801.3 1760.76 1802.09 1760.81 1787.9 2113.57 1787.11"/><g><polygon fill="#6C88A3" points="2221.49 2449.82 1653.49 2451.39 1626.28 2371.51 2249.24 2369.79"/></g><g><polygon fill="#6C88A3" points="2083.34 1906.22 1800.89 1907 1768.81 1827.13 2115.95 1826.17"/></g><g><polygon fill="#5B738A" points="2117.51 1826.17 2084.9 1906.22 1802.46 1906.99 1797.11 1893.68 2065.76 1892.94 2092.93 1826.24"/></g><g><polygon fill="#6C88A3" points="1941.73 370.05 1967.38 608.69 1913.59 608.84"/></g><g><path fill="#6C88A3" d="M1993.5,652.88l-107.57,0.3c-10.36,0.03-18.74-9.54-18.7-21.37l0.09-25.69
							c0.04-11.83,8.47-21.44,18.84-21.47l107.57-0.3c10.37-0.03,18.74,9.54,18.7,21.37l-0.09,25.69
							C2012.3,643.24,2003.86,652.85,1993.5,652.88z"/></g><g><path fill="#50648F" d="M4702.7,3020.7c0,2.9-0.41,5.79-1.21,8.64c-8.38,30.42-60.77,59.46-149.58,86.21H710.79
					c-88.81-26.75-141.2-55.79-149.58-86.21c-0.8-2.85-1.21-5.75-1.21-8.64c0-2.89,0.41-5.79,1.21-8.64
					c8.95-32.5,68.13-63.44,168.38-91.7h3803.52c100.25,28.26,159.42,59.2,168.38,91.7
					C4702.29,3014.91,4702.7,3017.81,4702.7,3020.7z"/></g><g><path fill="#EBF1FF" d="M4702.7,3020.7c0,2.9-0.41,5.79-1.21,8.64H561.21c-0.8-2.85-1.21-5.75-1.21-8.64
					c0-2.89,0.41-5.79,1.21-8.64h4140.28C4702.29,3014.91,4702.7,3017.81,4702.7,3020.7z"/></g><g><ellipse cx="2338.91" cy="2941.4" fill="#140F03" rx="107.01" ry="126.42"/><ellipse cx="2329.68" cy="2941.4" fill="#2B2106" rx="107.01" ry="126.42"/><path fill="#FFF" d="M2397.19,2941.38c0,23.92-8.93,45.44-23.04,60.03c-11.86,12.3-27.46,19.76-44.46,19.76
						c-37.29,0-67.54-35.74-67.54-79.79c0-33.4,17.4-62.06,42.11-73.88c7.85-3.78,16.46-5.86,25.43-5.86
						C2366.98,2861.64,2397.19,2897.32,2397.19,2941.38z"/><path fill="#D4D4D4" d="M2388.94,2950.11c0,19.34-5.5,37.13-14.79,51.3c-11.86,12.3-27.46,19.76-44.46,19.76
						c-37.29,0-67.54-35.74-67.54-79.79c0-33.4,17.4-62.06,42.11-73.88c4.33-0.96,8.84-1.49,13.44-1.49
						C2357.06,2866,2388.94,2903.61,2388.94,2950.11z"/><path fill="#2B2106" d="M2327.35,2984.36c-2.34-8.42,1.53-17.42,8.66-20.19l0,0c7.08-2.72,14.74,1.86,17.04,10.23l0,0
							c2.34,8.42-1.53,17.42-8.66,20.19l0,0c-1.4,0.53-2.8,0.74-4.19,0.74l0,0C2334.52,2995.33,2329.2,2991.07,2327.35,2984.36z
							 M2291.5,2974.45c-4.42-7.14-3.11-17.1,2.89-22.32l0,0c6.04-5.22,14.52-3.67,18.94,3.41l0,0c4.42,7.14,3.11,17.1-2.93,22.32
							l0,0c-2.39,2.13-5.19,3.15-7.98,3.15l0,0C2298.27,2981.01,2294.16,2978.71,2291.5,2974.45z M2349.98,2941.43
							c0-0.05,0-0.1,0-0.16l0,0c0-0.05,0-0.1,0-0.1l0,0c-0.09-8.84,5.91-16.03,13.39-16.14l0,0c7.48-0.1,13.57,7.03,13.66,15.82l0,0
							c0,0.16,0,0.32,0,0.42l0,0c0,0.06,0,0.11,0,0.16l0,0c0,8.79-6.09,15.93-13.53,15.93l0,0
							C2356.02,2957.35,2349.98,2950.22,2349.98,2941.43z M2294.3,2931.1c-6.04-5.17-7.44-15.18-3.07-22.32l0,0
							c4.37-7.19,12.8-8.79,18.89-3.67l0,0c6.04,5.17,7.44,15.18,3.07,22.32l0,0c-2.66,4.37-6.81,6.66-11,6.66l0,0
							C2299.48,2934.08,2296.69,2933.12,2294.3,2931.1z M2335.82,2918.52c-7.12-2.66-11.09-11.61-8.84-20.03l0,0
							c2.25-8.47,9.87-13.1,16.95-10.44l0,0c7.12,2.66,11.09,11.61,8.84,20.03l0,0c-1.8,6.82-7.17,11.18-12.89,11.18l0,0
							C2338.53,2919.27,2337.18,2919.05,2335.82,2918.52z"/><path fill="#59450C" d="M2326.38,2981.79c-2.34-8.42,1.53-17.42,8.66-20.19l0,0c7.08-2.72,14.74,1.86,17.04,10.23l0,0
							c2.34,8.42-1.53,17.42-8.66,20.19l0,0c-1.4,0.53-2.8,0.74-4.19,0.74l0,0C2333.55,2992.77,2328.23,2988.51,2326.38,2981.79z
							 M2290.54,2971.89c-4.42-7.14-3.11-17.1,2.89-22.32l0,0c6.04-5.22,14.52-3.67,18.94,3.41l0,0c4.42,7.14,3.11,17.1-2.93,22.32
							l0,0c-2.39,2.13-5.19,3.15-7.98,3.15l0,0C2297.3,2978.44,2293.2,2976.15,2290.54,2971.89z M2349.01,2938.86
							c0-0.05,0-0.1,0-0.16l0,0c0-0.05,0-0.1,0-0.1l0,0c-0.09-8.84,5.91-16.03,13.39-16.14l0,0c7.48-0.1,13.57,7.03,13.66,15.82l0,0
							c0,0.16,0,0.32,0,0.42l0,0c0,0.06,0,0.11,0,0.16l0,0c0,8.79-6.09,15.93-13.53,15.93l0,0
							C2355.06,2954.79,2349.01,2947.65,2349.01,2938.86z M2293.33,2928.53c-6.04-5.17-7.44-15.18-3.07-22.32l0,0
							c4.37-7.19,12.8-8.79,18.89-3.67l0,0c6.04,5.17,7.44,15.18,3.07,22.32l0,0c-2.66,4.37-6.81,6.66-11,6.66l0,0
							C2298.52,2931.51,2295.72,2930.55,2293.33,2928.53z M2334.86,2915.96c-7.12-2.66-11.09-11.61-8.84-20.03l0,0
							c2.25-8.47,9.87-13.1,16.95-10.44l0,0c7.12,2.66,11.09,11.61,8.84,20.03l0,0c-1.8,6.82-7.17,11.18-12.89,11.18l0,0
							C2337.56,2916.7,2336.21,2916.49,2334.86,2915.96z"/><ellipse cx="3138.33" cy="2941.4" fill="#140F03" rx="107.01" ry="126.42"/><ellipse cx="3129.1" cy="2941.4" fill="#2B2106" rx="107.01" ry="126.42"/><path fill="#FFF" d="M3196.6,2941.38c0,23.92-8.93,45.44-23.04,60.03c-11.86,12.3-27.46,19.76-44.46,19.76
						c-37.29,0-67.54-35.74-67.54-79.79c0-33.4,17.4-62.06,42.11-73.88c7.85-3.78,16.46-5.86,25.43-5.86
						C3166.4,2861.64,3196.6,2897.32,3196.6,2941.38z"/><path fill="#D4D4D4" d="M3188.35,2950.11c0,19.34-5.5,37.13-14.79,51.3c-11.86,12.3-27.46,19.76-44.46,19.76
						c-37.29,0-67.54-35.74-67.54-79.79c0-33.4,17.4-62.06,42.11-73.88c4.33-0.96,8.84-1.49,13.44-1.49
						C3156.48,2866,3188.35,2903.61,3188.35,2950.11z"/><path fill="#2B2106" d="M3126.76,2984.36c-2.34-8.42,1.53-17.42,8.66-20.19l0,0c7.08-2.72,14.74,1.86,17.04,10.23l0,0
							c2.34,8.42-1.53,17.42-8.66,20.19l0,0c-1.4,0.53-2.8,0.74-4.19,0.74l0,0C3133.93,2995.33,3128.61,2991.07,3126.76,2984.36z
							 M3090.92,2974.45c-4.42-7.14-3.11-17.1,2.89-22.32l0,0c6.04-5.22,14.52-3.67,18.94,3.41l0,0c4.42,7.14,3.11,17.1-2.93,22.32
							l0,0c-2.39,2.13-5.19,3.15-7.98,3.15l0,0C3097.68,2981.01,3093.58,2978.71,3090.92,2974.45z M3149.4,2941.43
							c0-0.05,0-0.1,0-0.16l0,0c0-0.05,0-0.1,0-0.1l0,0c-0.09-8.84,5.91-16.03,13.39-16.14l0,0c7.48-0.1,13.57,7.03,13.66,15.82l0,0
							c0,0.16,0,0.32,0,0.42l0,0c0,0.06,0,0.11,0,0.16l0,0c0,8.79-6.09,15.93-13.53,15.93l0,0
							C3155.44,2957.35,3149.4,2950.22,3149.4,2941.43z M3093.72,2931.1c-6.04-5.17-7.44-15.18-3.07-22.32l0,0
							c4.37-7.19,12.8-8.79,18.89-3.67l0,0c6.04,5.17,7.44,15.18,3.07,22.32l0,0c-2.66,4.37-6.81,6.66-11,6.66l0,0
							C3098.9,2934.08,3096.1,2933.12,3093.72,2931.1z M3135.24,2918.52c-7.12-2.66-11.09-11.61-8.84-20.03l0,0
							c2.25-8.47,9.87-13.1,16.95-10.44l0,0c7.12,2.66,11.09,11.61,8.84,20.03l0,0c-1.8,6.82-7.17,11.18-12.89,11.18l0,0
							C3137.95,2919.27,3136.59,2919.05,3135.24,2918.52z"/><path fill="#59450C" d="M3125.8,2981.79c-2.34-8.42,1.53-17.42,8.66-20.19l0,0c7.08-2.72,14.74,1.86,17.04,10.23l0,0
							c2.34,8.42-1.53,17.42-8.66,20.19l0,0c-1.4,0.53-2.8,0.74-4.19,0.74l0,0C3132.97,2992.77,3127.65,2988.51,3125.8,2981.79z
							 M3089.95,2971.89c-4.42-7.14-3.11-17.1,2.89-22.32l0,0c6.04-5.22,14.52-3.67,18.94,3.41l0,0c4.42,7.14,3.11,17.1-2.93,22.32
							l0,0c-2.39,2.13-5.19,3.15-7.98,3.15l0,0C3096.72,2978.44,3092.61,2976.15,3089.95,2971.89z M3148.43,2938.86
							c0-0.05,0-0.1,0-0.16l0,0c0-0.05,0-0.1,0-0.1l0,0c-0.09-8.84,5.91-16.03,13.39-16.14l0,0c7.48-0.1,13.57,7.03,13.66,15.82l0,0
							c0,0.16,0,0.32,0,0.42l0,0c0,0.06,0,0.11,0,0.16l0,0c0,8.79-6.09,15.93-13.53,15.93l0,0
							C3154.47,2954.79,3148.43,2947.65,3148.43,2938.86z M3092.75,2928.53c-6.04-5.17-7.44-15.18-3.07-22.32l0,0
							c4.37-7.19,12.8-8.79,18.89-3.67l0,0c6.04,5.17,7.44,15.18,3.07,22.32l0,0c-2.66,4.37-6.81,6.66-11,6.66l0,0
							C3097.93,2931.51,3095.14,2930.55,3092.75,2928.53z M3134.27,2915.96c-7.12-2.66-11.09-11.61-8.84-20.03l0,0
							c2.25-8.47,9.87-13.1,16.95-10.44l0,0c7.12,2.66,11.09,11.61,8.84,20.03l0,0c-1.8,6.82-7.17,11.18-12.89,11.18l0,0
							C3136.98,2916.7,3135.63,2916.49,3134.27,2915.96z"/><path fill="#362F08" d="M3303.11,2212.31h-391.79l0,0c-2.48-0.73-5.06-1.16-7.73-1.16H1677.54c-17.61,0-31.88,16.86-31.88,37.67
					v586.98c0,86.21,59.15,156.09,132.12,156.09h1125.82c2.67,0,5.25-0.43,7.73-1.16v1.16H3413c34.55,0,62.56-33.09,62.56-73.91
					v-501.93C3475.56,2303.53,3398.35,2212.31,3303.11,2212.31z"/><path fill="#FF8080" d="M3475.56,2347.58v575.81h-608.18v-779.56h435.72c33.82,0,65.33,11.51,91.98,31.37
					C3443.42,2211.27,3475.56,2274.97,3475.56,2347.58z"/><path fill="#FF4F4F" d="M2997.77,2238.86v646.87c0,20.83-14.25,37.66-31.88,37.66H1724.64c-43.64,0-78.99-41.76-78.99-93.27
					v-649.8c0-20.77,14.29-37.66,31.88-37.66h1238.87c4.28,0,8.52,0.37,12.67,1.17c19.16,3.52,36.07,14.97,48.33,31.37
					C2990.11,2192.14,2997.77,2214.46,2997.77,2238.86z"/><path fill="#ED7979" d="M2997.77,2687.69c0,0,75.88,229.91,329.24,234.76h-355.66v-234.76H2997.77z"/><path fill="#F04A4A" d="M2997.77,2687.69v198.63c0,20.77-14.25,37.66-31.88,37.66H1724.64c-43.63,0-78.99-41.78-78.99-93.32
					v-649.75c0-20.8,14.27-37.66,31.88-37.66h168.13v0c0,300.68,206.32,544.44,460.84,544.44H2997.77z"/><rect width="181.64" height="235.13" x="1688.15" y="2252.8" fill="#4D86B3"/><rect width="181.64" height="235.13" x="1923.89" y="2252.8" fill="#4D86B3"/><rect width="181.64" height="235.13" x="2174.13" y="2252.8" fill="#4D86B3"/><rect width="181.64" height="235.13" x="2424.36" y="2252.8" fill="#4D86B3"/><path fill="#4D86B3" d="M2867.38,2252.81v528.51c-48.33-129.6-134.32-146.7-208.71-127.68v-400.83H2867.38z"/><path fill="#4D86B3" d="M3475.56,2317.48v326.26c0,35.31-24.21,63.92-54.1,63.92c-5.86,1.54-11.81,3.04-17.85,4.37
					c-86.12,19.18-188.51,15.98-303.39-4.37c-29.89,0-54.1-28.6-54.1-63.92v-327c0-31.37,19.12-57.42,44.32-62.85
					c3.2-0.69,6.45-1.06,9.78-1.06h321.7c19.97,0.16,37.38,13.16,46.62,32.39c0.63,1.28,1.17,2.56,1.71,3.89l0.05,0.05
					c0.36,0.96,0.72,1.92,1.08,2.88c2.44,6.87,3.88,14.28,4.1,22.11C3475.52,2315.24,3475.56,2316.36,3475.56,2317.48z"/><path fill="#DBDBDB" d="M1878.98,2276.21h-202.89v-40.72c0-4.93,4-8.93,8.93-8.93h193.96V2276.21z"/><rect width="202.89" height="49.65" x="1913.27" y="2226.56" fill="#DBDBDB"/><rect width="202.89" height="49.65" x="2163.5" y="2226.56" fill="#DBDBDB"/><rect width="202.89" height="49.65" x="2413.74" y="2226.56" fill="#DBDBDB"/><path fill="#DBDBDB" d="M2876.54,2276.21h-227.07v-44.94c0-2.6,2.11-4.72,4.72-4.72h213.03c5.15,0,9.32,4.17,9.32,9.32V2276.21z
					"/><path fill="#3D414A" d="M1878.98,2226.57v10.28h-162.63c-19.84,0-36.39,16.99-39.68,39.36h-0.59v-2.08
					c0-26.26,18.03-47.57,40.26-47.57H1878.98z"/><rect width="202.89" height="10.28" x="1913.25" y="2226.57" fill="#3D414A"/><rect width="202.89" height="10.28" x="2163.48" y="2226.57" fill="#3D414A"/><rect width="202.89" height="10.28" x="2413.72" y="2226.57" fill="#3D414A"/><path fill="#3D414A" d="M2876.54,2276.21h-0.9c-4.01-22.48-20.92-39.36-41.17-39.36h-163.76c-11.72,0-21.28,11.24-21.28,25.09
					v-10.23c0-13.9,9.56-25.14,21.28-25.14h163.76C2857.69,2226.57,2876.54,2248.78,2876.54,2276.21z"/><ellipse cx="1922.82" cy="2970.87" fill="#140F03" rx="107.01" ry="126.42"/><ellipse cx="1913.59" cy="2970.87" fill="#2B2106" rx="107.01" ry="126.42"/><path fill="#FFF" d="M1981.1,2970.85c0,23.92-8.93,45.44-23.04,60.03c-11.86,12.3-27.46,19.76-44.46,19.76
						c-37.29,0-67.54-35.74-67.54-79.79c0-33.4,17.4-62.06,42.11-73.88c7.85-3.78,16.46-5.86,25.43-5.86
						C1950.89,2891.11,1981.1,2926.8,1981.1,2970.85z"/><path fill="#D4D4D4" d="M1972.85,2979.58c0,19.34-5.5,37.13-14.79,51.3c-11.86,12.3-27.46,19.76-44.46,19.76
						c-37.29,0-67.54-35.74-67.54-79.79c0-33.4,17.4-62.06,42.11-73.88c4.33-0.96,8.84-1.49,13.44-1.49
						C1940.97,2895.48,1972.85,2933.08,1972.85,2979.58z"/><path fill="#2B2106" d="M1911.26,3013.83c-2.34-8.42,1.53-17.42,8.66-20.19l0,0c7.08-2.72,14.74,1.86,17.04,10.23l0,0
							c2.34,8.42-1.53,17.42-8.66,20.19l0,0c-1.4,0.53-2.8,0.74-4.19,0.74l0,0C1918.43,3024.81,1913.11,3020.55,1911.26,3013.83z
							 M1875.41,3003.93c-4.42-7.14-3.11-17.1,2.89-22.32l0,0c6.04-5.22,14.52-3.67,18.94,3.41l0,0c4.42,7.14,3.11,17.1-2.93,22.32
							l0,0c-2.39,2.13-5.19,3.15-7.98,3.15l0,0C1882.18,3010.48,1878.07,3008.19,1875.41,3003.93z M1933.89,2970.9
							c0-0.05,0-0.1,0-0.16l0,0c0-0.05,0-0.1,0-0.1l0,0c-0.09-8.84,5.91-16.03,13.39-16.14l0,0c7.48-0.1,13.57,7.03,13.66,15.82l0,0
							c0,0.16,0,0.32,0,0.42l0,0c0,0.06,0,0.11,0,0.16l0,0c0,8.79-6.09,15.93-13.53,15.93l0,0
							C1939.93,2986.83,1933.89,2979.69,1933.89,2970.9z M1878.21,2960.57c-6.04-5.17-7.44-15.18-3.07-22.32l0,0
							c4.37-7.19,12.8-8.79,18.89-3.67l0,0c6.04,5.17,7.44,15.18,3.07,22.32l0,0c-2.66,4.37-6.81,6.66-11,6.66l0,0
							C1883.39,2963.55,1880.6,2962.59,1878.21,2960.57z M1919.73,2948c-7.12-2.66-11.09-11.61-8.84-20.03l0,0
							c2.25-8.47,9.87-13.1,16.95-10.44l0,0c7.12,2.66,11.09,11.61,8.84,20.03l0,0c-1.8,6.82-7.17,11.18-12.89,11.18l0,0
							C1922.44,2948.74,1921.09,2948.53,1919.73,2948z"/><path fill="#59450C" d="M1910.29,3011.27c-2.34-8.42,1.53-17.42,8.66-20.19l0,0c7.08-2.72,14.74,1.86,17.04,10.23l0,0
							c2.34,8.42-1.53,17.42-8.66,20.19l0,0c-1.4,0.53-2.8,0.74-4.19,0.74l0,0C1917.46,3022.24,1912.14,3017.98,1910.29,3011.27z
							 M1874.45,3001.36c-4.42-7.14-3.11-17.1,2.89-22.32l0,0c6.04-5.22,14.52-3.67,18.94,3.41l0,0c4.42,7.14,3.11,17.1-2.93,22.32
							l0,0c-2.39,2.13-5.19,3.15-7.98,3.15l0,0C1881.21,3007.91,1877.11,3005.62,1874.45,3001.36z M1932.92,2968.33
							c0-0.05,0-0.1,0-0.16l0,0c0-0.05,0-0.1,0-0.1l0,0c-0.09-8.84,5.91-16.03,13.39-16.14l0,0c7.48-0.1,13.57,7.03,13.66,15.82l0,0
							c0,0.16,0,0.32,0,0.42l0,0c0,0.06,0,0.11,0,0.16l0,0c0,8.79-6.09,15.93-13.53,15.93l0,0
							C1938.97,2984.26,1932.92,2977.12,1932.92,2968.33z M1877.24,2958c-6.04-5.17-7.44-15.18-3.07-22.32l0,0
							c4.37-7.19,12.8-8.79,18.89-3.67l0,0c6.04,5.17,7.44,15.18,3.07,22.32l0,0c-2.66,4.37-6.81,6.66-11,6.66l0,0
							C1882.43,2960.98,1879.63,2960.02,1877.24,2958z M1918.77,2945.43c-7.12-2.66-11.09-11.61-8.84-20.03l0,0
							c2.25-8.47,9.87-13.1,16.95-10.44l0,0c7.12,2.66,11.09,11.61,8.84,20.03l0,0c-1.8,6.82-7.17,11.18-12.89,11.18l0,0
							C1921.47,2946.17,1920.12,2945.96,1918.77,2945.43z"/><ellipse cx="2722.24" cy="2970.87" fill="#140F03" rx="107.01" ry="126.42"/><ellipse cx="2713.01" cy="2970.87" fill="#2B2106" rx="107.01" ry="126.42"/><path fill="#FFF" d="M2780.51,2970.85c0,23.92-8.93,45.44-23.04,60.03c-11.86,12.3-27.46,19.76-44.46,19.76
						c-37.29,0-67.54-35.74-67.54-79.79c0-33.4,17.4-62.06,42.11-73.88c7.85-3.78,16.46-5.86,25.43-5.86
						C2750.31,2891.11,2780.51,2926.8,2780.51,2970.85z"/><path fill="#D4D4D4" d="M2772.26,2979.58c0,19.34-5.5,37.13-14.79,51.3c-11.86,12.3-27.46,19.76-44.46,19.76
						c-37.29,0-67.54-35.74-67.54-79.79c0-33.4,17.4-62.06,42.11-73.88c4.33-0.96,8.84-1.49,13.44-1.49
						C2740.39,2895.48,2772.26,2933.08,2772.26,2979.58z"/><path fill="#2B2106" d="M2710.67,3013.83c-2.34-8.42,1.53-17.42,8.66-20.19l0,0c7.08-2.72,14.74,1.86,17.04,10.23l0,0
							c2.34,8.42-1.53,17.42-8.66,20.19l0,0c-1.4,0.53-2.8,0.74-4.19,0.74l0,0C2717.84,3024.81,2712.52,3020.55,2710.67,3013.83z
							 M2674.83,3003.93c-4.42-7.14-3.11-17.1,2.89-22.32l0,0c6.04-5.22,14.52-3.67,18.94,3.41l0,0c4.42,7.14,3.11,17.1-2.93,22.32
							l0,0c-2.39,2.13-5.19,3.15-7.98,3.15l0,0C2681.59,3010.48,2677.49,3008.19,2674.83,3003.93z M2733.31,2970.9
							c0-0.05,0-0.1,0-0.16l0,0c0-0.05,0-0.1,0-0.1l0,0c-0.09-8.84,5.91-16.03,13.39-16.14l0,0c7.48-0.1,13.57,7.03,13.66,15.82l0,0
							c0,0.16,0,0.32,0,0.42l0,0c0,0.06,0,0.11,0,0.16l0,0c0,8.79-6.09,15.93-13.53,15.93l0,0
							C2739.35,2986.83,2733.31,2979.69,2733.31,2970.9z M2677.63,2960.57c-6.04-5.17-7.44-15.18-3.07-22.32l0,0
							c4.37-7.19,12.8-8.79,18.89-3.67l0,0c6.04,5.17,7.44,15.18,3.07,22.32l0,0c-2.66,4.37-6.81,6.66-11,6.66l0,0
							C2682.81,2963.55,2680.01,2962.59,2677.63,2960.57z M2719.15,2948c-7.12-2.66-11.09-11.61-8.84-20.03l0,0
							c2.25-8.47,9.87-13.1,16.95-10.44l0,0c7.12,2.66,11.09,11.61,8.84,20.03l0,0c-1.8,6.82-7.17,11.18-12.89,11.18l0,0
							C2721.86,2948.74,2720.5,2948.53,2719.15,2948z"/><path fill="#59450C" d="M2709.71,3011.27c-2.34-8.42,1.53-17.42,8.66-20.19l0,0c7.08-2.72,14.74,1.86,17.04,10.23l0,0
							c2.34,8.42-1.53,17.42-8.66,20.19l0,0c-1.4,0.53-2.8,0.74-4.19,0.74l0,0C2716.88,3022.24,2711.56,3017.98,2709.71,3011.27z
							 M2673.86,3001.36c-4.42-7.14-3.11-17.1,2.89-22.32l0,0c6.04-5.22,14.52-3.67,18.94,3.41l0,0c4.42,7.14,3.11,17.1-2.93,22.32
							l0,0c-2.39,2.13-5.19,3.15-7.98,3.15l0,0C2680.63,3007.91,2676.52,3005.62,2673.86,3001.36z M2732.34,2968.33
							c0-0.05,0-0.1,0-0.16l0,0c0-0.05,0-0.1,0-0.1l0,0c-0.09-8.84,5.91-16.03,13.39-16.14l0,0c7.48-0.1,13.57,7.03,13.66,15.82l0,0
							c0,0.16,0,0.32,0,0.42l0,0c0,0.06,0,0.11,0,0.16l0,0c0,8.79-6.09,15.93-13.53,15.93l0,0
							C2738.38,2984.26,2732.34,2977.12,2732.34,2968.33z M2676.66,2958c-6.04-5.17-7.44-15.18-3.07-22.32l0,0
							c4.37-7.19,12.8-8.79,18.89-3.67l0,0c6.04,5.17,7.44,15.18,3.07,22.32l0,0c-2.66,4.37-6.81,6.66-11,6.66l0,0
							C2681.84,2960.98,2679.05,2960.02,2676.66,2958z M2718.18,2945.43c-7.12-2.66-11.09-11.61-8.84-20.03l0,0
							c2.25-8.47,9.87-13.1,16.95-10.44l0,0c7.12,2.66,11.09,11.61,8.84,20.03l0,0c-1.8,6.82-7.17,11.18-12.89,11.18l0,0
							C2720.89,2946.17,2719.54,2945.96,2718.18,2945.43z"/><g><path fill="#B3DEFF" d="M3475.56,2317.48v326.26c0,35.31-24.21,63.92-54.1,63.92c-5.86,1.54-11.81,3.04-17.85,4.37
					c10.96-12.46,17.85-30.52,17.85-50.66c0,0-0.04-15.93-0.12-41.18c-0.57-186.38-120.48-342.02-277.49-360.15l-53.43-6.17
					c3.2-0.69,6.45-1.06,9.78-1.06h321.7c19.97,0.16,37.38,13.16,46.62,32.39c0.63,1.28,1.17,2.56,1.71,3.89l0.05,0.05
					c0.36,0.96,0.72,1.92,1.08,2.88c2.34,6.87,3.79,14.33,4.1,22.11C3475.52,2315.24,3475.56,2316.36,3475.56,2317.48z"/></g><g><path fill="#114D7A" d="M2867.38,2747.61v33.72c-48.33-129.6-134.32-146.7-208.71-127.68V2276.2h13.53l-2.12,366.42
					C2670.08,2642.62,2804.57,2602.67,2867.38,2747.61z"/></g><g><polygon fill="#114D7A" points="2442.49 2276.2 2442.49 2467.12 2606 2475.68 2606 2487.93 2424.36 2487.93 2424.36 2276.21"/></g><g><polygon fill="#114D7A" points="2192.26 2276.2 2192.26 2467.12 2355.77 2475.68 2355.77 2487.93 2174.13 2487.93 2174.13 2276.21"/></g><g><polygon fill="#114D7A" points="1942.02 2276.2 1942.02 2467.12 2105.53 2475.68 2105.53 2487.93 1923.89 2487.93 1923.89 2276.21"/></g><g><polygon fill="#114D7A" points="1706.28 2276.2 1706.28 2467.12 1869.79 2475.68 1869.79 2487.93 1688.15 2487.93 1688.15 2276.21"/></g><g><path fill="#FFFADE" d="M3395.08,2175.2h-417.69c-12.26-16.41-29.17-27.86-48.33-31.37h374.04
					C3336.92,2143.83,3368.44,2155.34,3395.08,2175.2z"/></g><g><path fill="#F5B0B0" d="M2977.39,2175.2h-724.1c-15.21,0-27.55-14.57-27.55-32.55l0,0h690.65c4.28,0,8.52,0.37,12.67,1.17
					C2948.22,2147.35,2965.13,2158.8,2977.39,2175.2z"/></g></g><g><ellipse cx="3647.13" cy="3180.48" fill="#909CB3" rx="537.14" ry="71.95" transform="rotate(-1.403 3651.821 3178.805)"/></g><g><polygon fill="#2F5C78" points="3301.84 1329.16 2985.43 1372.88 3016.18 1387.88 3409.78 1370.83"/><path fill="#93B1C4" d="M3834.27,1160.48l-21.56-1.06l-79.44,165.42l69.69,46.12
					C3802.95,1370.96,3819.97,1185.83,3834.27,1160.48z"/><path fill="#F2F2E8" d="M3136.74,1380.04c47.67,25.71,66.47,11,73.29,0.63c-0.06-0.01-0.09-0.02-0.09-0.02
						s-13.56-39.14-50.17-40.92l-22.92-14.91C3114.11,1349.19,3136.74,1380.04,3136.74,1380.04z"/><path fill="#C7C7BF" d="M3136.85,1324.81l22.92,14.91c36.61,1.78,50.17,40.92,50.17,40.92s0.03,0.01,0.09,0.02
						c2.69-4.08,3.51-7.49,3.51-7.49c-5.6-57.57-75.58-49.52-75.58-49.52C3137.57,1324.04,3137.2,1324.42,3136.85,1324.81z"/><path fill="#1D3B2C" d="M3187.91,1394.07c12.03-1.59,18.66-8.04,22.14-13.36c2.66-4.07,3.49-7.45,3.49-7.45
						c-1.85-19.05-10.76-30.92-21.85-38.26c8.25,8.19,14.43,20.09,15.89,37.35c0,0-0.15,0.67-0.52,1.78c0,0,0,0,0,0.01
						C3205.6,1378.48,3200.72,1389.58,3187.91,1394.07z"/><path fill="#FFFFF5" d="M3121.7,1350.65c-0.56,15.79,7.9,29.03,18.88,29.57c10.98,0.54,20.34-11.83,20.89-27.62
						c0.56-15.79-7.9-29.03-18.88-29.57S3122.25,1334.86,3121.7,1350.65z"/><path fill="#4D4D4D" d="M3125.57,1350.84c-0.38,10.77,4.17,20.14,10.8,23.66c1.63,0.87,3.4,1.38,5.24,1.47
						c9.33,0.46,17.28-10.06,17.75-23.48c0.28-8.04-2.18-15.3-6.21-19.93c-2.69-3.1-6.09-5.02-9.83-5.2
						C3133.99,1326.91,3126.04,1337.42,3125.57,1350.84z"/><path fill="#7A7A7A" d="M3130.14,1354.55c-0.28,8.05,2.19,15.32,6.23,19.95c1.63,0.87,3.4,1.38,5.24,1.47
						c9.33,0.46,17.28-10.06,17.75-23.48c0.28-8.04-2.18-15.3-6.21-19.93c-1.64-0.88-3.41-1.39-5.26-1.48
						C3138.56,1330.63,3130.61,1341.13,3130.14,1354.55z"/><path fill="#F2F2E8" d="M3190.08,1365.41c51.23,34.29,73.49,20,81.98,9.18c-0.06-0.02-0.1-0.03-0.1-0.03
						s-11.94-45.38-52.76-51.61l-24.42-19.34C3167.31,1328.26,3190.08,1365.41,3190.08,1365.41z"/><path fill="#C7C7BF" d="M3194.78,1303.61l24.42,19.34c40.82,6.23,52.76,51.61,52.76,51.61s0.03,0.01,0.1,0.03
						c3.34-4.26,4.55-7.98,4.55-7.98c-1.5-65.08-80.49-64.17-80.49-64.17C3195.65,1302.83,3195.21,1303.22,3194.78,1303.61z"/><path fill="#1D3B2C" d="M3246.2,1387.04c13.6-0.39,21.55-6.85,25.88-12.39c3.31-4.25,4.52-7.94,4.52-7.94
						c-0.5-21.53-9.49-35.85-21.28-45.35c8.56,10.12,14.49,24.16,14.69,43.64c0,0-0.22,0.73-0.73,1.93c0,0,0,0,0,0.01
						C3267.28,1371.64,3260.9,1383.5,3246.2,1387.04z"/><path fill="#FFFFF5" d="M3175.68,1330.78c-1.93,17.61,6.44,33.41,18.69,35.28c12.25,1.87,23.74-10.89,25.68-28.5
						c1.93-17.61-6.44-33.41-18.69-35.28C3189.1,1300.41,3177.61,1313.17,3175.68,1330.78z"/><path fill="#4D4D4D" d="M3180,1331.44c-1.32,12.01,3,23.02,10.13,27.73c1.76,1.16,3.69,1.94,5.75,2.26
						c10.4,1.59,20.17-9.26,21.81-24.23c0.98-8.96-1.18-17.38-5.3-23.02c-2.76-3.78-6.4-6.32-10.57-6.96
						C3191.4,1305.63,3181.64,1316.47,3180,1331.44z"/><path fill="#7A7A7A" d="M3184.81,1336.13c-0.98,8.98,1.18,17.41,5.32,23.04c1.76,1.16,3.69,1.94,5.75,2.26
						c10.4,1.59,20.17-9.26,21.81-24.23c0.98-8.96-1.18-17.38-5.3-23.02c-1.76-1.17-3.7-1.95-5.77-2.27
						C3196.21,1310.32,3186.45,1321.16,3184.81,1336.13z"/><path fill="#FAFAFA" d="M3094.56,1214.21c0.07,0.57,0.16,1.15,0.26,1.74c0.01,0.01,0.01,0.01,0.01,0.01
					c6.43,36.91,68.58,113.48,435.38,182.49c0,0,117.69,48.63,244.19,8.81c13.14-4.14,26.36-9.22,39.56-15.41
					c0,0,0.06-5.28-6.29-14.3c-11.6-16.47-44.6-45.38-138.46-77.28c-60.4-20.53-155.11-72.37-251.06-113.48
					c-90.72-38.86-182.56-68.13-247.6-52.24c-31.56,7.7-56.82,26.05-72.57,59.08c0,0-1.48,2.19-2.58,6.23
					C3094.44,1203.34,3093.77,1208.2,3094.56,1214.21z"/><path fill="#E5EDF2" d="M3294.67,1253.11c191.54,157.14,393.59,162.64,479.73,154.14c13.14-4.14,26.36-9.22,39.56-15.41
					c0,0,0.06-5.28-6.29-14.3c-13.99-8.75-54.75-17.09-54.75-17.09l-268.86-76.25L3294.67,1253.11z"/><path fill="#E5EDF2" d="M3094.56,1214.21c0.07,0.57,0.16,1.15,0.26,1.74c0.01,0.01,0.01,0.01,0.01,0.01
					c21.06-16.71,199.84,37.16,199.84,37.16l77.97,13.55c-263.02-112.02-277.24-66.81-277.24-66.81
					C3094.44,1203.34,3093.77,1208.2,3094.56,1214.21z"/><path fill="#2F5C78" d="M3094.56,1214.21c2.53,19.09,19.91,49.8,90.46,84.83c63.2,31.4,169.08,66.27,345.19,99.41
					c0,0,107.12,44.27,226.82,13.75c18.79-4.79,37.89-11.42,56.93-20.36c-194.8,25.63-386.49-79.39-386.49-79.39
					C3165.06,1183.38,3100.98,1210.69,3094.56,1214.21z"/><path fill="#1C2D61" d="M3308.66,1234.18c-1.12,0-2.26-0.2-3.38-0.62l-17.25-6.4c-2.87-1.07-5.23-3.4-6.63-6.57
					c-1.4-3.17-1.68-6.79-0.77-10.18l11.64-43.79c0.9-3.39,2.88-6.17,5.56-7.83c2.69-1.66,5.75-1.98,8.62-0.91l17.24,6.4
					c5.95,2.21,9.27,9.72,7.4,16.75l-11.64,43.79C3317.94,1230.52,3313.47,1234.18,3308.66,1234.18z M3303.08,1159.96
					c-1.44,0-2.86,0.41-4.18,1.22c-2.14,1.32-3.72,3.54-4.44,6.24l-11.64,43.79c-0.72,2.7-0.5,5.59,0.62,8.12
					c1.12,2.53,2.99,4.4,5.28,5.24l17.25,6.4c4.75,1.76,9.82-1.37,11.32-6.97l11.64-43.79c1.49-5.61-1.16-11.6-5.9-13.37l-17.25-6.4
					C3304.89,1160.12,3303.98,1159.96,3303.08,1159.96z"/><path fill="#242A2E" d="M3209.72,1151l-8.27,18.76c0,0-42.09-1.34-72.66-15.52c5.76-4.66,12.52-8.54,19.75-12.05
					C3148.53,1142.19,3200.75,1151.74,3209.72,1151z"/><path fill="#326587" d="M3364.22,1228.67l10.02,3.74c1.96,0.73,3.98,0.45,5.66-0.6c1.67-1.03,3.02-2.82,3.62-5.11l6.31-23.56
							c1.23-4.6-0.93-9.52-4.83-10.97l-10.01-3.75c-0.56-0.21-1.12-0.33-1.67-0.37c-3.35-0.31-6.56,2.13-7.62,6.08l-6.3,23.56
							C3358.16,1222.3,3360.32,1227.21,3364.22,1228.67z"/><path fill="#326587" d="M3407.89,1244.16l9.86,3.69c1.89,0.7,3.85,0.42,5.47-0.64c1.53-0.97,2.76-2.64,3.33-4.76l6.14-22.96
							c1.16-4.35-0.88-9-4.56-10.38l-9.87-3.69c-0.49-0.19-0.97-0.29-1.46-0.35c-3.22-0.37-6.32,1.94-7.33,5.74l-6.14,22.96
							C3402.16,1238.13,3404.2,1242.78,3407.89,1244.16z"/><path fill="#326587" d="M3451.57,1259.66l9.72,3.63c1.83,0.68,3.73,0.38,5.28-0.66c1.39-0.94,2.5-2.49,3.02-4.43l5.98-22.35
							c1.09-4.12-0.83-8.5-4.31-9.8l-9.72-3.63c-0.42-0.16-0.84-0.26-1.26-0.31c-3.08-0.43-6.07,1.78-7.04,5.4l-5.98,22.35
							C3446.15,1253.97,3448.08,1258.36,3451.57,1259.66z"/><path fill="#326587" d="M3495.23,1275.15l9.58,3.57c1.76,0.66,3.58,0.34,5.05-0.7c1.26-0.88,2.27-2.3,2.75-4.08l5.82-21.74
							c1.04-3.86-0.78-7.99-4.05-9.21l-9.58-3.57c-0.35-0.13-0.7-0.22-1.06-0.27c-2.93-0.47-5.81,1.6-6.74,5.05l-5.82,21.74
							C3490.15,1269.8,3491.96,1273.92,3495.23,1275.15z"/><path fill="#326587" d="M3538.91,1290.64l9.44,3.52c1.7,0.63,3.46,0.31,4.85-0.74c1.13-0.83,2.01-2.13,2.44-3.74l5.66-21.14
							c0.97-3.61-0.73-7.47-3.79-8.62l-9.44-3.53c-0.28-0.1-0.56-0.18-0.85-0.23c-2.8-0.53-5.57,1.42-6.45,4.71l-5.66,21.14
							C3534.15,1285.64,3535.84,1289.5,3538.91,1290.64z"/><path fill="#326587" d="M3582.57,1306.14l9.3,3.47c1.63,0.61,3.33,0.26,4.65-0.79c0.99-0.78,1.77-1.95,2.15-3.39l5.5-20.53
							c0.91-3.38-0.67-6.98-3.53-8.04l-9.29-3.48c-0.21-0.08-0.43-0.15-0.65-0.19c-2.65-0.59-5.32,1.24-6.15,4.36l-5.5,20.54
							C3578.14,1301.47,3579.72,1305.07,3582.57,1306.14z"/><path fill="#326587" d="M3626.25,1321.63l9.15,3.41c1.57,0.59,3.21,0.21,4.45-0.85c0.85-0.72,1.52-1.75,1.86-3.02l5.33-19.92
							c0.84-3.13-0.63-6.46-3.28-7.45l-9.15-3.41c-0.15-0.05-0.3-0.1-0.44-0.14c-2.51-0.65-5.07,1.06-5.86,4.01l-5.33,19.92
							C3622.14,1317.31,3623.6,1320.63,3626.25,1321.63z"/><path fill="#1C2D61" d="M3368.25,1227.07l10.01,3.69c0.55,0.21,1.11,0.33,1.66,0.38c1.67-1.01,3.02-2.77,3.62-5.02l6.3-23.19
							c1.23-4.53-0.94-9.37-4.83-10.8l-10.01-3.7c-0.56-0.21-1.12-0.32-1.67-0.37c-1.67,1.01-3,2.76-3.61,5.02l-6.3,23.2
							C3362.19,1220.8,3364.36,1225.64,3368.25,1227.07z"/><path fill="#1C2D61" d="M3411.93,1242.36l9.87,3.64c0.48,0.19,0.96,0.29,1.46,0.34c1.53-0.96,2.76-2.6,3.32-4.69l6.13-22.6
							c1.16-4.28-0.89-8.87-4.57-10.22l-9.87-3.64c-0.49-0.19-0.97-0.29-1.46-0.34c-1.53,0.96-2.76,2.6-3.32,4.69l-6.13,22.6
							C3406.2,1236.42,3408.24,1241,3411.93,1242.36z"/><path fill="#1C2D61" d="M3455.61,1257.65l9.73,3.59c0.42,0.16,0.84,0.26,1.26,0.31c1.39-0.93,2.5-2.45,3.02-4.36l5.97-21.99
							c1.09-4.05-0.83-8.37-4.32-9.65l-9.72-3.59c-0.42-0.16-0.84-0.26-1.26-0.3c-1.4,0.92-2.51,2.43-3.03,4.35l-5.96,21.99
							C3450.2,1252.04,3452.12,1256.36,3455.61,1257.65z"/><path fill="#1C2D61" d="M3499.28,1272.93l9.58,3.53c0.35,0.12,0.7,0.21,1.05,0.27c1.26-0.86,2.27-2.26,2.74-4.02l5.8-21.4
							c1.04-3.8-0.78-7.86-4.05-9.07l-9.58-3.52c-0.35-0.13-0.7-0.21-1.06-0.27c-1.26,0.86-2.26,2.25-2.73,4.01l-5.81,21.4
							C3494.2,1267.67,3496.01,1271.73,3499.28,1272.93z"/><path fill="#1C2D61" d="M3542.96,1288.22l9.44,3.48c0.28,0.1,0.57,0.18,0.85,0.23c1.13-0.82,2.01-2.09,2.44-3.68l5.65-20.81
							c0.97-3.55-0.74-7.36-3.8-8.49l-9.44-3.48c-0.28-0.1-0.57-0.18-0.85-0.23c-1.13,0.82-2.01,2.09-2.45,3.68l-5.64,20.8
							C3538.2,1283.29,3539.9,1287.09,3542.96,1288.22z"/><path fill="#1C2D61" d="M3586.64,1303.51l9.29,3.43c0.21,0.08,0.43,0.14,0.64,0.18c0.98-0.77,1.77-1.92,2.15-3.33l5.48-20.2
							c0.9-3.32-0.68-6.87-3.54-7.92l-9.29-3.43c-0.21-0.08-0.44-0.15-0.65-0.18c-0.98,0.77-1.76,1.92-2.14,3.34l-5.48,20.2
							C3582.2,1298.91,3583.79,1302.45,3586.64,1303.51z"/><path fill="#1C2D61" d="M3630.32,1318.79l9.16,3.37c0.15,0.05,0.29,0.1,0.44,0.13c0.85-0.7,1.52-1.72,1.86-2.97l5.32-19.61
							c0.83-3.08-0.63-6.36-3.28-7.34l-9.15-3.37c-0.15-0.05-0.3-0.1-0.44-0.14c-0.85,0.71-1.52,1.73-1.86,2.98l-5.32,19.61
							C3626.2,1314.53,3627.67,1317.82,3630.32,1318.79z"/><path fill="#BFC5C9" d="M3479.18,1282.55L3479.18,1282.55c0.3-8.55,5.84-15.56,13.03-16.51l611.54-80.54l36.48,21.73
					L3479.18,1282.55z"/><polygon fill="#FFF" points="3812.71 1159.43 3797.65 1164.02 3713.97 1317.04 3733.26 1324.84"/><polygon fill="#2F5C78" points="3479.18 1282.55 4106.97 1192.7 4140.22 1207.24 3609.7 1326.78"/><path fill="#F2F2E8" d="M3758.5,1265.15c57.92,31.24,80.76,13.36,89.04,0.77c-0.07-0.01-0.11-0.02-0.11-0.02
						s-16.48-47.56-60.95-49.72l-27.85-18.12C3731.01,1227.67,3758.5,1265.15,3758.5,1265.15z"/><path fill="#C7C7BF" d="M3758.64,1198.05l27.85,18.12c44.47,2.16,60.95,49.72,60.95,49.72s0.04,0.01,0.11,0.02
						c3.26-4.96,4.27-9.1,4.27-9.1c-6.81-69.94-91.83-60.17-91.83-60.17C3759.52,1197.11,3759.07,1197.58,3758.64,1198.05z"/><path fill="#1D3B2C" d="M3820.68,1282.2c14.62-1.93,22.67-9.77,26.89-16.23c3.23-4.94,4.23-9.05,4.23-9.05
						c-2.25-23.14-13.08-37.56-26.54-46.48c10.02,9.95,17.53,24.41,19.3,45.38c0,0-0.18,0.81-0.63,2.16c0,0,0,0,0,0.01
						C3842.17,1263.26,3836.25,1276.75,3820.68,1282.2z"/><path fill="#FFFFF5" d="M3740.23,1229.45c-0.67,19.19,9.6,35.28,22.94,35.93c13.35,0.66,24.71-14.37,25.39-33.56
						c0.67-19.19-9.6-35.28-22.94-35.93C3752.27,1195.23,3740.91,1210.26,3740.23,1229.45z"/><path fill="#4D4D4D" d="M3744.94,1229.67c-0.46,13.08,5.06,24.47,13.12,28.75c1.99,1.06,4.13,1.68,6.37,1.79
						c11.33,0.56,20.99-12.22,21.56-28.52c0.34-9.77-2.65-18.59-7.54-24.21c-3.27-3.77-7.4-6.09-11.94-6.32
						C3755.17,1200.6,3745.51,1213.37,3744.94,1229.67z"/><path fill="#7A7A7A" d="M3750.49,1234.19c-0.34,9.78,2.66,18.62,7.57,24.23c1.99,1.06,4.13,1.68,6.37,1.79
						c11.33,0.56,20.99-12.22,21.56-28.52c0.34-9.77-2.65-18.59-7.54-24.21c-1.99-1.07-4.14-1.69-6.39-1.8
						C3760.72,1205.12,3751.07,1217.88,3750.49,1234.19z"/><g><path fill="#F2F2E8" d="M3646.05,1283.32c62.24,41.66,89.29,24.29,99.6,11.15c-0.08-0.02-0.12-0.04-0.12-0.04
						s-14.5-55.13-64.1-62.7l-29.67-23.5C3618.38,1238.19,3646.05,1283.32,3646.05,1283.32z"/><path fill="#C7C7BF" d="M3651.76,1208.24l29.67,23.5c49.6,7.57,64.1,62.7,64.1,62.7s0.04,0.02,0.12,0.04
						c4.06-5.17,5.53-9.69,5.53-9.69c-1.83-79.07-97.8-77.96-97.8-77.96C3652.82,1207.29,3652.28,1207.76,3651.76,1208.24z"/><path fill="#1D3B2C" d="M3714.23,1309.6c16.52-0.47,26.18-8.32,31.45-15.05c4.03-5.16,5.49-9.64,5.49-9.64
						c-0.6-26.16-11.52-43.55-25.86-55.09c10.4,12.29,17.6,29.35,17.85,53.02c0,0-0.27,0.89-0.89,2.34c0,0,0,0,0,0.01
						C3739.85,1290.88,3732.1,1305.3,3714.23,1309.6z"/><ellipse cx="3655.5" cy="1245.37" fill="#FFFFF5" rx="39.01" ry="27.21" transform="rotate(-86.066 3655.767 1245.377)"/><path fill="#4D4D4D" d="M3633.8,1242.05c-1.6,14.59,3.64,27.97,12.31,33.7c2.14,1.41,4.48,2.36,6.98,2.74
						c12.64,1.93,24.51-11.25,26.5-29.43c1.19-10.89-1.43-21.11-6.44-27.97c-3.35-4.59-7.78-7.68-12.84-8.45
						C3647.66,1210.69,3635.79,1223.86,3633.8,1242.05z"/><path fill="#7A7A7A" d="M3639.65,1247.74c-1.2,10.91,1.43,21.15,6.46,28c2.14,1.41,4.48,2.36,6.98,2.74
						c12.64,1.93,24.51-11.25,26.5-29.43c1.19-10.89-1.43-21.11-6.44-27.97c-2.14-1.42-4.5-2.37-7.01-2.76
						C3653.5,1216.39,3641.64,1229.56,3639.65,1247.74z"/></g><g><path fill="#1D382A" d="M3844.57,1255.82c0,0-0.18,0.81-0.63,2.16c0,0,0,0,0,0.01c0.1,0.2,3.35,6.78,3.61,7.93
					c0.01,0.03,0.01,0.05,0.03,0.06c3.23-4.94,4.23-9.05,4.23-9.05c-2.25-23.14-13.08-37.56-26.54-46.48
					C3835.29,1220.38,3842.8,1234.85,3844.57,1255.82z"/></g><g><polygon fill="#2F5C78" points="3748.51 1360.76 3927.46 1348.43 3943.42 1360.65 3783.16 1385.34"/></g><g><polygon fill="#93B1C4" points="3748.85 1351.1 3927.46 1348.43 3748.51 1360.76"/></g><g><path fill="#F7FCFF" d="M3170.56,1134.54c0,0,15.93,13.17,54.26,5.87c0,0,117.75,16.11,200.3,50.18
					c-0.23-0.14-2.68-1.53-6.96-3.81C3327.44,1147.92,3235.6,1118.65,3170.56,1134.54z"/></g><g><path fill="#284D66" d="M3185.02,1299.04c63.2,31.4,169.08,66.27,345.19,99.41c0,0,107.12,44.27,226.82,13.75
					c-37.04-1.75-183.23-9.51-212.79-24.24C3518.25,1375,3290.07,1322.73,3185.02,1299.04z"/></g></g><g><path fill="#170606" d="M3788.7,3191.55h-72.96c-0.83,0-1.51-0.67-1.51-1.51v-80.33c0-0.83,0.67-1.51,1.51-1.51h72.96
					c0.83,0,1.51,0.67,1.51,1.51v80.33C3790.2,3190.88,3789.53,3191.55,3788.7,3191.55z"/><path fill="#170606" d="M4089.37,3191.55h-72.96c-0.83,0-1.51-0.67-1.51-1.51v-80.33c0-0.83,0.67-1.51,1.51-1.51h72.96
					c0.83,0,1.51,0.67,1.51,1.51v80.33C4090.88,3190.88,4090.21,3191.55,4089.37,3191.55z"/><path fill="#331010" d="M3790.63,3177.09v0.8c0,7.36-5.1,13.3-11.33,13.3h-53.35c-6.23,0-11.33-5.94-11.33-13.3v-56.64
					c0-5.94,3.38-11.08,7.95-12.68c-1.65,2.22-2.55,5.14-2.55,8.25v52.83c0,7.36,5.1,13.39,11.33,13.39h49.9
					C3785.15,3183.04,3788.6,3180.64,3790.63,3177.09z"/><path fill="#331010" d="M4091.29,3121.25v56.64c0,7.36-5.03,13.3-11.33,13.3h-53.35c-6.23,0-11.26-5.94-11.26-13.3v-7.45
					c0,7.45,5.03,13.39,11.26,13.39h49.9c6.23,0,11.33-5.94,11.33-13.39v-52.74c0-3.01-0.9-5.85-2.4-8.07
					C4088.97,3111.85,4091.29,3116.2,4091.29,3121.25z"/><path fill="#D63636" d="M4082.25,2921.46v241.21c0,11.35-7.73,20.48-17.26,20.48h-324c-9.6,0-17.33-9.13-17.33-20.48v-241.21
					c0-28.63,19.66-51.77,43.82-51.77h270.95C4062.59,2869.69,4082.25,2892.83,4082.25,2921.46z"/><path fill="#D64D4D" d="M4082.25,2921.46v15.69c0-28.63-19.66-51.77-43.82-51.77h-270.95c-24.16,0-43.82,23.14-43.82,51.77
					v-15.69c0-28.63,19.66-51.77,43.82-51.77h270.95C4062.59,2869.69,4082.25,2892.83,4082.25,2921.46z"/><path fill="#332F2F" d="M3990.35,2798.93H3822c-0.58,0-1.04-0.47-1.04-1.04v-16.43c0-0.58,0.47-1.04,1.04-1.04h168.35
						c0.58,0,1.04,0.47,1.04,1.04v16.43C3991.39,2798.46,3990.93,2798.93,3990.35,2798.93z"/><path fill="#171515" d="M3991.36,2789.71c0,5.14-3.45,9.22-7.8,9.22h-154.8c-4.28,0-7.8-4.08-7.8-9.22
						c0-2.13,0.6-4.08,1.65-5.67c-0.23,0.89-0.38,1.86-0.38,2.84c0,5.05,3.53,9.22,7.88,9.22h152.17c4.28,0,7.8-4.16,7.8-9.22
						c0-1.06-0.15-2.04-0.38-2.93C3990.76,2785.55,3991.36,2787.5,3991.36,2789.71z"/><rect width="15.23" height="75" x="3827.8" y="2798.95" fill="#332F2F"/><path fill="#332F2F" d="M3843.04,2873.95c0,0.62-3.38,1.06-7.58,1.06c-3.23,0-5.93-0.27-7.05-0.62
						c-0.53-0.27-0.6-0.44-0.6-0.44c0-0.53,3.38-1.06,7.65-1.06c0.75,0,1.58,0,2.25,0.09h0.07
						C3840.86,2873.06,3843.04,2873.5,3843.04,2873.95z"/><rect width="15.28" height="75.03" x="3968.28" y="2798.93" fill="#332F2F"/><rect width="2.78" height="75.01" x="3840.32" y="2798.94" fill="#171515"/><rect width="2.7" height="75.01" x="3980.86" y="2798.94" fill="#171515"/><path fill="#171515" d="M3843.04,2871.2v2.75c0,0.62-3.38,1.06-7.58,1.06c-3.23,0-5.93-0.27-7.05-0.62
						c-0.53-0.27-0.6-0.44-0.6-0.44h1.5c4.13,0,6.75-0.44,8.4-0.97h0.07c2.1-0.71,2.55-1.42,2.55-1.42L3843.04,2871.2z"/><path fill="#332F2F" d="M3983.53,2873.95c0,0.62-3.38,1.06-7.58,1.06c-3.23,0-5.93-0.27-7.05-0.62
						c-0.53-0.27-0.6-0.44-0.6-0.44c0-0.53,3.38-1.06,7.65-1.06c0.75,0,1.58,0,2.25,0.09h0.07
						C3981.36,2873.06,3983.53,2873.5,3983.53,2873.95z"/><path fill="#171515" d="M3983.53,2871.2v2.75c0,0.62-3.38,1.06-7.58,1.06c-3.23,0-5.93-0.27-7.05-0.62
						c-0.53-0.27-0.6-0.44-0.6-0.44h1.5c4.13,0,6.75-0.44,8.41-0.97h0.07c2.1-0.71,2.55-1.42,2.55-1.42L3983.53,2871.2z"/><path fill="#C92C2C" d="M4082.25,3062.77v99.91c0,11.35-7.73,20.48-17.26,20.48h-324c-9.6,0-17.33-9.13-17.33-20.48v-99.91
					c0,0,94.09,83.33,179.33,28.19C3902.99,3090.95,3991.38,3147.51,4082.25,3062.77z"/><rect width="8.24" height="177.73" x="3774.13" y="2930.48" fill="#5E1515"/><rect width="8.24" height="179.11" x="3827.8" y="2930.48" fill="#5E1515"/><rect width="8.24" height="177.73" x="3975.92" y="2930.48" fill="#5E1515"/><rect width="8.24" height="157.78" x="3901.86" y="2950.42" fill="#5E1515"/><rect width="8.24" height="179.11" x="4029.6" y="2930.48" fill="#5E1515"/><rect width="77.18" height="18.76" x="3867.39" y="2925.25" fill="#5E1515"/></g><g><path fill="#FAAB82" d="M3372.91,3098.01l-8.11,39.94c0,0-25.61,2.52-27.31,0c-1.71-2.52-4.27-37.82-4.27-37.82L3372.91,3098.01
					z"/><path fill="#FAAB82" d="M3487.99,3118.03l2.22-33.97l-44.64,3.59l8.23,37.96C3453.8,3125.61,3485.43,3137.82,3487.99,3118.03z"/><path fill="#4F1818" d="M3384.12,2614.37l18.01,104.64l2.45,14.24l14.92,86.71v0.05l3.78,21.98l1.51,73.86l3.6,177.23
					c33.3,15.13,66.58-3.01,70.43-6.05c0.28-0.24,0.66-2.14,1.12-5.46c5.52-40.94,21.93-297.68,21.15-309.16
					c-3.21-47.65-37.42-185.06-37.42-185.06l-78.57,21.34L3384.12,2614.37z"/><path fill="#4F1818" d="M3297.8,2782.73l17.29,309.33c0,0,8.42,11.62,25.27,13.77c11.01,1.41,25.63-1.2,43.86-13.77
					l20.36-358.81l0.58-10.26l1.1-20.8v-0.02l4.86-92.83l-6.01-0.66l-85.68-9.41L3297.8,2782.73z"/><path fill="#FF7340" d="M3234.62,2418.44c0,0,0.68,0.56,1.93,1.58c10.91,8.78,64.65,50.99,82.42,44.73
					c1.08-0.38,2.13-1.32,3.13-2.75c18.06-25.15,29.62-203.75,20.42-229.3c0,0-41.31,52.64-44.71,141.37h-52.06
					c0,0,2.31,24.57-4.96,37.77c-0.02,0-0.02,0-0.02,0c-0.96,1.79-2.13,3.39-3.49,4.66
					C3236.46,2417.26,3235.58,2417.9,3234.62,2418.44z"/><path fill="#D93F20" d="M3234.62,2418.44c10.91,8.78,66.58,52.57,84.35,46.31c1.08-0.38,2.13-1.32,3.13-2.75l2.95-128.69
					c-8.8,7.65-5.42,110.26-20.63,115.63c-15.02,5.29-62.4-36-63.64-37.11c-0.02,0-0.02,0-0.02,0c-1.69,1.34-2.85,2.92-3.49,4.66
					C3236.83,2417.59,3234.66,2417.19,3234.62,2418.44z"/><path fill="#FF7340" d="M3419.86,2210.19c0,0,29.88-4.79,44.6,16.39c14.72,21.18,51.86,329,19.21,360.77
					c-32.65,31.77-143.4,35.55-167.09,11.34c0,0,1.43-310.76,21.77-358.5C3354.99,2201.11,3419.86,2210.19,3419.86,2210.19z"/><path fill="#FAAB82" d="M3379,2228.86c6.17,6.8,42.14,14.24,40.87-18.66l-2.51-57.86l-29.08,21.04l0.46,13.55l0.4,11.69
					l0.32,9.55C3389.46,2208.17,3372.81,2222.03,3379,2228.86z"/><path fill="#4F1818" d="M3282.31,3200.86c0,2.72,0.19,4.42,0.19,4.42s0.14,0.06,0.43,0.11c5.43,1.3,60.79,14.01,85.23-3.91
						c6.63-4.94,2.35-47.99,0.77-65.97c-0.34-3.8-3.22-6.64-6.39-6.13c-3.6,0.62-8.55,0.62-14.12-0.85
						c-2.93-0.74-6.05-1.93-9.22-3.63c-3.46-1.87-6.58-0.51-9.32,2.61c0,0.06-0.05,0.06-0.1,0.11c0,0.06-0.05,0.11-0.1,0.17
						c-0.1,0.06-0.14,0.17-0.24,0.28c-0.38,0.51-1.01,1.36-1.78,2.44c-7.2,11.46-11.24,34.04-11.24,34.04
						c-2.69,0.22-5.19,0.57-7.44,1.13c-0.24,0.06-0.38,0.06-0.38,0.06c-22.9,5.39-26.07,25.35-26.26,34.71
						C3282.31,3200.58,3282.31,3200.75,3282.31,3200.86z"/><path fill="#300E0E" d="M3282.31,3200.46v0.4l0.19,4.42c0,0,0.14,0.06,0.43,0.11c5.43,1.3,60.79,14.01,85.23-3.91
						c6.63-4.94,2.35-47.99,0.77-65.97c-0.34-3.8-3.22-6.64-6.39-6.13c-3.6,0.62-8.55,0.62-14.12-0.85c0,0,6.96,5.16,12,5.16
						c4.99,0,7.78,41.58,7.49,47.65c-0.24,6.07-2.11,18.78-8.88,22.4c-6.72,3.63-59.2,1.7-76.68-3.29H3282.31z"/><path fill="#872727" d="M3309.01,3165.69c2.88-0.4,21.89-2.5,35.39,13.5c0,0-3.26-14.46-26.31-15.65c0,0,1.97-19,11.62-35.74
						c-0.1,0.06-0.14,0.17-0.24,0.28c-0.38,0.51-1.01,1.36-1.78,2.44c-7.2,11.46-11.24,34.04-11.24,34.04
						C3313.76,3164.78,3311.27,3165.12,3309.01,3165.69z"/><path fill="#4F1818" d="M3446.44,3186.37c3.33,7.11,87.08,1.81,87.08,1.81s0.88-2.82,1.33-6.94c0.54-4.92,0.46-11.72-2.45-17.69
					c-1.97-4.07-7.19-8.24-13.03-11.91c-9.92-6.24-21.65-11.06-22.31-11.69c-1.87-2.05-5.42-15.98-6.67-21.13
					c-0.02-0.05-0.02-0.07-0.02-0.09c-0.02-0.05-0.04-0.12-0.04-0.17c-0.26-1.03-0.4-1.65-0.4-1.65
					c-21.85,13.18-39.68,4.52-39.68,4.52s-1.83,14.78-3.21,30.35c0,0,0,0.05,0,0.17
					C3445.71,3167.07,3444.83,3182.89,3446.44,3186.37z"/><path fill="#300E0E" d="M3446.45,3186.37c3.32,7.1,87.08,1.81,87.08,1.81s0.87-2.84,1.33-6.96c-10.7,5.98-84.18,4.36-86.62,1.22
					c-2.32-2.99-1.24-28.36-1.16-30.52C3445.7,3167.07,3444.83,3182.89,3446.45,3186.37z"/><path fill="#D93F20" d="M3460.58,2304.22l7.94,80.94l-27.37,3.24l25.66,23.44c0,0,27.74-7.52,27.74-11.05
					S3460.58,2304.22,3460.58,2304.22z"/><path fill="#872727" d="M3487.99,3146.98l8.9-4.49l22.49,9.15c-9.92-6.24-21.65-11.06-22.31-11.69
					c-1.87-2.05-5.42-15.98-6.67-21.13c0.38,2.38,3.47,20.78,2.87,22.42C3492.67,3142.88,3488.51,3146.53,3487.99,3146.98z"/><path fill="#FF7340" d="M3424.13,2416.93c0,0,0,0,0.02,0.02c0.1,0.16,0.62,0.94,1.55,2.21c6.15,8.33,30.49,37.77,73.53,47.67
					c47.44,10.92,50.99-12.68,33.38-105.09c-1.1-5.69-2.27-11.67-3.51-17.91c-21.13-105.93-72.88-125.67-72.88-125.67
					c-14.82,31.67,26.79,184.64,26.79,184.64l-43.96-15.13c-5.52,1.18-9.18,4.35-11.51,8.99
					C3424.95,2401.85,3424.04,2408.84,3424.13,2416.93z"/><path fill="#D93F20" d="M3424.15,2416.95c0.76,1.18,25.51,38.47,75.09,49.88c47.44,10.92,50.99-12.68,33.38-105.09
					c-2.91-2.47,0.02,69.04-1.25,81.89c-1.29,12.87-7.69,16.26-30.41,15.13C3478.49,2457.66,3425.41,2417.9,3424.15,2416.95z"/><path fill="#D93F20" d="M3424.13,2416.93c0,0,0,0,0.02,0.02c0.1,0.16,0.62,0.94,1.55,2.21c1.81,1.76,4.4,3.34,7.95,4.66
					c0,0-8.84-10.47-6.09-27.15C3424.95,2401.85,3424.04,2408.84,3424.13,2416.93z"/><path fill="#EDA17B" d="M3182.71,2388.33c0,0-17.32-3.57-21.68-7.99c-4.36-4.42,13.95-27.96,18.97-27.58
					S3194.07,2373.87,3182.71,2388.33z"/><path fill="#FAAB82" d="M3437.5,2393.35l-15.53-15.99c0,0-9-27.74-16.74-32.31c-7.74-4.57,0,19.59,0,19.59
					s-9.27-11.12-26.53-16.33c-17.71-5.34,5.53,10.45,11.33,15.35c0,0-20.73-10.12-25.43-9.14c-4.7,0.98,14.03,12.74,19.83,15.67
					c0,0-18.66-6.61-23.01-4.65s13.68,7.59,17.83,10.04c0,0-3.99-0.4-8.79,0.02c-10.79,0.94,0.96,7.03,19.1,10.06
					c11.94,1.99,17.09,6.68,22.89,11.01l18.89,13.58C3431.33,2410.25,3439.27,2407.31,3437.5,2393.35z"/><path fill="#D97644" d="M3388.74,2186.93l0.4,11.69c9.2-5.34,21.07-12.24,21.33-12.45L3388.74,2186.93z"/><path fill="#FAAB82" d="M3245.96,2377.46c0,0-33.41-10.58-36.61-12.85c-3.2-2.27-21.45-22.31-28.17-26.09
					c-6.72-3.78-28.49,3.4-26.25,7.56c2.24,4.16,24.33,1.89,26.25,4.92c1.92,3.03,8.64,21.18,3.84,29.88
					c-4.8,8.7-3.52,9.08,9.6,10.59s40.69,22.65,46.48,23.96C3246.9,2416.73,3251.84,2393.33,3245.96,2377.46z"/><path fill="#EDA17B" d="M3186.26,2367.27c0,0,2.15-18.12-6.61-20.57C3179.65,2346.7,3174.25,2365.45,3186.26,2367.27z"/><path fill="#FAAB82" d="M3175.73,2380.11c0,0-8.75,2.02-15.58,0c-6.83-2.02-8.32-31.36-0.85-34.29
					c7.47-2.93,24.75-3.03,24.97,9.07C3184.48,2367,3175.73,2380.11,3175.73,2380.11z"/><path fill="#FAAB82" d="M3371.46,2107.68c0,0-30.3,89.75,19.63,85.72c49.94-4.03,29.02-79.67,26.89-80.68
					C3415.85,2111.71,3393.65,2091.04,3371.46,2107.68z"/><path fill="#3D1212" d="M3340.36,3105.83c11.01,1.41,25.63-1.2,43.86-13.77l20.36-358.81l14.92,86.71l-13.24-117.77l-2.32-17.14
					l-31.02,153.15c0,0,0.82,230.95-1.16,238.01C3369.92,3082.74,3344.11,3102.93,3340.36,3105.83z"/><path fill="#3D1212" d="M3424.79,2915.84l3.6,177.23c33.3,15.13,66.58-3.01,70.43-6.05c0.28-0.24,0.66-2.14,1.12-5.46
					c-10.28,1.36-62.3,3.69-62.3,2.49c0-1.2-6.87-171.82-10.66-169.72C3426.22,2914.76,3425.49,2915.26,3424.79,2915.84z"/><path fill="#3D1212" d="M3434.69,2100.03c0,0-10.97,6.05-34.52,16.69c-23.55,10.64-46.93,15.39-50.79-14.94
					c-3.86-30.33-1.06-47.84,15.52-44.67S3425.47,2061.69,3434.69,2100.03z"/><path fill="#3D1212" d="M3433.25,2100.03c0,0,17.57,2.5,16.65,19.96c-0.92,17.45-15.76,44.23-16.24,57.15
					c-0.48,12.91-18.31,14.2-17.87,9.66c0.43-4.54,13.34-48.22-8.87-73.81C3406.91,2112.98,3409.39,2099.15,3433.25,2100.03z"/><path fill="#FAAB82" d="M3415.81,2142.75c-1.14,5.15,0.61,10.15,3.91,11.17c3.29,1.01,6.88-2.34,8.02-7.5
					c1.14-5.15-0.61-10.15-3.91-11.17C3420.54,2134.24,3416.95,2137.6,3415.81,2142.75z"/></g><g><ellipse cx="2036.48" cy="3189.16" fill="#909CB3" rx="286.03" ry="38.86"/></g><g><polygon fill="#FFBE7D" points="1939.02 2421.18 1908.02 2465.9 1919.17 2509.97 1956.23 2450.84 1964.74 2419.59"/><path fill="#3F8CD9" d="M1972.03,2321.98l-5.49,44.03l-6.84,55.01c-0.26,2.12-0.51,4.19-0.77,6.31c0,0-25.31-4.15-31.05-15.34
					c-1.35-2.59-1.61-5.57-0.29-8.99c6.84-17.5,42.14-77.14,44.33-80.85c0.04-0.04,0.04-0.09,0.07-0.13
					C1972.03,2321.98,1972.03,2321.98,1972.03,2321.98z"/><path fill="#FFBE7D" d="M1973.61,2881.07l-48.9,250.33l-3.95,20.27c0,0-29.26-1.25-36.94-8.47c-1.65-1.47-2.3-3.28-1.46-5.4
					c0.18-0.47,0.4-1.34,0.7-2.55c6.25-27.09,35.48-231.67,40.78-269c0.55-3.76,0.84-5.83,0.84-5.83
					C1959.16,2859.85,1973.61,2881.07,1973.61,2881.07z"/><path fill="#FFBE7D" d="M2198.01,3119.04l-38.22,65.64c0,0-63.65,4.84-70.92,1.38c-3.55-1.73,1.87-8.38,9.91-14.69
					c8.41-6.65,19.72-12.92,26.63-12.75c9.73,0.26,14.49-16.51,16.39-25.97c0.11-0.43,0.18-0.86,0.29-1.25
					c0.55-3.02,0.8-5.06,0.8-5.06s-86.62-187.59-103.55-229.46c-1.83-4.49-2.85-7.35-2.85-8.04c-0.15-7.3,15.55-29.99,52.38-28.39
					c0,0,60.35,189.83,72.09,212.74C2172.74,3096.14,2198.01,3119.04,2198.01,3119.04z"/><path fill="#262E2D" d="M1942.38,2669.49c0,0-33.79,180.78-30.26,194.67c3.53,13.89,76.03,18.06,76.03,18.06l38.01-164.36
					l-9.01-28.76L1942.38,2669.49z"/><path fill="#191F1E" d="M2075.3,2671.09c0,0,4.56,119.45,35.91,175.94c-4.31,25-68.66,64.82-87,44.45
					c-5.11-5.67-54.3-122.98-50.38-208.58L2075.3,2671.09z"/><path fill="#3F8CD9" d="M2088.68,2657.92c0,15.26-6.47,20.57-34.71,26.79c-28.2,6.27-104.03,9.98-113.43-19.19
					c-0.88-2.64-1.32-7.43-1.46-13.92c-0.77-35.87,8.45-124.45,17.01-199.3c0.95-8.56,1.94-16.9,2.85-24.98
					c0.26-2.12,0.51-4.19,0.77-6.31c2.34-20.18,4.54-38.37,6.26-52.98c0.04-0.04,0.04-0.09,0.04-0.13
					c2.19-18.71,3.69-31.55,3.91-35.05c0.29-4.45,1.02-7.95,2.01-10.72c0.04-0.04,0.04-0.09,0.07-0.13
					c3.22-8.77,8.82-9.98,8.82-9.98c3.8-9.72,55.82-22.9,55.82-22.9c29.63-3.5,44.15,48.44,50.81,114.34
					C2097.97,2508.31,2088.68,2648.54,2088.68,2657.92z"/><path fill="#F0953A" d="M1944.37,2421.97c0,0,6.12,4.86,8.77,10.77c2.65,5.9-20.52,37.85-25.25,46.53
					c-4.73,8.68-17.05-8.76-17.05-8.76l6.73,35.5l33.8-42.02c0,0,10.75-18.34,10.52-21.15c-0.23-2.81,0-20.87,0-20.87H1944.37z"/><path fill="#3372B0" d="M1959.6,2458.1c-0.37,1.3-2.2-2.68-3.51-5.79c0.95-8.56,1.94-16.9,2.85-24.98
					c0,0-25.31-4.15-31.05-15.34c0.84-0.04,3.15,0.91,7.32,2.46c9.18,3.46,21.36,2.81,21.36,2.81s5.78-35.61,9.4-49.22
					c0.04-0.04,0.04-0.09,0.04-0.13c0.22-0.69,0.4-1.34,0.55-1.9c0.33-1.04,0.62-1.81,0.88-2.38c0,0-1.24,43.17,0.33,49.52
					C1969.29,2419.55,1960.18,2455.98,1959.6,2458.1z"/><path fill="#FFBE7D" d="M2036.63,2292.16c-32.33,31.89-55.82,19.88-55.82,19.88l0.95-17.29l1.21-22.47l16.57-14.35l17.26-14.95
					L2036.63,2292.16z"/><polygon fill="#F0953A" points="2006.71 2257.94 1981.76 2294.75 1982.97 2272.28 1999.54 2257.94"/><path fill="#FFBE7D" d="M1931.65,2173.83c0,0,1.24,39.59,0.06,52.78c-1.18,13.2,14.11,11.81,14.11,11.81s-1.76,2.78,2.94,16.67
					c4.7,13.89-1.76,19.45,18.81,19.45c20.57,0,52.91-12.5,56.43-61.12c3.53-48.61-1.57-64.82-39.39-72.46
					C1954.56,2134.89,1941.23,2154.57,1931.65,2173.83z"/><path fill="#241B12" d="M1918,2180.78c-4.33-1.32-6.79-51.39,13.65-58.34s31.02-14.35,40.43-14.35c9.41,0-7.45-6.48-7.45-6.48
					s19.01-12.96,38.01,10.19c0,0,23.51-7.18,30.96,14.35l-11.17-0.23c0,0,6.86-1.16,13.72,32.87c6.86,34.03-8.07,90.66-13.83,97.88
					c-5.76,7.22-18.6-18.24-18.6-18.24s-0.29-14.24-3.82-18.75c-3.53-4.51-8.52,1.39-10.58-5.21c-2.06-6.6-1.03-33.16-8.52-32.99
					c-15.28,0.35-12.34-21.88-12.93-26.04c-0.59-4.17-29.39,29.17-29.39,29.17l-2.06-21.18
					C1936.42,2163.42,1923.68,2182.51,1918,2180.78z"/><path fill="#FFBE7D" d="M1985.4,2196.55c0,0-1.13-9.3,9.25-11.06c10.38-1.76,7.24,24.39,1.59,32.18
					C1990.59,2225.47,1980.11,2206.36,1985.4,2196.55z"/><path fill="#D1D1D1" d="M1919.36,2554.42l-84.06,10.42c-0.95-55.75-27.62-118.53-52.23-165.55
					c-21.69-41.44-41.77-70.65-41.22-71.95c0.95-2.29,30.94-39.32,41.88-52.8c2.45-3.03,3.95-4.84,3.95-4.84
					C1857.07,2358.58,1919.36,2554.42,1919.36,2554.42z"/><path fill="#BABABA" d="M1783.07,2399.29c-21.69-41.44-41.77-70.65-41.22-71.95c0.95-2.29,30.94-39.32,41.88-52.8
					c0,0-9.4,28.35,6.84,50.34C1802.86,2341.47,1798.03,2384.68,1783.07,2399.29z"/><path fill="#EBEBEB" d="M1804.15,2274.53l-62.31,52.78c0,0,90.53,137.51,93.47,237.52l76.55,2.78
					C1911.86,2567.61,1877.63,2354.4,1804.15,2274.53z"/><path fill="#DEDEDE" d="M1911.85,2567.61l-76.56-2.77c-2.93-100-93.46-237.5-93.46-237.5l20.85-17.67
					c17.88,29.51,56.35,97.52,74.37,163.68c9.62,35.33,37.1,59.59,68.5,60.72l0,0C1909.77,2554.73,1911.85,2567.61,1911.85,2567.61z
					"/><path fill="#3372B0" d="M2088.68,2657.92c0,15.26-6.47,20.57-34.71,26.79c-28.2,6.27-104.03,9.98-113.43-19.19
					c-0.88-2.64-1.32-7.43-1.46-13.92c6.58-1.34,15.18-2.46,25.57-4.49c32.77-6.48,72.24-55.57,71.84-93.56
					c-0.44-37.94,9.84-132.49,9.84-132.49c1.5-14.69,18-68.45,26.63-69.7c6.8-0.99,0.29,18.37,14.48,52.12
					C2097.97,2508.31,2088.68,2648.54,2088.68,2657.92z"/><path fill="#DE702C" d="M2040.35,2288.98c-12.54-0.44-33.39,14.49-43.19,30.24c-9.8,15.74-87.59,91.67,39.48,289.84l10.29-28.71
					c0,0-46.52-74.08-54.22-114.82c-7.7-40.74-0.61-124.56,11.05-138.68c11.66-14.12,25.57-56.73,69.03,3.49
					C2072.8,2330.33,2069.82,2290.01,2040.35,2288.98z"/><path fill="#FFBE7D" d="M2003.56,2487.7c0,0-16.86,24.42-23.67,34.31c-1.97,2.85-6.84,10.2-13.42,18.71c0,0,0,0-0.04,0.09
					c0-0.04-0.04-0.04-0.04,0c-16.09,20.79-42.43,48.44-61.34,33.97c-26.66-20.35-40.05-157.17-43.6-172.12
					c-3.51-14.91-9.99-6.57-25.27-5.88c-15.29,0.69-7.65-9.03-7.65-9.03c-2.01-0.09-3.47-0.43-4.5-0.91
					c-5.96-2.81,1.28-10.54,1.28-10.54c-9.69,1.73-11.19-8.94-1.79-16.33c16.51-9.19,33.52-13.58,52.3-0.5l44.7,141.8l41.37-58.42
					L2003.56,2487.7z"/><path fill="#DE702C" d="M2046.93,2580.34c0,0,22.73-186.12,25.87-250.02l-9.01-28.42l15.28,12.35c0,0,44.68-5.69,61.14,65.85
					c16.46,71.53,43.11,276.18-74.46,280.81c0,0-34.89-35.69-29.1-51.86C2042.44,2592.88,2046.93,2580.34,2046.93,2580.34z"/><path fill="#3F8CD9" d="M2070.42,2327.55c4.16,6.91,5.03,15.87,2.51,23.81c-10.62,33.43-40.92,125.1-57.19,135.47
					c-19.95,12.71-58.09-48.39-58.09-48.39s34.61-93.07,42.25-105.58C2007.09,2321.11,2037.35,2272.69,2070.42,2327.55z"/><path fill="#3372B0" d="M2072.69,2351.81c-10.64,33.45-40.93,125.1-57.21,135.47c-19.93,12.7-58.09-48.4-58.09-48.4
					s2.74-7.35,6.84-18.24c8.6,12.92,38.74,55.57,55.74,44.73c14.85-9.46,41.41-86.69,53.99-125.49
					C2074.34,2343.86,2073.9,2347.96,2072.69,2351.81z"/><path fill="#191F1E" d="M2198.01,3112.09c0.88,0.35,7.94-3.82,9.11,12.5c1.18,16.32-35.27,72.23-35.27,72.23
					s-89.94,0.5-92.29,0.15c-2.35-0.35,4.41-14.93,4.41-14.93l78.48-1.2L2198.01,3112.09z"/><path fill="#F0953A" d="M2150.57,3131.4c0,0-0.11,0.91-0.44,2.42c-1.06,5.45-4.32,18.63-11.85,25.63
					c-9.66,8.99-21.84,6.01-30.83,12.84c-3.44,2.59-6.36,1.47-8.67-0.91c8.41-6.65,19.72-12.92,26.63-12.75
					c9.73,0.26,14.49-16.51,16.39-25.97c0.11-0.43,0.18-0.86,0.29-1.25H2150.57z"/><path fill="#191F1E" d="M2141.48,3134.24c0,0-13.42,7.07-9.11,20.24c4.31,13.17,34.52,17.79,34.52,17.79l11.97-23.15
					L2141.48,3134.24z"/><path fill="#191F1E" d="M2124.14,3155.85c0,0,12.92,20.88,14.1,25.37c1.18,4.49-32.33,0.49-32.33,0.49s-5.29-14.52-5.09-16.84
					S2110.42,3153.25,2124.14,3155.85z"/><path fill="#FFBE7D" d="M1930.37,3183.13c-1.02,7.26-127.4,3.63-132.7,2.25c-2.01-0.52-2.2-2.33-1.02-4.75
					c1.79-3.89,6.95-9.25,13.09-13.31c9.77-6.48,58.34-31.37,73.3-32.06c0.33-0.04,0.62-0.04,0.91-0.04
					c3.69,0.09,8.3-0.13,13.09-0.56c13.17-1.04,27.65-3.24,27.65-3.24S1931.43,3175.82,1930.37,3183.13z"/><path fill="#191F1E" d="M1938.38,3181.31v17.13c0,0-152.06-1.39-152.45-2.78c-0.39-1.39,3.53-14.35,3.53-14.35
					S1928.97,3178.07,1938.38,3181.31z"/><path fill="#F0953A" d="M1930.48,2891.48l-39.94,235.29l6.51,7.86l8.78,10.63l-22.02-2.08l-7.21-0.69c0,0-9.4-2.77-30.18,13.87
					c-20.78,16.68-44.66,24.67-44.66,24.67s-2.19-0.13-5.12-0.43c1.79-3.89,6.95-9.25,13.09-13.31c9.77-6.48,58.34-31.37,73.3-32.06
					c6.25-27.09,35.48-231.67,40.78-269l30.25,12.53L1930.48,2891.48z"/><path fill="#191F1E" d="M1851.96,3145.66l17.44,34.34l26.65,3.35c0,0-15.05-40.02-26.93-44.64
					C1857.25,3134.09,1851.96,3145.66,1851.96,3145.66z"/><path fill="#191F1E" d="M1825.9,3154.48c0,0,21.69,25.77,17.23,25.84c-4.46,0.07-31.34,3.03-31.34,3.03s-4.79-7.86-4.94-13.98
					C1806.7,3163.26,1815.71,3150.33,1825.9,3154.48z"/><path fill="#F0E149" d="M2092.21,2616.2l-30.42-9.25c-2.78-0.85-4.45-4.19-3.74-7.48l16.56-76.04c0.72-3.29,3.55-5.26,6.33-4.42
					l30.42,9.25c2.78,0.85,4.46,4.19,3.74,7.48l-16.56,76.04C2097.83,2615.07,2094.99,2617.05,2092.21,2616.2z"/><path fill="#F0E149" d="M2100.41,2489.49l-3.57-0.95c0.21-1.1,20.72-110.88,2.37-168.79l3.43-1.51
						C2121.37,2377.36,2101.27,2484.94,2100.41,2489.49z"/><path fill="#F0E149" d="M2132.6,2356.24c0,0,2.59,105.77,0,125.16c-2.59,19.39,25.54,21.24,25.54,21.24
					S2167.07,2370.96,2132.6,2356.24z"/><polygon fill="#F0E149" points="2154.95 2504.07 2157.71 2502.65 2154.93 2502.25"/><path fill="#F0E149" d="M2152.67,2550.88l-10.74-3.79c0,0-11.37,40.28-16.46,53.71c-5.09,13.43-6.48,28.79-3.53,29.63
					c2.95,0.84,5.09,0,12.54,0C2141.93,2630.43,2155.56,2560.69,2152.67,2550.88z"/><path fill="#F0953A" d="M1966.4,2540.81c-16.09,20.79-42.43,48.44-61.34,33.97c-26.66-20.35-40.05-157.17-43.6-172.12
					c-3.51-14.91-9.99-6.57-25.27-5.88c-15.29,0.69-7.65-9.03-7.65-9.03c-2.01-0.09-3.47-0.43-4.5-0.91
					c0.73-1.25,1.65-2.07,2.82-2.51c0,0,3.58-0.91,3.73,2.33c0.18,3.24-2.93,6.48-1.87,6.7c1.06,0.26,21.62-1.77,29.48-1.08
					c7.83,0.69,8.23,35.35,10.75,47.15c2.56,11.84,17.26,106.56,33.91,125.4C1919.07,2583.2,1964.1,2542.88,1966.4,2540.81z"/><path fill="#F0953A" d="M2150.13,3133.82c-1.43,0.73-4.57,0.26-8.34-1.17c0.11-0.43,0.18-0.86,0.29-1.25
					c0.55-3.02,0.8-5.06,0.8-5.06s-86.62-187.59-103.55-229.46c6.84-2.77,15.84-5.66,22.97-5.4c0,0-12.47,17.85-0.73,35.74
					c22.42,34.1,85.45,196.53,88.99,204.18C2151.15,3132.65,2150.94,3133.43,2150.13,3133.82z"/></g></svg>