<svg xmlns="http://www.w3.org/2000/svg" enable-background="new 0 0 2000 2000" viewBox="0 0 2000 2000"><path fill="#d0d9ee" fill-rule="evenodd" d="M1051.69,1632.77c368.63,0,667.46,18.08,667.46,40.38s-298.83,40.38-667.46,40.38
		c-368.62,0-667.45-18.08-667.45-40.38S683.07,1632.77,1051.69,1632.77z" clip-rule="evenodd"/><circle cx="946.15" cy="952.17" r="665.3" fill="#d0d9ee" fill-rule="evenodd" clip-rule="evenodd" transform="rotate(-45.001 946.142 952.181)"/><path fill="#e9eff8" fill-rule="evenodd" d="M946.15,311.38c353.9,0,640.78,286.89,640.78,640.79c0,353.89-286.88,640.77-640.78,640.77
		c-353.89,0-640.77-286.88-640.77-640.77C305.37,598.27,592.26,311.38,946.15,311.38z" clip-rule="evenodd"/><path fill="#d0d9ee" fill-rule="evenodd" d="M1251.92,536.69c3.44-4.56,3.94-7.05,7.63-10.96c23.5-24.98,65.74-0.51,88.73-1.13l2.16,20.14
		c10.85,0.26,17.15-3.41,16.63-14.84c-0.94-20.77-49.89-12.65-56.95-33.01c11.67-16.25,46.65,4.96,60.61,12.02
		c10.17,5.14,19.98,10.09,29.2,15.24c9.86,5.5,21.23,14.95,25.92,17.63c2.69-10.87,3.8-30.62,8.96-37c1.31-0.1,2.59-0.06,3.85,0.11
		c-35.18-38.72-74.89-73.27-118.25-102.82c-2.65,1.4-5.97,2.27-9.59,2.54c-14.15,1.05-18.5-7.84-35.76-2.41
		c-8.69,2.73-20.7,9.43-30.5,7.97c2.67-2,15.55-14.17,17.17-17.06c14.86-26.5-31-6.82-22.76-38.47
		c-22.99-11.29-46.73-21.28-71.12-29.9c-1.06,2.9-0.86,7.14,0.79,13.5c3.47,13.35,6.16,22.93-3.58,31.34
		c-8.01,6.91-19.75,8.16-8.74,23.89c8.14,11.63,17.43,8.4,33.69,7.98c3.26,9.15,2.85,17.25,11.41,20.11
		c10.19,3.41,16.15,3.51,20.38,12.24c-2.93,7.54-8.18,9.91-11.32,19.98c-9.89,31.69-2.21,31.16-41.52,54.1
		c7.81,7.6,32.9,1.02,38.65,19.58c5.62,18.15-16.59,20.84-30.28,26.37c-21.62,8.75-15.63,19.05-5.31,34.73
		c6.44,9.79,15.04,27.8,30.69,26.44c6.58-6.4,2.23-9.65,14.29-12.72c3.26,8.9,10.13,14.05,8.14,27.85
		c-1.32,9.16-7.2,17.71-10.17,25.92c-3.26,9.08-4.2,19.38-7.23,28.62c-8.1,24.66-23.51,46.66-10.85,86.95
		c2.91,9.28,6.55,16.59,11.79,23.99c5.32,7.51,10.43,10.19,13.72,22.09c5.91,21.37,12.04,26.08,34.84,36.97
		c30.5,14.59,38.79,52.65,62.76,42.64c21.03-8.78,3.21-28.82,45.54-26.22c17.86,1.11,16.6-2.73,19.43-18.02
		c2.12-11.47,10.4-14,22.01-10.59c11.63,3.41,22.44,0.54,32.22,3.64c18.63,5.9,4.4,30.57,15.87,52.9
		c6.16,12,21.06,36.67,28.26,43.46c11.2,10.55,28.35,22.46,15.7,47.77c-8.38,16.78-19.67,32.51-8.23,53.69
		c29.93,55.37,51,37.61,49.74,93.8c-0.46,20.54,10.57,44.37,22.81,50.59c3.06-2.14,4.54-3.91,7.17-5.91
		c26.47-71.75,40.95-149.32,40.95-230.27c0-151.67-50.79-291.46-136.24-403.36l-53.55,11.17c0.96,7.11,5.02,8.93,10.69,11.67
		c-11.46,9.51-18.56,25.81-43.03,10.33c-30.51-19.3-23.68,1.65-46.46,1.17c1.7-7.07,2.24-13.22,0.58-20.83
		c-7.66-4.54-22.35-2.41-30.16-0.05c-16.89,5.11-51.27,23.96-58.39,40.37l-19.97,1.77c5-7.73,15.37-11.27,12.08-27.83
		c-2.39-12.01-9.06-18.92-7.16-33.81C1246.8,540.12,1247.85,542.09,1251.92,536.69L1251.92,536.69z M295.15,814.47
		c12.7-60.31,33.56-117.61,61.38-170.69c13.03,0.19,27.93,2.15,42.77-2.12c20.58-5.92,57.4-23.39,65.4-35.74
		c-21.48,9.07-29.68,17.69-60.22,13.23c-2.94-3.08-5.07-7.9-8.13-11.65c-5.85,6.36-6.8,17.18-15.97,18.58
		c-4.9,0.75-9.17-0.83-12.14-3.74c4.21-7.36,8.59-14.63,13.07-21.81c13.63-2.63,31.33-2.01,41.43-5.59
		c47.06-16.73,27.48-30.83,36.11-35.79c14.79-4.43,15.9,11.53,17.22,24.33c18.58,1.36,43.98-11.53,58.75,0.33
		c-0.41-22.15-14.12-58.12,17.79-55.44c-1.31-7.73,0.46-9.24,5.27-14.82c3.31-3.84,0.78-0.25,2.8-3.79l-13.71-0.03
		c-1.04-6.01-3.35-9.76,2.77-11.51c14.34-4.1,24.74,8.71,38.91,9.72c18.27,1.3,31.03-12.47,48.18-15.62
		c23.95-4.41,30.64,9.71,48.14,15.54c16.33,5.45,45.8-7.64,53.79,5.3c-12.67,12.9-38.8-2.87-32.07,17.26l14.99,2.57
		c-2.67,12.83-5.08,14.72-3.93,29.94c-24.09,2.78-40.71-6.1-64.03-5.57c3.31-10.3,8.57-10.74,8.19-23.87l-20.43,6.21
		c-0.28-0.18-0.59-0.52-0.73-0.65c-8.78-8.23-21.48-9.59-32.6-3.45c5.74,13.74,7.11,13.53,7.36,31.54
		c5.06,3.88,13.29,4.77,8.63,14.05c-3,5.95-8.86,8.17-13.83,12.2c-6.4,5.19-4.63,10.32-15.57,8.95c-6.59-0.83-13.66-4.75-15.81-8.58
		c-2.85,5.64-3.93,9.96-7.04,15.58c-8.44,15.26-19.85,29.14-12.12,46.88c12.8,1.48,57.43-5.27,73.16-6.93
		c54.38-5.73,18.31-31.48,16.4-36.97c-5.93-17.03,8.84-46.25,36.46-42.27c13.03,1.87,17.42,13.22,25.96,14.71
		c18.28,3.21,16.9-7.94,20.91-18.1c13.62-1.84,13.98,9.13,21.57,16.72c11.39,11.37,41.18,10.85,55.38,23.51
		c10.91,9.72,8.92,9.96,13.89,24.84c8.44,0.58,12.74-1.64,19.25,3.63c4.38,3.53,8.16,7.75,6.39,16.41
		c-6.99,4.56-24.8,5.55-35.59,4.21c-13.55-1.67-14.07-11.2-16.73-23.09c-9.1,1.16-16.25,5.27-23.8,7.21
		c-12.19,3.13-18.24-5.84-23.41,3.69c-6.47,11.91-11.86,27.81-18.45,39.13c11.79,0.27,16.54-12.06,34.22-11.16l2.4,13.06l24.39-1.65
		c-1.21,9.01-7.16,16.32-12.01,19.85c-11.34,8.25-12.56,3.5-19.7-2.94c-34.38-1.36-21.03,24.76-28.97,48.8
		c-4.14,12.55-14.15,11.07-15.48,23.38c-2.27,21.18-5.9,8.73-15.8,20.94c3.23,11.01,12.58,9.12,4.9,29.7
		c-3.62,9.7-9.61,17.72-9.52,29.55c0.16,19.65,12.98,39.36,15.39,62.22c-8.65-2.26-13.63-7.33-17.66-12.28
		c-18.63-22.85-27.11-20.41-52.58-7.64l-1.18,8.75c-41.49,5.26-60.65,26.11-58.74,70.89c0.82,19.37,11.86,32.31,28.02,36.82
		c18.21,5.07,39.92,1.46,35.86-24.88c27.2-4,16.48,8.99,27.16,26.4c8.63,14.09,20.5,15.27,39.62,9.37
		c1.74,12.73,0.41,12.09,8.97,18.08c6.11,4.28,7.98,6.65,16.34,10.8c29.56,14.71,18.13-5.27,39.74-2.1
		c6.55,6.05,3.56,10.49,17.43,8.65c-0.15-39.8-6.31-39,63.93-42.51c60.63-3.03,43.53-1.9,68.3,12.91c6.68,3.99,11.74,4.77,20.6,5.11
		c36.66,1.42,52.66,20.4,84.57,23.38c24.42,2.28,78.79-11.03,94.87,6.61c5.72,6.28-2.4,32.86-0.57,46.58
		c1.79,13.4,8.93,27.45,13.98,38.95c28.63,65.15-25.34,47.3-38.11,107.93c-3.5,16.63-9.17,24.21-14.83,38.32
		c-10.16,25.26,16.63,79.15-13.71,83.63c-4.42-4-8.93-20.38-21.69-13.01c-12.78,7.39-0.66,30.16,6.3,38.64
		c11.89,14.46,12.85,20.07-2.43,34.11l5.06,1.9c1.2,1.56,1.64,4.51,0.98,6.86c-2.08,7.38-19.85,3.63-33.84,14.59
		c-0.97,25.78,4.04,45.39,10.8,68.07c2.55,8.55,4.78,23.28,10.84,27.81c9.75,7.29,27.99-5.4,28.96,11.5
		c-11.59,5.37-39.37,10.58-54.48,4.06c-9.64-4.18-20.94-22.08-27.26-34.44l-37.29-86.03c-5.5-19.53,2.44-37.61,0.91-58.16
		c-1.4-18.78-6.3-32.83-13.65-48.05c-12.65-26.23-26.15-59.95-38.59-84.57c-17.95,0.54-29.91,1.05-39.89-8.98
		c-3.41-3.43-7.43-9.27-11.01-13.38c-7.8-8.97-14.12-17.53-23.77-24.92c-4.98-3.82-9.79-5.89-14.95-9.41
		c-35.13-23.99-9.72-83.47-27.7-115.72c-12.06-21.65-20.03-10.24-30-13.01c-4.88-1.36-11.27-5.75-16.29-8.07
		c-18.1-8.35-36.41-8.6-51.87-19.87c-15.05-10.96-17.28-7.66-37.76-9.17c-31.01-2.27-63.79,8.21-91.19,3.3
		c-29.73-5.32-42.65-25.66-57.4-38.56c-7.16-6.26-50.36-34.9-59.71-34.29c-9.04,26,30.17,40.01,37.32,59.81
		c-36.51-0.19-32.6-27.17-46.77-52.44c-13.93-24.82-39.61-20.82-60.61-36.87c-17.66-13.51-23.85-46.74-29.38-68.22
		c-7.2-28-21.07-43.8-29.07-67.13l-1.4,3.47c-1.86,6.36-2.4,14.53-5.17,20.2C302.21,828.02,296.98,822.32,295.15,814.47
		L295.15,814.47z M391.32,584.98c7.34-0.85,9.56-5.57,16.2-8.09c5.63-2.14,18.62,1.21,29.38-0.91c18.52-3.66,8.17-6.03,16.78-16.01
		c5.77-6.68,16.84-4.82,18.2-14.19c-12.45-10.35-15.75,3-20.94,8.58c-12.54,13.46-15.99-6.76-25.4,1.65
		c-3.96,3.54-1.45,6.46-10.19,6.12c-4.35-0.17-6.65-0.22-8.31,0.16C401.65,569.74,396.41,577.3,391.32,584.98L391.32,584.98z
		 M437.02,549.42c15.87,5.99,23.11-35.61,1.23-6.16C433.82,549.22,437.02,549.42,437.02,549.42L437.02,549.42z M483.68,509.79
		c3.2,5.57,6.03,6.26,12.85,4.18c9.29-2.84,7.29-3.59,14.12,1.1l0.62-8.57C497.58,504.63,487.15,498.18,483.68,509.79L483.68,509.79
		z M781.7,958.98c7.91,4.23,20.84,3.02,28.37-2.48c9.53-6.97-3.31-4.96,15.69-17.43c0.3-0.2,0.68-0.48,0.96-0.66l1.92-1.42
		c-11.8,0.38-22.39-1.81-34.01,1.35C782.24,941.7,778.31,945.03,781.7,958.98L781.7,958.98z M685.91,954.95
		c15.35-0.42,12.88-3.42,20.66-8.74c17.77-12.15,34.99,8.16,46.6,6.92c7.75-0.83,20.73-1.41,19.57-9.81
		c-1.35-9.7-10.47-6.29-19.41-5.72c-11.73,0.75-12.44-5.89-27.13-3.59C712.02,936.26,687.89,941.73,685.91,954.95L685.91,954.95z
		 M991.31,442.2c3.27-3.48,3.36-7.62,7.31-11.11c8.19-7.24,32.18-3.76,32.54-26.06c-6.71-0.5-9.09,0.62-15.56-1.36
		c-14.42-4.42-15.69,2.35-23.45,8.02c-6.3,4.61-8.01,1.46-15.34,3.43c-7.86,2.11-20.3,10.03-10.87,16.71
		C969.47,434.34,985.92,440.58,991.31,442.2L991.31,442.2z M1105.2,482.91c3.28-6.39,15.54-18.97,14.95-24.55
		c-0.89-8.43-6.37-0.23-0.91-15.54c2.32-6.5,2.58-9.07,3.75-15.88c19.05,3.93,34.4,36.51,70.63,41.01
		c-1.79,11.51,1.12,14.36-7.18,20.53c-4.88,3.62-13.03,6.96-19.36,7.7c-18.31,2.15-17.19-17.71-25.16-26.21
		c-17.77,0.1-4.44,15.66-14.65,21.07C1119.94,494.93,1109.21,486.53,1105.2,482.91L1105.2,482.91z M565.05,460.62
		c-14.32,1.86-30.17,5.18-40.12,11.02c0.67,13.16,13.71,13.13,25.96,10.68c16.95-3.39,19.13-0.53,20.94,15.41
		c23.4,1.41,45.85,4.53,46.05-16.12l-15.07,0.97c-3-4.9-0.05-1.87-3.75-4.78c8.81-20.48,25.25-18.17,37.41-39.06
		c4.95-8.5,5.52-19.74,11.2-27.49c6.62-9.03,15.3-5.31,20.14-19.84c-28.97,1.97-32.7,18.28-57.78,28.08
		C585.92,428.92,562.71,429.76,565.05,460.62L565.05,460.62z M668.77,442.61c12.24,6.58,28.51-13.71,59.11,12.35
		c34.66,29.52,47.15,10.15,54.55,9.89c3.29,16.8,6.35,27.4,15.52,36.15c4.21,4.02,23.3,18.52,31.13,21.94
		c16.01,7.01,30.22,1.67,33.63-12.58c3.59-15.06-4.59-34.82,2.65-47.69c3.17-5.64,19.29-9.91,31.85-19.76
		c10.24-8.03,18.32-15.79,29.39-23.61c7.84-5.54,29.02-14.21,32.08-21.06c4.25-9.52-13.75-25.42-8.37-41.32
		c6.69-3.37,16.52-0.25,24.94-2.17c9.68-2.21,7.96-6.63,11.82-15.56c6.52-15.08,29.06-10.48,20.35-30.41
		c-13.35-4.22-34.03,17.55-42.06,23.08c-12.47,8.59-12.32-0.11-39.06,12.55c-1.68,0.8-4.6,2.12-6.16,2.44
		c-5.36,1.11-5.9-0.13-6.78-0.51c-1.94-9.3,1.96-15.21,4.68-23.12c3.54-10.28,8.72-16.63,8.09-22.37
		c-1.88-16.97-27.46,3.23-42.33,3.72c-9.78,0.32-18.14-3.57-26.54,0.94c-10.49,5.62-4.69,15.77-13.82,17.69
		c-15.98,3.36-29.35-21.99-44.05,4.71c-9.48,17.23-18.28,16.69-41.84,19.51c-8.98,1.07-16.16,3.98-22.37,8.01l-51.19,42.07
		c-6.83,7.45-17.04,26.09-17.38,37.78L668.77,442.61L668.77,442.61z M566.77,540.1l-13.48-9.31l2.85,19.72
		c22.98,0.41,25.45,9.1,32.32,19.49C611.31,559.38,572.12,543.16,566.77,540.1z" clip-rule="evenodd"/><path fill="#aab9de" fill-rule="evenodd" d="M538.07,375.11L538.07,375.11c47.13,47.13,35.76,115.17,0,171.4l-85.7,134.74l-85.7-134.74
		c-35.76-56.24-47.13-124.27,0-171.4l0,0C413.81,327.97,490.94,327.97,538.07,375.11z" clip-rule="evenodd"/><path fill="#fff" fill-rule="evenodd" d="M452.37,385.57c40.54,0,73.41,32.87,73.41,73.41c0,40.54-32.87,73.41-73.41,73.41
		c-40.54,0-73.42-32.87-73.42-73.41C378.96,418.44,411.83,385.57,452.37,385.57z" clip-rule="evenodd"/><path fill="#8d9fca" fill-rule="evenodd" d="M452.37,402.23c31.35,0,56.76,25.41,56.76,56.76s-25.41,56.76-56.76,56.76c-31.35,0-56.76-25.41-56.76-56.76
		S421.03,402.23,452.37,402.23z" clip-rule="evenodd"/><path fill="#aab9de" fill-rule="evenodd" d="M1528.2,430.3L1528.2,430.3c47.14,47.13,35.76,115.17,0,171.4l-85.7,134.74l-85.7-134.74
		c-35.76-56.24-47.13-124.27,0-171.4l0,0C1403.93,383.16,1481.07,383.16,1528.2,430.3z" clip-rule="evenodd"/><path fill="#fff" fill-rule="evenodd" d="M1442.5,440.76c40.54,0,73.41,32.87,73.41,73.41c0,40.55-32.87,73.41-73.41,73.41
		c-40.54,0-73.42-32.86-73.42-73.41C1369.08,473.63,1401.95,440.76,1442.5,440.76z" clip-rule="evenodd"/><circle cx="1442.5" cy="514.18" r="56.76" fill="#8d9fca" fill-rule="evenodd" clip-rule="evenodd"/><path fill="#8d9fca" fill-rule="evenodd" d="M474.27,681.71c-7.94-3.71-15.17,7.38-7.49,13.14c0.43,0.27,0.75,0.47,1.22,0.69l13.91,6.23
		c8.2,3.83,15.22-8.16,7.11-13.38l-0.93-0.5L474.27,681.71L474.27,681.71z M1422.66,749.71c9.33-3.11,5.37-16.98-4.29-14.56
		l-1.43,0.44c-6.01,2.01-7.29,9.6-2.15,13.45c1.77,1.32,4.48,1.79,6.64,1.06L1422.66,749.71L1422.66,749.71z M1377.52,763.08
		c7.9-1.98,7.27-14.31-1.68-14.91c-0.97,0-1.51,0.05-2.4,0.28l-14.56,4c-8.59,2.14-6.89,15.5,2.55,14.91
		c0.52-0.07,0.89-0.11,1.37-0.24L1377.52,763.08L1377.52,763.08z M1318.38,778.34c8.78-2.2,7.25-14.99-1.88-14.99
		c-0.56,0.04-1.05,0.07-1.58,0.2l-14.74,3.4c-9.64,2.41-6.68,16.7,3.34,14.82L1318.38,778.34L1318.38,778.34z M1258.68,791.13
		c8.83-1.65,7.97-15.05-1.65-15.05c-0.43,0.03-0.79,0.06-1.2,0.13l-14.85,2.77c-5.27,0.99-7.93,6.89-5.12,11.47
		c1.62,2.64,4.77,4.05,7.81,3.48L1258.68,791.13L1258.68,791.13z M1198.46,801.35c3.72-0.46,6.73-4.03,6.49-7.84
		c-0.28-4.56-4.09-7.77-8.69-7.19c-4.98,0.73-9.96,1.44-14.95,2.11c-2.89,0.36-5.21,2.36-6.18,5.09c-1.79,5.36,2.58,10.67,8.2,9.97
		L1198.46,801.35L1198.46,801.35z M1137.82,808.88c9.6-1.2,8.84-15.15-1.02-15.15c-5.12,0.36-10.39,1-15.52,1.47
		c-8.61,0.54-9.7,13.92-0.02,15.13c0.48,0.04,0.87,0.03,1.34,0L1137.82,808.88L1137.82,808.88z M1076.9,813.61
		c9.2-0.58,9.71-13.98,0.4-15.15c-0.41-0.02-0.79-0.05-1.21-0.03l-15.08,0.73c-9.63,0.6-9.69,14.57,0.05,15.18
		C1066.21,814.31,1071.72,813.88,1076.9,813.61L1076.9,813.61z M1015.82,815.45c8.93,0,10.52-13.23,1.31-15.07
		c-0.49-0.06-0.88-0.12-1.4-0.12h-15.09c-9.63,0-10.53,14.54-0.19,15.19H1015.82L1015.82,815.45z M954.7,814.35
		c8.87,0.56,11.48-13.09,1.45-15.1l-0.78-0.07c-5.03-0.22-10.06-0.43-15.08-0.72c-9.22-0.58-11.32,13.27-1.63,15.08
		C943.79,814.08,949.5,814.14,954.7,814.35L954.7,814.35z M893.71,810.3c10.03,0.62,11.41-13.87,1.4-15.12
		c-5.01-0.46-10.02-0.94-15.03-1.46c-8.77-1.09-12.29,12.34-2.35,14.99C882.85,809.48,888.53,809.83,893.71,810.3L893.71,810.3z
		 M833,803.26c4.03,0.51,7.42-1.9,8.45-5.74c1.08-4.31-1.96-8.75-6.32-9.3c-4.98-0.69-9.96-1.43-14.94-2.2
		c-4.24-0.53-7.86,2.07-8.63,6.21c-0.76,4.09,2.26,8.3,6.33,8.81C822.93,801.81,827.96,802.56,833,803.26L833,803.26z
		 M772.69,793.28c9.13,1.71,13.03-11.6,3.55-14.76c-5-1.19-10.4-2.02-15.48-3.07c-9.65-1.81-12.94,12.26-3.3,14.83
		C762.5,791.36,767.63,792.31,772.69,793.28L772.69,793.28z M712.96,780.41c8.88,2.22,13.53-10.86,4.41-14.51l-0.84-0.25
		c-4.89-1.17-9.78-2.38-14.66-3.62c-9.32-2.32-13.61,11.46-4.08,14.63C702.77,778.02,707.93,779.2,712.96,780.41L712.96,780.41z
		 M653.91,764.71c9.96,2.49,13.67-11.64,4.26-14.58c-4.83-1.4-9.66-2.84-14.47-4.3c-7.63-2.54-13.92,7.97-6.54,13.51
		c0.78,0.48,1.22,0.72,2.1,1.02C644.13,761.84,649.01,763.29,653.91,764.71L653.91,764.71z M595.65,746.29
		c2.77,0.93,5.77,0.25,7.84-1.82c3.94-3.94,2.38-10.78-2.91-12.55c-4.77-1.62-9.52-3.28-14.27-4.96c-9.12-3.04-14.53,9.94-5.5,14.15
		C585.62,742.97,590.75,744.62,595.65,746.29L595.65,746.29z M538.28,725.26c7.86,3.14,14.32-7.34,7.57-12.96
		c-0.7-0.52-1.21-0.85-2.01-1.17l-14.03-5.59c-8.05-3.22-14.3,7.39-7.72,12.88c0.69,0.52,1.2,0.87,2,1.19
		C528.81,721.54,533.54,723.41,538.28,725.26z" clip-rule="evenodd"/><path fill="#0f3970" fill-rule="evenodd" d="M1042.98,809.82c0,0,39.76-20.94,96.73-25.13c30.56-2.24,58.8,16.6,68.38,45.71c0.55,1.68,1.08,3.42,1.58,5.23
		c13.38,48.14,6.08,193.88-38.94,231.9c-45.02,38.02-127.76,21.97-127.76,21.97V809.82z" clip-rule="evenodd"/><path fill="#0f3d86" fill-rule="evenodd" d="M918.85,1149.47c0,0,4.82,60.24,10.5,132.65c7.72,98.37,37.08,343.49,37.08,343.49s-6.23,9.77,23.98,3.41
		c0,0,37.02-83.5,44.71-179.52c0.12-1.58,0.24-3.16,0.35-4.76c7.16-97.75,18.29-303.61,18.29-303.61L918.85,1149.47z" clip-rule="evenodd"/><path fill="#142d4d" fill-rule="evenodd" d="M917.2,1128.66c0,0,6.48,81.05,12.16,153.46l105.77,167.37c0.12-1.58,0.24-3.16,0.35-4.76
		c7.16-97.75,18.29-303.61,18.29-303.61L917.2,1128.66z" clip-rule="evenodd"/><path fill="#0f3d86" fill-rule="evenodd" d="M940.8,1113.4l181.8,523.08c0,0,19.02-3.58,23.28-11.99c0,0,5.22-221.22-25.57-274.58
		c-17.4-30.16-26.26-114.7-27.47-143.32c-3.59-85.04-12.62-108.09-12.62-108.09L940.8,1113.4z" clip-rule="evenodd"/><path fill="#152f54" fill-rule="evenodd" d="M994.74,1668.44h-14.8c-4.96-0.78-8.62-2.21-13.71-2.88c-7.72-1.02-11.28,2.14-11.98,2.88l-0.13,0.14h-62.88
		c-1.58-2.26-0.05-7.49,1.43-11.33c0.99-2.62,3.18-4.6,5.87-5.39c6.68-1.93,19.82-3.65,31.86-14.54c6.77-6.13,32.7-22.51,32.7-22.51
		l0.14-0.02c0.56,0,3.28,0.84,15.07,10.79c6.1,5.14,16.49-7.26,16.49-7.26s1.94,1.61,3.41,4.63c1.17,2.37,2.02,5.63,1.34,9.64
		c-0.94,5.67,2.09,16.2,4.5,23.32c1.47,4.32,2.7,7.38,2.7,7.38S1007.48,1666.84,994.74,1668.44z" clip-rule="evenodd"/><path fill="#152f54" fill-rule="evenodd" d="M994.72,1668.65h-14.74c-4.94-0.78-8.65-2.42-13.74-3.08c-7.72-1.02-11.28,2.14-11.98,2.88l-0.13,0.14h-62.88
		c-1.58-2.26-0.05-7.49,1.43-11.33c1.91-1.7,2.44,7.37,3.49,8.82c1.07,1.44,51.3,0.52,54.2-1.59c2.91-2.11,11.61-5.8,23.74-2.9
		c10.56,2.52,26.13-3.94,29.97-5.67c1.47,4.32,2.7,7.38,2.7,7.38S1007.45,1667.05,994.72,1668.65z" clip-rule="evenodd"/><path fill="#152f54" fill-rule="evenodd" d="M1145.89,1668.44h-14.8c-4.95-0.78-8.62-2.21-13.7-2.88c-7.72-1.02-11.28,2.14-11.99,2.88l-0.13,0.14h-62.88
		c-1.58-2.26-0.06-7.49,1.43-11.33c0.99-2.62,3.17-4.6,5.89-5.39c6.66-1.93,19.8-3.65,31.84-14.54
		c6.77-6.13,32.71-22.51,32.71-22.51l0.13-0.02c0.57,0,3.29,0.84,15.08,10.79c6.09,5.14,16.48-7.26,16.48-7.26s1.96,1.61,3.41,4.63
		c1.16,2.37,2.02,5.63,1.34,9.64c-0.93,5.67,2.09,16.2,4.51,23.32c1.46,4.32,2.7,7.38,2.7,7.38S1158.61,1666.84,1145.89,1668.44z" clip-rule="evenodd"/><path fill="#152f54" fill-rule="evenodd" d="M1145.87,1668.65h-14.74c-4.96-0.78-8.66-2.42-13.74-3.08c-7.72-1.02-11.28,2.14-11.99,2.88l-0.13,0.14h-62.88
		c-1.58-2.26-0.06-7.49,1.43-11.33c1.9-1.7,2.43,7.37,3.49,8.82c1.07,1.44,51.3,0.52,54.2-1.59c2.9-2.11,11.6-5.8,23.74-2.9
		c10.55,2.52,26.12-3.94,29.97-5.67c1.46,4.32,2.7,7.38,2.7,7.38S1158.59,1667.05,1145.87,1668.65z" clip-rule="evenodd"/><path fill="#f4ae7c" fill-rule="evenodd" d="M1052.53,801.42c0,0-58.91,29-92.95,18.25c0,0,8.37-10.71,22.98-18.75c-0.83-4.96-1.5-9.49-2.02-13.52
		c-1.89-14.59-1.96-22.91-1.96-22.91l36.11-29.1l8.09-6.53c-0.22,6.91,0.2,13.3,1.11,19.2c0.07,0.46,0.14,0.93,0.22,1.38
		C1029.97,784.49,1052.53,801.42,1052.53,801.42z" clip-rule="evenodd"/><path fill="#6998d0" fill-rule="evenodd" d="M1086.16,1109.86c0.17,3.76-7.56,7.88-10.91,9.38c-14.9,6.68-29.19,12.16-43.86,16.04
		c-10.23,2.73-20.64,4.68-31.57,5.73c-31.54,3.23-68.83-3.87-81.62-3.7c-1.36,0-2.55-0.52-3.58-1.36
		c-0.85-0.69-1.52-39.23-0.85-87.81c0-1.87,0-3.93,0.17-5.81v-0.67c0.16-18.93,0.85-38.87,1.71-58.66
		c1.87-43.64,5.27-85.75,11.09-109.13c6.81-27.44,32.6-61.81,49.72-71.23c14.5-7.96,62.15-16.31,64.53-14.59
		c27.96,20.88,43.37,82.68,43.11,152.86c-0.01,2.21-0.02,4.44-0.06,6.67c-0.13,7.25-0.39,14.59-0.81,21.94
		c-3.04,51.78,0.08,96.67,1.87,122.76C1085.63,1099.8,1086.04,1105.76,1086.16,1109.86z" clip-rule="evenodd"/><path fill="#e79055" fill-rule="evenodd" d="M1024.39,748.93c0,0-0.1,0.19-0.29,0.53c-2.28,4.09-17.84,30.41-43.56,37.95
		c-1.89-14.59-1.96-22.91-1.96-22.91l36.11-29.1c4.75,5.59,8.01,10.7,9.19,12.67C1024.22,748.63,1024.39,748.93,1024.39,748.93z" clip-rule="evenodd"/><path fill="#f4ae7c" fill-rule="evenodd" d="M968.16,763.7c0,0,56.24,9.34,61.52-25.77c5.29-35.12,16.1-57.56-19.59-65.01
		c-35.69-7.45-44.69,4.9-49.3,16.19C956.16,700.4,953.67,760.36,968.16,763.7z" clip-rule="evenodd"/><path fill="#142d4d" fill-rule="evenodd" d="M1019.38,728.87c0,0,7.46-7.54,3.17-12.29c-4.3-4.75-6.78,2.49-10.18,2.27c-3.39-0.23-9.51-10.19-9.97-19.24
		c-0.45-9.05-33.1,4.76-46.23,0.46c-13.12-4.3-26.43-11.72-24.36-37.46c32.28,20.02,66.19-19.35,100.28,3.19
		c41.09,31.95,5.4,73.64,0.19,79.52c-5.21,5.89-8.19,4.14-8.19,4.14S1014.91,737.03,1019.38,728.87z" clip-rule="evenodd"/><path fill="#0f3970" fill-rule="evenodd" d="M1085.28,979.24l1.75-10.73c-26.07-4.23-47.16-16.75-62.7-37.23c-11.73-15.45-19.97-35.7-22.65-55.54
		c-5.16-38.46,4.95-60.34,30.94-66.92c23.28-5.89,50.18,12.3,50.45,12.48l6.16-8.95c-1.26-0.87-31.18-21.18-59.27-14.06
		c-21.91,5.54-46.46,23.73-39.04,78.9c1.71,12.72,7.19,37.52,24.75,60.66C1032.96,960.62,1056.38,974.54,1085.28,979.24z" clip-rule="evenodd"/><path fill="#f4ae7c" fill-rule="evenodd" d="M982.69,1043.27c0,0-7.42-3.77-11.48-5.59c-4.06-1.82-11.96-6.69-12.56-3.24c-0.61,3.45-3.85,10.13,3.65,11.35
		C969.8,1047,982.69,1043.27,982.69,1043.27z" clip-rule="evenodd"/><path fill="#3556a2" fill-rule="evenodd" d="M938.95,1016.89l-5.13,1.53c-2.57,0.75-5.29-0.72-6.04-3.28l-0.97-3.24c-0.75-2.56,0.72-5.27,3.28-6.04
		l5.14-1.52c2.56-0.77,5.29,0.7,6.04,3.26l0.97,3.24C942.99,1013.42,941.52,1016.13,938.95,1016.89z" clip-rule="evenodd"/><path fill="#cbdcf1" fill-rule="evenodd" d="M956.11,1013.88l18.19,61.27c1.23,4.15-1.15,8.54-5.3,9.77l-23.23,6.92c-4.15,1.23-8.56-1.16-9.79-5.3
		l-18.19-61.26c-1.23-4.15,1.15-8.56,5.3-9.79l23.24-6.9C950.47,1007.34,954.88,1009.73,956.11,1013.88z" clip-rule="evenodd"/><path fill="#f1923f" fill-rule="evenodd" d="M956.85,1016.36l17.45,58.79c1.23,4.15-1.15,8.54-5.3,9.77l-23.23,6.92c-4.15,1.23-8.56-1.16-9.79-5.3
		l-17.1-57.58c3.42-1.16,11.33-3.53,17.01-3.14C941.44,1026.2,951.86,1019.71,956.85,1016.36z" clip-rule="evenodd"/><polygon fill="#ec724c" fill-rule="evenodd" points="969.91 1060.25 931.56 1071.65 920.16 1033.23 958.49 1021.84" clip-rule="evenodd"/><path fill="#f4ae7c" fill-rule="evenodd" d="M948.34,1041.8c10.43-2.62,19.83,3.77,34.35,1.47c0,0,71.94-50.45,84.55-63.06
		c9.13-9.13-27.49-50.28-46.56-82.24c0.98-0.14,1.96-0.47,2.88-1.02c14.59-8.65,43.88-24.33,68.07-26.81
		c0.93-0.09,1.79-0.34,2.56-0.71c15.49,33.45,31.43,76.71,36.28,120.56c0.61,5.56-1.58,11.06-5.81,14.72
		c-17.74,15.33-66.37,42.47-124.83,59.31c0,0-13.09,8.81-25.54,11.14c-12.52,2.34-17.71-4.62-35.91,5.86
		c-8.39,4.83-11.02-5.45-9.99-10.78C929.79,1063.03,936.7,1044.7,948.34,1041.8z" clip-rule="evenodd"/><path fill="#406fb5" fill-rule="evenodd" d="M1060.72,810.72c0,0,29.76,29.08,43.81,70.14c0,0-27.9,24.3-80.14,29.17c0,0-21.44-39.44-5.76-59.42
		C1034.29,830.61,1060.72,810.72,1060.72,810.72z" clip-rule="evenodd"/><path fill="#f4ae7c" fill-rule="evenodd" d="M1172.36,970.83c0,0,1.61,76.27-2.13,98.51c-3.74,22.26,4.9,125.74,4.9,125.74l17.85-2.23
		c0,0,44.7-169.06,40.13-190.75C1228.55,980.39,1172.36,970.83,1172.36,970.83z" clip-rule="evenodd"/><path fill="#f4ae7c" fill-rule="evenodd" d="M1175.13,1195.08c0,0-6.89,23.15-5.25,27.58c1.64,4.41,10.43,13.65,17.66,19.29
		c7.24,5.62,0.87-14.82-0.51-21.45c-1.38-6.63,9.28-7.1,7.62-17.37c-1.67-10.29-1.67-10.29-1.67-10.29L1175.13,1195.08z" clip-rule="evenodd"/><path fill="#f4ae7c" fill-rule="evenodd" d="M1194.65,1203.13c0,0-0.05,19.15,0.16,22.94c0.2,3.79-3.77,0.34-4.33-3c-0.55-3.34-3.97-8.89-5.67-9.37
		C1183.13,1213.24,1194.65,1203.13,1194.65,1203.13z" clip-rule="evenodd"/><path fill="#142d4d" fill-rule="evenodd" d="M1304.06,1489.08c-6.42,64.65-29.64,163.97-29.64,163.97l-18.03-13c0,0-31.75-222.9-36.94-241.02
		c-36.02-125.97-40.13-249.7-40.13-249.7l105.39-31.1c10.75,18.06,19.08,47.77,16.54,81.38
		C1290.18,1346.29,1311.74,1411.66,1304.06,1489.08z" clip-rule="evenodd"/><path fill="#f4ae7c" fill-rule="evenodd" d="M1410.54,1198.28c0,0,0.36,7.21,5.83,14.19c1.24,1.58,4.87,5.76,6.21,4.28c1.35-1.49-3.78-12.72-0.74-19.62
		C1422.93,1194.65,1410.54,1198.28,1410.54,1198.28z" clip-rule="evenodd"/><path fill="#285188" fill-rule="evenodd" d="M1197.28,1659.49c0.81-2.12,2.58-3.71,4.76-4.35c5.39-1.55,16.01-2.96,25.73-11.75
		c5.48-4.95,26.42-18.19,26.42-18.19l0.11-0.03c0.46,0.02,2.65,0.69,12.18,8.74c4.93,4.15,13.32-5.86,13.32-5.86
		s1.58,1.31,2.76,3.73c0.95,1.93,1.64,4.54,1.09,7.8c-0.75,4.57,1.69,13.09,3.64,18.84c1.19,3.49,2.19,5.95,2.19,5.95
		s0.57,2.88-9.72,4.17h-11.97c-4-0.63-6.96-1.79-11.07-2.32c-6.24-0.83-9.11,1.73-9.68,2.32l-0.11,0.11h-50.8
		C1194.86,1666.83,1196.09,1662.61,1197.28,1659.49z" clip-rule="evenodd"/><path fill="#0f3d86" fill-rule="evenodd" d="M1363.17,1484.26c-6.42,64.64-28.24,166.08-28.24,166.08l-15.93,5.15c0,0-35.25-243.15-40.43-261.27
		c-36.02-125.96-41.6-275.51-41.6-275.51l106.86-5.3c10.74,18.07,19.08,47.77,16.54,81.39
		C1349.3,1341.45,1370.85,1406.82,1363.17,1484.26z" clip-rule="evenodd"/><path fill="#3964a2" fill-rule="evenodd" d="M1257.51,1659.49c0.81-2.12,2.57-3.71,4.76-4.35c5.39-1.55,16.01-2.96,25.73-11.75
		c5.47-4.95,26.42-18.19,26.42-18.19l0.11-0.03c0.46,0.02,2.65,0.69,12.17,8.74c4.93,4.15,12.89-6.13,12.89-6.13s2.01,1.58,3.18,4
		c0.95,1.93,1.64,4.54,1.09,7.8c-0.75,4.57,1.69,13.09,3.65,18.84c1.19,3.49,2.18,5.95,2.18,5.95s0.57,2.88-9.72,4.17h-11.96
		c-4-0.63-6.96-1.79-11.07-2.32c-6.24-0.83-9.11,1.73-9.69,2.32l-0.11,0.11h-50.79C1255.08,1666.83,1256.31,1662.61,1257.51,1659.49
		z" clip-rule="evenodd"/><path fill="#ec724c" fill-rule="evenodd" d="M1177.86,1170.9c9.31,10.87,90.53,8.78,108.84,4.71c12.54-2.79,22.24-16.03,29.17-39.63
		c2.29,16.49,7.44,35.83,18.96,37.02c18.88,1.96,26.69-1.29,28.97-8.46c0.37-1.16-3.47-51.01-6.79-101.14
		c-2.3-34.56-4.36-69.27-4.64-88.24c-0.03-2.38-0.03-4.5-0.02-6.36c29.91-1.67,41.67-0.34,41.67-0.34s-14.2-46.13-46.94-83.54
		c-30.26-34.57-102.39-24.31-131.61-15.68c-18.43,5.45-35.81,25.24-26.82,67.13c5.29,24.66-2.26,64.23-5.27,122.53
		C1180.48,1114.97,1175.85,1168.56,1177.86,1170.9z" clip-rule="evenodd"/><path fill="#ec724c" fill-rule="evenodd" d="M1200.3,877.53c0,0-22.59,18.41-35.55,101.62c0,0,7.29,10.05,28.91,7.36
		C1215.26,983.79,1200.3,877.53,1200.3,877.53z" clip-rule="evenodd"/><path fill="#142d4d" fill-rule="evenodd" d="M1225.39,732.66c0,0,52.39-59.5,78.14-19.77c0,0,19.79,8.86,26.08,43.15c6.42,34.97-17.44,60.75-29.21,53.89
		c-7.55-4.4-13.73,8.86-13.73,8.86L1225.39,732.66z" clip-rule="evenodd"/><path fill="#142d4d" fill-rule="evenodd" d="M1298.16,706.55c0,0,7.58-27.07,47.38-17.43c0,0-19.11-2.95-24.57,4.29c0,0,15.39-6.53,24.74-0.45
		c9.36,6.09,10.38,25.73,8.78,31.65c-1.59,5.93-12.59,23.38-19.55,23.19c-6.95-0.19-15.02-6.53-15.02-6.53L1298.16,706.55z" clip-rule="evenodd"/><path fill="#f4ae7c" fill-rule="evenodd" d="M1290.48,860.18c1.08-5.92-4.83-16.3-3.8-49.28l-2.56,0.43l-43.12,7.29c0,0-1,35.07-1.33,47.78
		C1239.4,877,1291.29,869.6,1290.48,860.18z" clip-rule="evenodd"/><path fill="#e79055" fill-rule="evenodd" d="M1240.99,818.63c0,0-0.38,12.71-0.71,25.42c24.02,0,38.29-20.73,43.83-32.71L1240.99,818.63z" clip-rule="evenodd"/><path fill="#142d4d" fill-rule="evenodd" d="M1288.67,806.79c0,0,13.14-19.52,16.63-36.43c2.49-12.07-2.43-57.2-47.8-51.99c0,0-13.16,0.93-25.73,8.91
		c-9.99,6.36-24.54,20.26-9.81,59.94l3.75,13.37L1288.67,806.79z" clip-rule="evenodd"/><path fill="#f4ae7c" fill-rule="evenodd" d="M1232.64,830.44c0,0,56.75,2.52,57.77-32.84c1.03-35.37,9.05-58.86-27.14-61.96
		c-36.2-3.11-43.63,10.19-46.84,21.91C1213.22,769.26,1217.91,828.88,1232.64,830.44z" clip-rule="evenodd"/><path fill="#142d4d" fill-rule="evenodd" d="M1237.44,734.04c0,0,14.39,41.93,38.07,48.73c23.68,6.8,34.22,0.7,34.22,0.7s-17.9-15.05-20.99-40.54
		C1288.74,742.94,1249.71,714.63,1237.44,734.04z" clip-rule="evenodd"/><path fill="#152f54" fill-rule="evenodd" d="M1241.19,737.53c0,0-11.87,8.94-14.95,17.87c-3.08,8.93-4.87,27.43-10.26,26.65c0,0-10.92-28.53,2.68-44.11
		C1233.1,721.4,1241.19,737.53,1241.19,737.53z" clip-rule="evenodd"/><path fill="#152f54" fill-rule="evenodd" d="M1239,738.86c0,0,9.87,43.76,39.58,58.52c0,0-29.36-27.54-31.12-56.3C1245.71,712.34,1239,738.86,1239,738.86z
		" clip-rule="evenodd"/><path fill="#f4ae7c" fill-rule="evenodd" d="M1423.73,1168.36c0,0,14.19,16.54,15.72,25.12c1.54,8.6,0.73,31.53-3.63,32.35
		c-4.65,0.89-7.41-15.03-8.91-18.16c-5.06-10.55-15.04-5.61-16.37-9.4c-1.33-3.77-2.65-21.94-2.65-21.94L1423.73,1168.36z" clip-rule="evenodd"/><path fill="#f4ae7c" fill-rule="evenodd" d="M1375.73,941.5c0,0,38.35,74.76,40.51,106.07c2.17,31.31,7.49,120.79,7.49,120.79l-15.84,7.97
		c0,0-32.87-117.96-34.88-135.8c-2.23-19.91-67.26-85.9-67.26-85.9L1375.73,941.5z" clip-rule="evenodd"/><path fill="#ec724c" fill-rule="evenodd" d="M1307.51,912.75h57.27l29.25,55.71c0,0-46.65,38.6-93.11,22.94C1254.45,975.72,1307.51,912.75,1307.51,912.75
		z" clip-rule="evenodd"/><path fill="#e3bb9b" fill-rule="evenodd" d="M1488.12,1245.4l133.32,2.1c19.6,0.31,34.14,16.1,35.63,35.64c8.34,109.01,8.93,200.68,0,296.74
		c-1.81,19.51-16.12,38.67-35.63,40.36c-44.7,3.88-89.23,6.4-133.32,4.73c-19.58-0.75-34.31-16.09-35.64-35.64
		c-6.9-101.82-6.68-204.61,0-308.28C1453.74,1261.48,1468.52,1245.09,1488.12,1245.4z" clip-rule="evenodd"/><path fill="#9d7558" fill-rule="evenodd" d="M1391.83,1239.03l181.23-1.56c16.28-0.14,53.99,3.4,67.14,15.8c-5.36-3.56-11.73-5.65-18.76-5.77l-133.32-2.1
		c-19.6-0.31-34.38,16.08-35.64,35.64c-6.68,103.67-6.9,206.46,0,308.28c1.32,19.55,16.05,34.9,35.64,35.64
		c13,0.49,26.04,0.62,39.1,0.46c-44.69,3.88-106.93-4.3-134.8-11.3c-19.01-4.77-33.74-18.52-35.06-38.08
		c-6.89-101.81-7.84-197.7-1.17-301.37C1357.45,1255.11,1372.23,1239.2,1391.83,1239.03z" clip-rule="evenodd"/><path fill="#d1a383" fill-rule="evenodd" d="M1490.65,1282.78L1490.65,1282.78c5.49,0.06,9.93,4.71,9.89,10.29c-0.36,47.77-0.56,95.53-0.49,143.26
		c0.07,47.77,0.43,95.53,0.78,143.26c0.04,5.59-4.48,10.2-10.04,10.3l0,0c-5.56,0.06-10.19-4.46-10.27-10.05
		c-0.71-47.82-1.29-95.65-1.31-143.47c-0.02-47.82,0.5-95.65,1.28-143.51C1480.58,1287.27,1485.17,1282.72,1490.65,1282.78
		L1490.65,1282.78z M1616.74,1285.55L1616.74,1285.55c5.48,0.07,10.28,4.55,10.55,9.99c2.32,46.5,4.22,92.97,4.59,139.41
		c0.37,46.47-0.87,92.95-2.69,139.48c-0.22,5.44-5.01,9.96-10.58,10.02l0,0c-5.56,0.09-9.93-4.28-9.76-9.72
		c1.46-46.56,2.47-93.13,2.16-139.66c-0.32-46.54-1.9-93.07-3.79-139.64C1606.99,1289.98,1611.25,1285.49,1616.74,1285.55
		L1616.74,1285.55z M1574.7,1284.75L1574.7,1284.75c5.49,0.19,10.17,4.82,10.33,10.3c1.43,46.78,2.64,93.52,2.91,140.31
		c0.26,46.72-0.45,93.5-1.55,140.27c-0.13,5.47-4.82,10.17-10.39,10.46l0,0c-5.54,0.31-10.02-3.97-9.93-9.47
		c0.74-47.03,1.22-94.02,0.99-141.05c-0.22-46.99-1.09-93.98-2.09-141.01C1564.86,1289.05,1569.23,1284.6,1574.7,1284.75
		L1574.7,1284.75z M1532.69,1283.58L1532.69,1283.58c5.48,0.16,10.04,4.89,10.1,10.42c0.53,47.3,1.04,94.58,1.2,141.88
		c0.17,47.3-0.01,94.61-0.38,141.91c-0.04,5.53-4.65,10.29-10.2,10.57l0,0c-5.56,0.28-10.12-4.06-10.11-9.62
		c0.01-47.55-0.04-95.1-0.17-142.64c-0.12-47.52-0.28-95.01-0.4-142.59C1522.72,1287.94,1527.2,1283.43,1532.69,1283.58z" clip-rule="evenodd"/><path fill="#d1a383" fill-rule="evenodd" d="M1412.15,1581.48c-6.89-103.09-7.84-200.17-1.17-305.13c1.26-19.8,16.04-35.91,35.64-36.08l149.9-1.31
		c-9.15-1.11-17.66-1.53-23.47-1.48l-159.22,1.37c-14.56,4.45-24.82,18.35-25.85,34.78c-6.68,105.51-5.73,203.09,1.16,306.72
		c1.32,19.9,16.05,33.89,35.06,38.74c3.84,0.99,8.34,1.99,13.34,2.98c11.91,1.51,24.74,2.76,37.62,3.53
		c-11.05-1.78-20.67-3.71-27.96-5.56C1428.21,1615.19,1413.48,1601.27,1412.15,1581.48z" clip-rule="evenodd"/><path fill="#dbdcdc" fill-rule="evenodd" d="M1436.3,1100.63v138.02l-13.41,0.11v-138.14H1436.3L1436.3,1100.63z M1522.66,1100.63v137.28l-13.42,0.11
		v-137.39H1522.66z" clip-rule="evenodd"/><path fill="#e3bb9b" fill-rule="evenodd" d="M1428.6,1064.29l87.95,2.1c5.59,0.13,10.18,4.59,10.18,10.18v24.06h-21.86v-4.63c0-6.49-5.31-11.8-11.8-11.8
		h-38.65c-6.49,0-11.8,5.31-11.8,11.8v4.63h-24.2v-26.16C1418.42,1068.87,1423,1064.15,1428.6,1064.29z" clip-rule="evenodd"/><path fill="#b4b5b5" fill-rule="evenodd" d="M1515.44,1237.96v-137.34h-6.21v137.39L1515.44,1237.96L1515.44,1237.96z M1428.74,1238.72l-5.86,0.05
		v-138.14h5.86V1238.72z" clip-rule="evenodd"/><path fill="#9d7558" fill-rule="evenodd" d="M1460.81,1626.9c7.48,0,19.58-0.03,19.92,21.67c0.35,21.7-12.44,20.05-19.92,20.05s-13.55-9.34-13.55-20.86
		C1447.26,1636.23,1453.33,1626.9,1460.81,1626.9z" clip-rule="evenodd"/><path fill="#9d7558" fill-rule="evenodd" d="M1411.18,1619.69c5.68,0,14.83-0.02,15.1,16.43c0.26,16.45-9.43,15.2-15.1,15.2
		c-5.68,0-10.28-7.08-10.28-15.81C1400.9,1626.77,1405.5,1619.69,1411.18,1619.69z" clip-rule="evenodd"/><path fill="#9d7558" fill-rule="evenodd" d="M1561.33,1624.39c1.05,2.14,1.72,5.1,1.79,9.19c0.24,14.84-8.5,13.71-13.62,13.71
		c-5.12,0-9.26-6.39-9.26-14.27c0-2.91,0.57-5.63,1.55-7.89C1548.29,1624.95,1554.8,1624.69,1561.33,1624.39z" clip-rule="evenodd"/><path fill="#9d7558" fill-rule="evenodd" d="M1594.61,1621.95c7.1,0,18.57-0.03,18.9,20.56c0.34,20.6-11.79,19.03-18.9,19.03
		c-7.1,0-12.86-8.87-12.86-19.79C1581.75,1630.82,1587.5,1621.95,1594.61,1621.95z" clip-rule="evenodd"/><path fill="#d1a383" fill-rule="evenodd" d="M1460.81,1636.34c4.1,0,7.42,5.11,7.42,11.42c0,6.31-3.32,11.42-7.42,11.42c-4.09,0-7.42-5.11-7.42-11.42
		C1453.4,1641.45,1456.72,1636.34,1460.81,1636.34z" clip-rule="evenodd"/><path fill="#d1a383" fill-rule="evenodd" d="M1411.18,1626.85c3.11,0,5.62,3.87,5.62,8.66c0,4.78-2.52,8.66-5.62,8.66c-3.11,0-5.62-3.88-5.62-8.66
		C1405.55,1630.72,1408.07,1626.85,1411.18,1626.85z" clip-rule="evenodd"/><path fill="#d1a383" fill-rule="evenodd" d="M1549.5,1625.22c2.8,0,5.07,3.5,5.07,7.81c0,4.32-2.27,7.81-5.07,7.81c-2.8,0-5.07-3.5-5.07-7.81
		C1544.43,1628.71,1546.7,1625.22,1549.5,1625.22z" clip-rule="evenodd"/><path fill="#d1a383" fill-rule="evenodd" d="M1594.61,1630.91c3.89,0,7.04,4.85,7.04,10.84c0,5.98-3.15,10.84-7.04,10.84c-3.89,0-7.04-4.85-7.04-10.84
		C1587.56,1635.76,1590.72,1630.91,1594.61,1630.91z" clip-rule="evenodd"/><path fill="#d1a383" fill-rule="evenodd" d="M1422.88,1100.63h5.86h7.56h6.32v-4.63c0-6.49,5.31-11.8,11.8-11.8h38.65c6.35,0,11.57,5.08,11.79,11.38
		v-2.68c0-6.49-5.36-11.8-11.9-11.8h-38.95c-6.54,0-11.9,5.31-11.9,11.8v4.63h-23.7v3.11H1422.88L1422.88,1100.63z M1504.87,1097.52
		v3.11h4.36h6.21h7.21h4.08v-3.11H1504.87z" clip-rule="evenodd"/><path fill="#f4ae7c" fill-rule="evenodd" d="M798.28,1619.67c0,0,1.82,15.63,1.82,18.31c0,2.64,0,2.64,0,2.64l-1.3,2.69l-0.52,1.08l9.36,13.15
		c0,0,37.61,0.56,38.44,0.56c0.85,0-5.03-9.09-5.03-9.09s-12.42-9.37-14.67-15.93c-2.24-6.57,1.88-20.26,1.88-20.26L798.28,1619.67z
		" clip-rule="evenodd"/><path fill="#f4ae7c" fill-rule="evenodd" d="M617.1,1526.01c0,0-13.39,8.3-15.49,9.96c-2.06,1.67-2.06,1.67-2.06,1.67l-1.3,2.69l-0.54,1.08l-16.09,0.84
		c0,0-23.83-29.11-24.34-29.76c-0.52-0.65,6.84,0.99,6.84,0.99s15.04,2.02,21.56-0.31c6.56-2.34,19.78-15.35,19.78-15.35
		L617.1,1526.01z" clip-rule="evenodd"/><path fill="#be5538" fill-rule="evenodd" d="M738.76,1379.17L594.55,1502l22.21,31.43c0,0,148.2-92.01,155.96-93.04c7.73-1.05,14.02,2.51,15.5,8.17
		c1.46,5.65,5.18,175.46,5.18,175.46h38.53L852,1410.22L738.76,1379.17z" clip-rule="evenodd"/><path fill="#f4ae7c" fill-rule="evenodd" d="M946.52,1203.98c10.66-7,35.73-33.88,44.23-43.04c0.08-1.08,0.9-7.31,7.72-15.21
		c4.82-5.58,8.48-18.32,11.64-14.71c3.17,3.61-4.68,13.74-1.1,13.8c3.58,0.06,21.43-19.97,24.3-16.7
		c2.85,3.28-15.26,21.09-12.02,21.14c3.2,0.07,17.9-17.97,21.97-13.35c4.03,4.62-19.27,19.64-17.1,22.09
		c2.15,2.49,16.62-7.33,19.88-3.61c3.25,3.73-20.38,12.5-18.49,12.52c1.88,0.05,15.52-0.34,15.64,2.29
		c0.11,2.98-34.53,7.6-38.77,12.74c-9.05,14.4-25.16,40.7-41.45,52.26c-19.97,14.14-66.07,44.09-66.07,44.09l-22.92-29.59
		C873.98,1248.7,933.88,1212.28,946.52,1203.98z" clip-rule="evenodd"/><path fill="#ef8f7d" fill-rule="evenodd" d="M1009.02,1151.19c0.87,1.75,1.28,3.65,1.39,5.56c-0.07,0.31,0.78,6.5-4.51,11.2
		C1007.95,1164.13,1010.23,1159.87,1009.02,1151.19z" clip-rule="evenodd"/><path fill="#f4ae7c" fill-rule="evenodd" d="M735.12,1171.6c-8.48-9.54-25.64-42.05-31.45-53.11c0.21-1.06,1.04-7.27-3.47-16.7
		c-3.2-6.66-3.38-19.9-7.38-17.25c-4.02,2.67,0.92,14.49-2.56,13.62c-3.5-0.87-15.45-24.88-19.09-22.48
		c-3.61,2.4,9.2,24.34,6.08,23.56c-3.11-0.79-12.59-22.06-17.7-18.65c-5.11,3.41,13.47,23.98,10.73,25.82
		c-2.76,1.82-14.14-11.44-18.26-8.7c-4.11,2.74,16.43,17.39,14.59,16.91c-1.84-0.44-14.9-4.38-15.68-1.85
		c-0.9,2.82,31.33,16.35,34.06,22.42l0,0c4.97,16.26,13.64,45.88,26.36,61.3c15.57,18.85,52.24,59.81,52.24,59.81l29.84-22.57
		C793.41,1233.73,745.15,1182.91,735.12,1171.6z" clip-rule="evenodd"/><path fill="#ef8f7d" fill-rule="evenodd" d="M688.58,1104.32c-1.3,1.46-2.17,3.19-2.78,5c-0.02,0.31-2.44,6.06,1.42,11.98
		C686.23,1117.06,685.15,1112.37,688.58,1104.32z" clip-rule="evenodd"/><path fill="#142d4d" fill-rule="evenodd" d="M798.84,1239.01L798.84,1239.01c4.35-6.49,11.82-10.17,19.61-9.64c22.92,1.55,69.34,5.24,73.74,9.64
		c5.88,5.87,23.49,44.15,6.71,97.82c-16.76,53.64-25.98,48.06-39.67,48.06c-13.71,0-78.26-30.44-78.26-30.44L798.84,1239.01z" clip-rule="evenodd"/><path fill="#f1923f" fill-rule="evenodd" d="M759.3,1193.46l-26.93,35.11l33.41,49.72c0,0-3.14,36.96-7.97,48.46c-4.83,11.54-32.68,58.9-32.68,58.9
		s67.69,41.51,133.92,35.43c0,0,18.67-95.99,23.9-105.21c5.25-9.22,55.76-54.93,55.76-54.93l-24.52-39.62l-42.33,23.5
		c0,0-77.39-12.53-81.12-16.25C787.02,1224.85,759.3,1193.46,759.3,1193.46z" clip-rule="evenodd"/><path fill="#142d4d" fill-rule="evenodd" d="M846.63,1121.64c0,0-26.14-13.84-35.08,9.09c0,0-23.47-2.38-19.43,21.92c0,0-23.61,11.89-8.66,42.49
		c0,0-6.58,28.79,27.1,30.61c0,0,5.03,10.18,20.4,7.81c15.37-2.35,19.29-6.42,19.29-6.42s27.24,7.96,35.49-16.63
		c0,0,18.72-4.49,6.15-28.52c0,0,16.35-31.14-12.44-40.52C879.48,1141.47,876.11,1109.61,846.63,1121.64z" clip-rule="evenodd"/><path fill="#f4ae7c" fill-rule="evenodd" d="M857.17,1189.15c-2.11,5.9-0.58,11.88,3.41,13.3c4.02,1.43,8.98-2.2,11.11-8.13
		c2.11-5.92,0.58-11.89-3.41-13.32C864.26,1179.57,859.31,1183.2,857.17,1189.15z" clip-rule="evenodd"/><path fill="#f4ae7c" fill-rule="evenodd" d="M786.7,1174.59c-0.29,6.29,2.91,11.55,7.16,11.76c4.26,0.2,7.95-4.74,8.24-11.02
		c0.29-6.31-2.92-11.55-7.16-11.76C790.7,1163.37,786.99,1168.31,786.7,1174.59z" clip-rule="evenodd"/><path fill="#f4ae7c" fill-rule="evenodd" d="M816.59,1216.23c0,0.4-3.38,15.01-5.21,22.73c-0.65,2.88,0.79,5.81,3.48,7.05c7.18,3.27,21.32,7.85,31.07-1.02
		c0.9-0.79,1.37-1.95,1.33-3.16l-1.19-34.83L816.59,1216.23z" clip-rule="evenodd"/><path fill="#ef8f7d" fill-rule="evenodd" d="M814.77,1224.4c7.6,3.84,17.16,3.91,27.89-2.37c1.37-0.78,2.62-1.64,3.83-2.54l-0.42-12.47l-29.49,9.22
		C816.59,1216.43,815.8,1219.96,814.77,1224.4z" clip-rule="evenodd"/><path fill="#f4ae7c" fill-rule="evenodd" d="M837.5,1135.84c0,0,12.86,3.39,20.42,15.91s11.73,48.71-15.26,64.55c-26.99,15.84-46.65-8.69-46.13-31.89
		C797.05,1161.24,807.34,1131.58,837.5,1135.84z" clip-rule="evenodd"/><path fill="#0f3d86" fill-rule="evenodd" d="M793.43,1229.79c-12.43,9.4-25.45,57.57-30.35,70.16l-3.97,23.09l50.57-89.35
		C809.68,1233.69,796.12,1227.77,793.43,1229.79z" clip-rule="evenodd"/><path fill="#0f3d86" fill-rule="evenodd" d="M854.87,1241.97c0,0-1.52,59.37,2.94,79.76c4.5,20.39,16.18,27.53,16.18,27.53l5.74-23.74
		c0,0-5.74-52.41-7.86-80.7C871.54,1240.52,854.87,1241.97,854.87,1241.97z" clip-rule="evenodd"/><path fill="#406fb5" fill-rule="evenodd" d="M791.44,1667.14c-5.75-0.73,4.18-20.63,7.36-23.83l42.25,5.7c0,0,20.34,9.43,25.16,14.25
		c1.14,1.14,1.31,3.14-3.67,3.88C846.58,1669.52,804.18,1668.75,791.44,1667.14z" clip-rule="evenodd"/><path fill="#406fb5" fill-rule="evenodd" d="M583.76,1561.21c4.96,2.98,13.97-16.41,14.49-20.89l-34.13-26.86c0,0-26.3-7.55-31.61-2.24
		C527.68,1516.05,572.49,1554.44,583.76,1561.21z" clip-rule="evenodd"/></svg>